if (_typeface_js && _typeface_js.loadFace) _typeface_js.loadFace({"glyphs":{"0":{"ha":769,"x_min":0,"x_max":0,"o":"m 385 -11 b 65 353 199 -11 65 146 b 385 717 65 563 197 717 b 706 353 571 717 706 561 b 385 -11 706 144 572 -11 m 385 74 b 604 353 517 74 604 190 b 385 632 604 515 517 632 b 165 353 254 632 165 515 b 385 74 165 190 254 74 "},"1":{"ha":568,"x_min":0,"x_max":0,"o":"m 88 83 l 254 83 l 254 603 l 106 565 l 83 649 l 308 708 l 351 708 l 351 83 l 515 83 l 515 0 l 88 0 "},"2":{"ha":688,"x_min":0,"x_max":0,"o":"m 326 632 b 182 576 263 632 207 607 l 178 569 b 213 517 197 560 213 539 b 146 449 213 479 183 449 b 74 533 106 449 74 482 b 100 610 74 558 83 585 b 332 717 142 668 228 717 b 588 514 500 717 588 618 b 378 263 588 397 490 332 b 174 82 292 210 217 157 l 525 82 l 525 201 l 611 201 l 611 0 l 64 0 l 51 49 b 329 331 106 179 215 258 b 490 513 419 389 490 436 b 326 632 490 582 428 632 "},"3":{"ha":683,"x_min":0,"x_max":0,"o":"m 49 11 b 124 94 49 57 82 94 b 188 31 161 94 188 64 b 153 -26 188 8 176 -15 l 158 -35 b 326 -89 192 -69 256 -89 b 524 72 443 -89 524 -19 b 422 218 524 138 488 189 b 265 249 381 238 326 249 l 235 249 l 235 331 l 269 331 b 429 369 328 331 385 344 b 514 496 481 400 514 443 b 336 631 514 583 440 631 b 186 578 260 631 211 608 l 182 572 b 219 517 203 563 219 538 b 153 453 219 479 186 453 b 79 536 114 453 79 486 b 106 613 79 561 88 586 b 342 717 144 669 226 717 b 611 497 501 717 611 618 b 496 324 611 426 563 361 b 406 293 468 308 438 297 b 492 265 435 288 465 278 b 621 72 567 228 621 160 b 325 -175 621 -78 492 -175 b 75 -67 214 -175 118 -131 b 49 11 58 -43 49 -17 "},"4":{"ha":714,"x_min":0,"x_max":0,"o":"m 440 81 l 42 81 l 24 122 l 471 721 l 543 667 l 168 163 l 440 163 l 440 360 l 533 397 l 533 163 l 689 163 l 689 81 l 533 81 l 533 -167 l 440 -167 "},"5":{"ha":674,"x_min":0,"x_max":0,"o":"m 58 -19 b 131 61 58 24 89 61 b 197 -3 168 61 197 35 b 174 -53 197 -21 188 -42 b 175 -54 174 -53 174 -54 b 313 -87 204 -76 250 -87 b 515 106 433 -87 515 -6 b 315 292 515 214 440 292 b 129 251 244 292 181 275 l 86 276 l 138 706 l 568 706 l 568 614 l 213 614 l 183 354 b 325 375 222 367 272 375 b 615 106 492 375 615 269 b 318 -172 615 -57 485 -172 b 99 -106 219 -172 143 -146 b 58 -19 72 -81 58 -50 "},"6":{"ha":739,"x_min":0,"x_max":0,"o":"m 414 804 b 167 421 290 804 174 669 b 390 540 204 488 290 540 b 676 275 557 540 676 421 b 379 -12 676 115 553 -12 b 167 71 293 -12 221 17 b 72 372 101 138 72 242 b 422 889 72 739 251 889 b 601 824 492 889 561 865 b 638 744 624 801 638 775 b 564 663 638 693 600 663 b 496 731 522 663 496 693 b 514 774 496 750 503 764 b 414 804 492 793 458 804 m 379 72 b 578 275 500 72 578 158 b 386 457 578 378 503 457 b 178 261 263 457 178 364 b 233 128 178 211 197 164 b 379 72 268 94 318 72 "},"7":{"ha":653,"x_min":0,"x_max":0,"o":"m 132 -129 l 486 625 l 132 625 l 132 486 l 43 486 l 43 706 l 589 706 l 608 664 l 217 -169 "},"8":{"ha":700,"x_min":0,"x_max":0,"o":"m 349 -11 b 61 235 179 -11 61 96 b 225 451 61 335 132 417 b 79 649 135 490 79 576 b 349 888 79 789 199 888 b 619 649 501 888 619 789 b 472 451 619 569 561 490 b 639 235 565 417 639 335 b 349 -11 639 96 519 -11 m 349 489 b 521 644 443 489 521 558 b 349 803 521 735 447 803 b 179 644 251 803 179 735 b 349 489 179 558 256 489 m 349 74 b 536 240 457 74 536 146 b 349 410 536 338 456 410 b 163 240 243 410 163 338 b 349 74 163 146 243 74 "},"9":{"ha":739,"x_min":0,"x_max":0,"o":"m 307 -172 b 125 -103 238 -172 165 -147 b 93 -26 104 -81 93 -56 b 165 56 93 25 129 56 b 235 -12 208 56 235 24 b 217 -56 235 -32 228 -46 b 317 -86 239 -75 272 -86 b 571 281 449 -86 563 43 b 347 167 533 215 446 167 b 61 429 181 167 61 283 b 358 717 61 590 185 717 b 569 636 443 717 517 689 b 665 332 635 569 665 464 b 307 -172 665 -35 479 -172 m 504 578 b 358 632 469 611 419 632 b 161 429 239 632 161 546 b 351 251 161 328 235 251 b 560 444 475 251 560 340 b 504 578 560 494 540 542 "},"A":{"ha":981,"x_min":0,"x_max":0,"o":"m 25 92 l 113 92 l 386 824 l 282 824 l 282 914 l 699 914 l 699 824 l 594 824 l 868 92 l 956 92 l 956 0 l 650 0 l 650 90 l 757 90 l 675 315 l 301 315 l 219 90 l 331 90 l 331 0 l 25 0 m 644 403 l 489 829 l 332 403 "},"B":{"ha":840,"x_min":0,"x_max":0,"o":"m 65 92 l 182 92 l 182 822 l 65 822 l 65 914 l 432 914 b 739 682 649 914 739 804 b 572 468 739 572 671 499 b 765 250 694 436 765 368 b 449 0 765 106 650 0 l 65 0 m 451 90 b 663 256 586 90 663 158 b 422 424 663 365 572 424 l 285 424 l 285 90 m 419 508 b 636 672 564 508 636 575 b 429 824 636 767 564 824 l 285 824 l 285 508 "},"C":{"ha":975,"x_min":0,"x_max":0,"o":"m 546 -17 b 78 453 264 -17 78 201 b 542 931 78 735 294 931 b 883 706 733 931 883 815 b 803 615 883 654 849 615 b 726 689 760 615 726 647 b 761 744 726 715 743 738 b 540 836 736 785 657 836 b 183 454 332 836 183 660 b 546 78 183 258 331 78 b 829 196 656 78 747 119 l 890 122 b 546 -17 799 31 672 -17 "},"D":{"ha":1011,"x_min":0,"x_max":0,"o":"m 65 92 l 182 92 l 182 822 l 65 822 l 65 914 l 408 914 b 933 467 726 914 933 738 b 404 0 933 190 740 0 l 65 0 m 417 92 b 828 468 690 92 828 244 b 406 822 828 688 664 822 l 286 822 l 286 92 "},"E":{"ha":817,"x_min":0,"x_max":0,"o":"m 65 92 l 182 92 l 182 822 l 65 822 l 65 914 l 729 914 l 729 690 l 631 690 l 631 824 l 286 824 l 286 510 l 585 510 l 585 421 l 286 421 l 286 90 l 631 90 l 631 224 l 731 224 l 731 0 l 65 0 "},"F":{"ha":788,"x_min":0,"x_max":0,"o":"m 65 92 l 182 92 l 182 822 l 65 822 l 65 914 l 719 914 l 719 690 l 619 690 l 619 824 l 286 824 l 286 493 l 579 493 l 579 404 l 286 404 l 286 92 l 413 92 l 413 0 l 65 0 "},"G":{"ha":1024,"x_min":0,"x_max":0,"o":"m 522 -17 b 78 450 292 -17 78 158 b 551 931 78 739 299 931 b 894 719 757 931 894 817 b 817 633 894 668 861 633 b 742 707 774 633 742 665 b 765 760 742 731 751 749 b 549 836 731 797 651 836 b 183 450 332 836 183 667 b 533 75 183 225 344 75 b 804 163 638 75 725 107 l 804 357 l 551 357 l 551 444 l 906 444 l 906 0 l 807 0 l 807 79 b 522 -17 728 19 638 -17 "},"H":{"ha":1078,"x_min":0,"x_max":0,"o":"m 65 92 l 182 92 l 182 822 l 65 822 l 65 914 l 406 914 l 406 822 l 286 822 l 286 514 l 792 514 l 792 822 l 672 822 l 672 914 l 1013 914 l 1013 822 l 896 822 l 896 92 l 1013 92 l 1013 0 l 672 0 l 672 92 l 792 92 l 792 422 l 286 422 l 286 92 l 406 92 l 406 0 l 65 0 "},"I":{"ha":483,"x_min":0,"x_max":0,"o":"m 67 92 l 190 92 l 190 822 l 67 822 l 67 914 l 417 914 l 417 822 l 293 822 l 293 92 l 417 92 l 417 0 l 67 0 "},"J":{"ha":735,"x_min":0,"x_max":0,"o":"m 300 -17 b 42 207 158 -17 42 82 b 128 314 42 271 78 314 b 199 243 164 314 199 285 b 149 179 199 213 179 186 b 300 79 153 138 206 79 b 421 126 347 79 390 94 b 474 311 458 163 474 225 l 474 822 l 333 822 l 333 914 l 686 914 l 686 822 l 576 822 l 576 310 b 496 58 576 203 550 113 b 300 -17 447 10 382 -17 "},"K":{"ha":938,"x_min":0,"x_max":0,"o":"m 65 92 l 182 92 l 182 822 l 65 822 l 65 914 l 406 914 l 406 824 l 286 824 l 286 425 l 682 824 l 560 824 l 560 914 l 913 914 l 913 822 l 810 822 l 513 526 l 804 92 l 919 92 l 919 0 l 738 0 l 436 458 l 286 308 l 286 92 l 406 92 l 406 0 l 65 0 "},"L":{"ha":769,"x_min":0,"x_max":0,"o":"m 65 92 l 182 92 l 182 822 l 65 822 l 65 914 l 413 914 l 413 822 l 286 822 l 286 90 l 603 90 l 603 231 l 701 231 l 701 0 l 65 0 "},"M":{"ha":1225,"x_min":0,"x_max":0,"o":"m 58 92 l 178 92 l 211 822 l 89 822 l 89 914 l 311 914 l 610 293 l 910 914 l 1131 914 l 1131 822 l 1008 822 l 1042 92 l 1160 92 l 1160 0 l 824 0 l 824 92 l 940 92 l 917 731 l 622 129 l 594 129 l 300 731 l 278 92 l 393 92 l 393 0 l 58 0 "},"N":{"ha":1061,"x_min":0,"x_max":0,"o":"m 282 733 l 282 92 l 401 92 l 401 0 l 65 0 l 65 92 l 182 92 l 182 822 l 65 822 l 65 914 l 272 914 l 800 218 l 800 822 l 679 822 l 679 914 l 1011 914 l 1011 822 l 899 822 l 899 -3 l 842 -4 "},"O":{"ha":1079,"x_min":0,"x_max":0,"o":"m 538 -17 b 78 456 271 -17 78 192 b 543 931 78 724 274 931 b 1003 458 808 931 1003 722 b 538 -17 1003 190 806 -17 m 540 78 b 896 456 749 78 896 242 b 540 836 896 671 749 836 b 183 458 331 836 183 672 b 540 78 183 243 331 78 "},"P":{"ha":807,"x_min":0,"x_max":0,"o":"m 65 92 l 182 92 l 182 822 l 65 822 l 65 914 l 417 914 b 754 626 608 914 754 803 b 415 329 754 439 618 329 b 286 332 365 329 313 331 l 286 92 l 410 92 l 410 0 l 65 0 m 421 419 b 650 625 563 419 650 499 b 418 822 650 750 549 822 l 286 822 l 286 422 b 421 419 314 421 363 419 "},"Q":{"ha":1079,"x_min":0,"x_max":0,"o":"m 910 -193 b 614 -60 783 -193 692 -107 b 476 -10 572 -33 526 -18 b 225 106 378 6 292 44 b 78 456 135 186 78 315 b 543 931 78 724 274 931 b 1003 458 808 931 1003 722 b 665 11 1003 232 865 56 b 743 -29 692 1 718 -14 b 906 -94 807 -71 847 -94 b 1018 -58 947 -94 975 -87 l 1065 -142 b 910 -193 1014 -182 963 -193 m 540 78 b 896 456 749 78 896 242 b 540 836 896 671 749 836 b 183 458 331 836 183 672 b 299 172 183 343 226 240 b 540 78 361 113 443 78 "},"R":{"ha":858,"x_min":0,"x_max":0,"o":"m 65 92 l 182 92 l 182 822 l 65 822 l 65 914 l 413 914 b 744 649 614 914 744 813 b 549 399 744 524 664 436 l 740 92 l 850 92 l 850 0 l 669 0 l 444 374 b 392 371 428 372 410 371 b 286 374 356 371 313 372 l 286 92 l 406 92 l 406 0 l 65 0 m 397 461 b 640 646 536 461 640 525 b 407 822 640 761 549 822 l 286 822 l 286 464 b 397 461 314 463 353 461 "},"S":{"ha":763,"x_min":0,"x_max":0,"o":"m 381 -15 b 76 174 201 -15 76 85 b 150 261 76 226 108 261 b 222 193 193 261 222 229 b 200 132 222 168 213 149 b 382 75 231 101 299 75 b 578 236 504 75 578 138 b 388 413 578 331 492 372 b 111 688 231 472 111 531 b 393 931 111 828 222 931 b 665 750 543 931 665 844 b 593 669 665 699 632 669 b 519 740 549 669 519 703 b 539 793 519 763 529 781 b 390 839 514 821 447 839 b 214 696 281 839 214 779 b 415 514 214 599 300 558 b 681 244 565 456 681 399 b 381 -15 681 83 553 -15 "},"T":{"ha":876,"x_min":0,"x_max":0,"o":"m 263 92 l 386 92 l 386 826 l 157 826 l 157 679 l 58 679 l 58 914 l 818 914 l 818 679 l 719 679 l 719 826 l 490 826 l 490 92 l 614 92 l 614 0 l 263 0 "},"U":{"ha":986,"x_min":0,"x_max":0,"o":"m 492 -17 b 161 315 283 -17 161 101 l 161 822 l 46 822 l 46 914 l 383 914 l 383 822 l 263 822 l 263 322 b 493 78 263 160 347 78 b 725 319 639 78 725 156 l 725 822 l 604 822 l 604 914 l 940 914 l 940 822 l 825 822 l 825 319 b 492 -17 825 103 697 -17 "},"V":{"ha":967,"x_min":0,"x_max":0,"o":"m 115 822 l 25 822 l 25 914 l 333 914 l 333 822 l 229 822 l 486 163 l 743 822 l 633 822 l 633 914 l 942 914 l 942 822 l 853 822 l 514 -14 l 454 -14 "},"W":{"ha":1375,"x_min":0,"x_max":0,"o":"m 135 822 l 29 822 l 29 914 l 360 914 l 360 822 l 244 822 l 436 182 l 665 804 l 722 804 l 953 183 l 1139 822 l 1019 822 l 1019 914 l 1349 914 l 1349 822 l 1243 822 l 988 -14 l 928 -14 l 692 615 l 454 -14 l 394 -14 "},"X":{"ha":1001,"x_min":0,"x_max":0,"o":"m 56 92 l 151 92 l 440 468 l 172 822 l 72 822 l 72 914 l 390 914 l 390 825 l 290 825 l 503 528 l 719 825 l 613 825 l 613 914 l 931 914 l 931 822 l 832 822 l 563 469 l 850 92 l 946 92 l 946 0 l 631 0 l 631 89 l 732 89 l 500 410 l 264 89 l 371 89 l 371 0 l 56 0 "},"Y":{"ha":892,"x_min":0,"x_max":0,"o":"m 265 92 l 393 92 l 393 365 l 124 822 l 26 822 l 26 914 l 333 914 l 333 822 l 239 822 l 447 454 l 657 822 l 558 822 l 558 914 l 867 914 l 867 822 l 768 822 l 497 367 l 497 92 l 626 92 l 626 0 l 265 0 "},"Z":{"ha":842,"x_min":0,"x_max":0,"o":"m 63 50 l 622 828 l 186 828 l 186 683 l 92 683 l 92 914 l 769 914 l 769 864 l 210 86 l 686 86 l 686 231 l 779 231 l 779 0 l 63 0 "},"a":{"ha":683,"x_min":0,"x_max":0,"o":"m 258 -11 b 63 158 144 -11 63 57 b 290 338 63 267 158 338 b 461 310 354 338 431 321 l 461 392 b 435 475 461 425 451 454 b 306 522 408 504 365 522 b 214 497 258 522 233 510 b 222 463 218 488 222 475 b 160 401 222 428 197 401 b 99 465 124 401 99 429 b 318 603 99 533 176 603 b 508 533 406 603 469 576 b 553 406 539 500 553 456 l 553 83 l 649 83 l 649 0 l 464 0 l 464 75 b 258 -11 415 28 339 -11 m 283 67 b 461 149 354 67 415 103 l 461 247 b 301 271 417 260 358 271 b 160 165 207 271 160 226 b 283 67 160 108 203 67 "},"b":{"ha":757,"x_min":0,"x_max":0,"o":"m 396 -11 b 201 61 321 -11 253 18 l 172 -1 l 113 -1 l 113 933 l 18 933 l 18 1017 l 208 1017 l 208 514 b 411 603 258 563 317 603 b 693 296 565 603 693 479 b 396 -11 693 126 571 -11 m 390 72 b 594 294 504 72 594 161 b 394 519 594 429 510 519 b 208 431 318 519 257 481 l 208 139 b 390 72 254 103 314 72 "},"c":{"ha":657,"x_min":0,"x_max":0,"o":"m 372 -11 b 58 294 193 -11 58 119 b 354 603 58 458 189 603 b 596 425 489 603 596 514 b 521 344 596 381 564 344 b 457 410 489 344 457 368 b 486 458 457 429 468 447 b 353 521 471 494 413 521 b 157 293 265 521 157 444 b 383 74 157 164 249 74 b 581 139 450 74 511 94 l 572 46 b 372 -11 513 6 436 -11 "},"d":{"ha":764,"x_min":0,"x_max":0,"o":"m 342 -11 b 61 292 185 -11 61 111 b 354 603 61 460 176 603 b 538 532 428 603 492 575 l 538 933 l 426 933 l 426 1017 l 633 1017 l 633 83 l 729 83 l 729 0 l 540 0 l 540 83 b 342 -11 490 28 429 -11 m 356 72 b 538 161 432 72 490 111 l 538 451 b 360 519 493 489 438 519 b 161 293 243 519 161 424 b 356 72 160 161 243 72 "},"e":{"ha":674,"x_min":0,"x_max":0,"o":"m 157 268 b 385 74 171 138 257 74 b 593 139 464 74 524 99 l 585 46 b 372 -11 524 8 447 -11 b 57 294 183 -11 57 114 b 347 603 57 458 167 603 b 618 324 524 603 618 471 b 613 268 618 301 617 283 m 342 521 b 158 344 251 521 172 457 l 521 344 b 342 521 514 449 454 521 "},"f":{"ha":442,"x_min":0,"x_max":0,"o":"m 404 883 b 332 942 365 883 343 908 b 286 914 314 938 297 929 b 254 790 265 889 254 849 l 254 592 l 407 592 l 407 507 l 254 507 l 254 83 l 369 83 l 369 0 l 63 0 l 63 83 l 158 83 l 158 507 l 53 507 l 53 592 l 158 592 l 158 768 b 221 974 158 864 175 928 b 356 1028 256 1007 297 1028 b 464 949 419 1028 464 997 b 404 883 464 910 438 883 "},"g":{"ha":772,"x_min":0,"x_max":0,"o":"m 635 -19 b 581 -192 635 -93 615 -150 b 356 -278 531 -253 447 -278 b 154 -214 263 -278 190 -249 b 124 -146 133 -193 124 -169 b 193 -74 124 -106 153 -74 b 251 -133 228 -74 251 -100 b 239 -172 251 -147 247 -161 b 356 -196 257 -183 296 -196 b 504 -137 414 -196 469 -181 b 539 -24 526 -110 539 -74 l 539 92 b 342 4 490 42 432 4 b 61 299 188 4 61 126 b 354 603 61 458 178 603 b 543 526 433 603 496 571 l 543 592 l 731 592 l 731 507 l 635 507 m 363 518 b 161 300 242 518 161 424 b 357 88 161 175 243 88 b 539 174 432 88 492 124 l 539 451 b 363 518 496 489 439 518 "},"h":{"ha":772,"x_min":0,"x_max":0,"o":"m 43 933 l 43 1017 l 233 1017 l 233 485 b 453 603 290 550 368 603 b 603 539 522 603 572 579 b 642 403 629 504 642 457 l 642 83 l 738 83 l 738 0 l 453 0 l 453 83 l 546 83 l 546 383 b 519 476 546 426 538 456 b 428 514 500 501 468 514 b 233 410 354 514 286 468 l 233 83 l 326 83 l 326 0 l 43 0 l 43 83 l 138 83 l 138 933 "},"i":{"ha":403,"x_min":0,"x_max":0,"o":"m 194 743 b 118 819 153 743 118 778 b 196 897 118 861 154 897 b 271 819 236 897 271 861 b 194 743 271 778 235 743 m 60 83 l 160 83 l 160 507 l 60 507 l 60 592 l 256 592 l 256 83 l 356 83 l 356 0 l 60 0 "},"j":{"ha":360,"x_min":0,"x_max":0,"o":"m -72 -187 b -10 -122 -72 -154 -47 -122 b 50 -185 26 -122 50 -149 b 49 -200 50 -187 49 -194 l 57 -200 b 144 -118 99 -200 129 -171 b 160 3 154 -86 160 -44 l 160 507 l 46 507 l 46 592 l 256 592 l 256 14 b 229 -154 256 -56 246 -111 b 54 -278 196 -240 132 -278 b -72 -187 -26 -278 -72 -235 m 190 743 b 114 819 149 743 114 778 b 192 897 114 861 150 897 b 267 819 232 897 267 861 b 190 743 267 778 232 743 "},"k":{"ha":728,"x_min":0,"x_max":0,"o":"m 43 83 l 138 83 l 138 933 l 43 933 l 43 1017 l 233 1017 l 233 297 l 481 511 l 365 511 l 365 592 l 700 592 l 700 507 l 594 507 l 408 347 l 592 83 l 700 83 l 700 0 l 536 0 l 339 294 l 233 206 l 233 82 l 329 82 l 329 0 l 43 0 "},"l":{"ha":386,"x_min":0,"x_max":0,"o":"m 46 83 l 146 83 l 146 933 l 46 933 l 46 1017 l 242 1017 l 242 83 l 342 83 l 342 0 l 46 0 "},"m":{"ha":1154,"x_min":0,"x_max":0,"o":"m 57 83 l 151 83 l 151 507 l 57 507 l 57 592 l 243 592 l 243 482 b 458 603 294 546 372 603 b 606 532 532 603 579 576 b 624 486 614 518 619 503 b 842 603 688 551 764 603 b 1003 517 926 603 976 571 b 1024 403 1017 485 1024 446 l 1024 83 l 1118 83 l 1118 0 l 836 0 l 836 83 l 928 83 l 928 385 b 917 460 928 417 924 440 b 824 514 901 497 871 514 b 636 413 753 514 693 471 l 636 83 l 728 83 l 728 0 l 446 0 l 446 83 l 540 83 l 540 385 b 529 460 540 417 536 440 b 435 514 514 497 483 514 b 247 410 363 514 301 467 l 247 83 l 339 83 l 339 0 l 57 0 "},"n":{"ha":782,"x_min":0,"x_max":0,"o":"m 243 482 b 465 603 299 547 381 603 b 622 526 542 603 593 574 b 651 403 642 493 651 451 l 651 83 l 746 83 l 746 0 l 463 0 l 463 83 l 556 83 l 556 383 b 540 463 556 415 551 442 b 442 514 524 497 490 514 b 247 410 368 514 300 468 l 247 83 l 340 83 l 340 0 l 57 0 l 57 83 l 151 83 l 151 507 l 57 507 l 57 592 l 243 592 "},"o":{"ha":731,"x_min":0,"x_max":0,"o":"m 365 -11 b 61 296 181 -11 61 126 b 365 603 61 463 182 603 b 669 296 549 603 669 464 b 365 -11 669 128 549 -11 m 365 72 b 569 296 486 72 569 164 b 365 519 569 426 486 519 b 161 296 244 519 161 426 b 365 72 161 164 244 72 "},"p":{"ha":771,"x_min":0,"x_max":0,"o":"m 43 -189 l 138 -189 l 138 507 l 43 507 l 43 592 l 231 592 l 231 507 b 429 603 281 563 340 603 b 708 299 585 603 708 481 b 417 -11 708 132 593 -11 b 233 57 347 -11 282 15 l 233 -189 l 347 -189 l 347 -272 l 43 -272 m 411 74 b 608 297 526 74 607 168 b 415 518 610 431 526 518 b 233 431 339 518 282 481 l 233 139 b 411 74 278 101 335 74 "},"q":{"ha":738,"x_min":0,"x_max":0,"o":"m 428 -189 l 546 -189 l 546 78 b 343 -11 496 28 438 -11 b 61 296 189 -11 61 113 b 358 603 61 465 183 603 b 553 529 433 603 501 574 l 582 592 l 642 592 l 642 -189 l 738 -189 l 738 -272 l 428 -272 m 360 74 b 546 160 436 74 497 110 l 546 453 b 364 518 500 489 442 518 b 161 296 250 518 161 431 b 360 74 161 163 246 74 "},"r":{"ha":528,"x_min":0,"x_max":0,"o":"m 424 603 b 513 525 482 603 513 565 b 446 454 513 488 483 454 b 375 504 410 454 385 478 b 247 379 331 492 276 439 l 247 83 l 358 83 l 358 0 l 57 0 l 57 83 l 151 83 l 151 507 l 57 507 l 57 592 l 243 592 l 243 457 b 424 603 289 539 360 603 "},"s":{"ha":607,"x_min":0,"x_max":0,"o":"m 522 474 b 464 410 522 436 497 410 b 400 471 428 410 400 435 b 407 504 400 481 401 493 b 303 525 386 518 347 525 b 174 439 221 525 174 482 b 325 344 174 388 228 369 b 544 167 444 315 544 282 b 308 -11 544 54 435 -11 b 94 57 222 -11 135 17 b 63 131 74 78 63 101 b 122 196 63 165 88 196 b 186 135 160 196 186 171 b 176 99 186 122 182 111 b 308 65 196 83 244 65 b 453 157 389 65 453 100 b 313 253 453 211 397 232 b 81 432 169 289 81 322 b 306 603 81 521 164 603 b 492 542 385 603 456 578 b 522 474 513 521 522 499 "},"t":{"ha":463,"x_min":0,"x_max":0,"o":"m 278 -11 b 147 58 215 -11 171 13 b 132 140 136 81 132 108 l 132 507 l 22 507 l 22 592 l 132 592 l 132 735 l 226 772 l 226 592 l 408 592 l 408 507 l 226 507 l 226 154 b 236 108 226 135 229 121 b 306 78 247 88 269 78 b 417 114 340 78 383 94 l 404 22 b 278 -11 374 6 332 -11 "},"u":{"ha":768,"x_min":0,"x_max":0,"o":"m 317 -11 b 158 68 239 -11 188 18 b 131 189 140 100 131 142 l 131 507 l 36 507 l 36 592 l 226 592 l 226 207 b 243 128 226 174 232 147 b 340 78 261 93 292 78 b 535 182 414 78 479 125 l 535 507 l 438 507 l 438 592 l 631 592 l 631 83 l 725 83 l 725 0 l 538 0 l 538 110 b 317 -11 482 44 401 -11 "},"v":{"ha":725,"x_min":0,"x_max":0,"o":"m 88 507 l 10 507 l 10 592 l 285 592 l 285 510 l 190 510 l 365 119 l 539 510 l 442 510 l 442 592 l 715 592 l 715 507 l 638 507 l 389 -19 l 336 -19 "},"w":{"ha":967,"x_min":0,"x_max":0,"o":"m 97 507 l 10 507 l 10 592 l 283 592 l 283 510 l 189 510 l 296 136 l 461 525 l 513 525 l 676 136 l 783 510 l 683 510 l 683 592 l 957 592 l 957 507 l 868 507 l 707 -25 l 654 -25 l 483 378 l 311 -25 l 260 -25 "},"x":{"ha":699,"x_min":0,"x_max":0,"o":"m 28 83 l 108 83 l 297 300 l 119 507 l 38 507 l 38 592 l 296 592 l 296 513 l 221 513 l 350 347 l 481 513 l 403 513 l 403 592 l 660 592 l 660 507 l 578 507 l 401 303 l 592 83 l 671 83 l 671 0 l 407 0 l 407 78 l 489 78 l 347 257 l 204 78 l 290 78 l 290 0 l 28 0 "},"y":{"ha":713,"x_min":0,"x_max":0,"o":"m 294 -178 b 142 -278 250 -242 201 -278 b 39 -200 86 -278 39 -246 b 99 -139 39 -161 65 -139 b 161 -190 132 -139 153 -164 b 232 -124 183 -182 206 -164 b 276 -40 246 -103 260 -74 l 313 33 l 90 507 l 8 507 l 8 592 l 285 592 l 285 510 l 192 510 b 358 129 192 510 360 129 l 528 510 l 431 510 l 431 592 l 703 592 l 703 507 l 622 507 l 343 -93 b 294 -178 328 -125 313 -153 "},"z":{"ha":625,"x_min":0,"x_max":0,"o":"m 51 43 l 431 513 l 160 513 l 160 397 l 75 397 l 75 592 l 569 592 l 569 549 l 190 79 l 490 79 l 490 194 l 575 194 l 575 0 l 51 0 "},"Á":{"ha":981,"x_min":0,"x_max":0,"o":"m 25 92 l 113 92 l 386 824 l 282 824 l 282 914 l 699 914 l 699 824 l 594 824 l 868 92 l 956 92 l 956 0 l 650 0 l 650 90 l 757 90 l 675 315 l 301 315 l 219 90 l 331 90 l 331 0 l 25 0 m 644 403 l 489 829 l 332 403 m 422 1029 l 590 1204 b 650 1236 608 1224 629 1236 b 706 1176 679 1236 706 1214 b 658 1115 706 1157 688 1133 l 449 996 "},"á":{"ha":683,"x_min":0,"x_max":0,"o":"m 258 -11 b 63 158 144 -11 63 57 b 290 338 63 267 158 338 b 461 310 354 338 431 321 l 461 392 b 435 475 461 425 451 454 b 306 522 408 504 365 522 b 214 497 258 522 233 510 b 222 463 218 488 222 475 b 160 401 222 428 197 401 b 99 465 124 401 99 429 b 318 603 99 533 176 603 b 508 533 406 603 469 576 b 553 406 539 500 553 456 l 553 83 l 649 83 l 649 0 l 464 0 l 464 75 b 258 -11 415 28 339 -11 m 283 67 b 461 149 354 67 415 103 l 461 247 b 301 271 417 260 358 271 b 160 165 207 271 160 226 b 283 67 160 108 203 67 m 267 732 l 435 907 b 494 939 453 926 474 939 b 550 879 524 939 550 917 b 503 818 550 860 532 836 l 293 699 "},"Ă":{"ha":981,"x_min":0,"x_max":0,"o":"m 25 92 l 113 92 l 386 824 l 282 824 l 282 914 l 699 914 l 699 824 l 594 824 l 868 92 l 956 92 l 956 0 l 650 0 l 650 90 l 757 90 l 675 315 l 301 315 l 219 90 l 331 90 l 331 0 l 25 0 m 644 403 l 489 829 l 332 403 m 488 1003 b 267 1192 386 1003 303 1075 l 335 1221 b 488 1099 365 1142 426 1099 b 640 1221 554 1099 611 1147 l 708 1192 b 488 1003 674 1075 589 1003 "},"ă":{"ha":683,"x_min":0,"x_max":0,"o":"m 258 -11 b 63 158 144 -11 63 57 b 290 338 63 267 158 338 b 461 310 354 338 431 321 l 461 392 b 435 475 461 425 451 454 b 306 522 408 504 365 522 b 214 497 258 522 233 510 b 222 463 218 488 222 475 b 160 401 222 428 197 401 b 99 465 124 401 99 429 b 318 603 99 533 176 603 b 508 533 406 603 469 576 b 553 406 539 500 553 456 l 553 83 l 649 83 l 649 0 l 464 0 l 464 75 b 258 -11 415 28 339 -11 m 283 67 b 461 149 354 67 415 103 l 461 247 b 301 271 417 260 358 271 b 160 165 207 271 160 226 b 283 67 160 108 203 67 m 332 706 b 111 894 231 706 147 778 l 179 924 b 332 801 210 844 271 801 b 485 924 399 801 456 850 l 553 894 b 332 706 518 778 433 706 "},"Â":{"ha":981,"x_min":0,"x_max":0,"o":"m 25 92 l 113 92 l 386 824 l 282 824 l 282 914 l 699 914 l 699 824 l 594 824 l 868 92 l 956 92 l 956 0 l 650 0 l 650 90 l 757 90 l 675 315 l 301 315 l 219 90 l 331 90 l 331 0 l 25 0 m 644 403 l 489 829 l 332 403 m 275 1043 l 489 1247 l 703 1043 l 660 992 l 489 1121 l 318 992 "},"â":{"ha":683,"x_min":0,"x_max":0,"o":"m 258 -11 b 63 158 144 -11 63 57 b 290 338 63 267 158 338 b 461 310 354 338 431 321 l 461 392 b 435 475 461 425 451 454 b 306 522 408 504 365 522 b 214 497 258 522 233 510 b 222 463 218 488 222 475 b 160 401 222 428 197 401 b 99 465 124 401 99 429 b 318 603 99 533 176 603 b 508 533 406 603 469 576 b 553 406 539 500 553 456 l 553 83 l 649 83 l 649 0 l 464 0 l 464 75 b 258 -11 415 28 339 -11 m 283 67 b 461 149 354 67 415 103 l 461 247 b 301 271 417 260 358 271 b 160 165 207 271 160 226 b 283 67 160 108 203 67 m 119 746 l 333 950 l 547 746 l 504 694 l 333 824 l 163 694 "},"Ä":{"ha":981,"x_min":0,"x_max":0,"o":"m 25 92 l 113 92 l 386 824 l 282 824 l 282 914 l 699 914 l 699 824 l 594 824 l 868 92 l 956 92 l 956 0 l 650 0 l 650 90 l 757 90 l 675 315 l 301 315 l 219 90 l 331 90 l 331 0 l 25 0 m 644 403 l 489 829 l 332 403 m 610 1018 b 531 1097 565 1018 531 1054 b 610 1178 531 1142 567 1178 b 688 1097 654 1178 688 1142 b 610 1018 688 1054 653 1018 m 367 1018 b 289 1097 324 1018 289 1054 b 368 1178 289 1142 325 1178 b 446 1097 411 1178 446 1142 b 367 1018 446 1054 411 1018 "},"ä":{"ha":683,"x_min":0,"x_max":0,"o":"m 258 -11 b 63 158 144 -11 63 57 b 290 338 63 267 158 338 b 461 310 354 338 431 321 l 461 392 b 435 475 461 425 451 454 b 306 522 408 504 365 522 b 214 497 258 522 233 510 b 222 463 218 488 222 475 b 160 401 222 428 197 401 b 99 465 124 401 99 429 b 318 603 99 533 176 603 b 508 533 406 603 469 576 b 553 406 539 500 553 456 l 553 83 l 649 83 l 649 0 l 464 0 l 464 75 b 258 -11 415 28 339 -11 m 283 67 b 461 149 354 67 415 103 l 461 247 b 301 271 417 260 358 271 b 160 165 207 271 160 226 b 283 67 160 108 203 67 m 454 721 b 375 800 410 721 375 757 b 454 881 375 844 411 881 b 532 800 499 881 532 844 b 454 721 532 757 497 721 m 211 721 b 133 800 168 721 133 757 b 213 881 133 844 169 881 b 290 800 256 881 290 844 b 211 721 290 757 256 721 "},"Æ":{"ha":1232,"x_min":0,"x_max":0,"o":"m -7 92 l 103 92 l 465 822 l 364 822 l 364 914 l 1144 914 l 1144 690 l 1046 690 l 1046 824 l 701 824 l 701 510 l 1000 510 l 1000 421 l 701 421 l 701 90 l 1046 90 l 1046 224 l 1146 224 l 1146 0 l 490 0 l 490 92 l 597 92 l 597 315 l 315 315 l 204 90 l 303 90 l 303 0 l -7 0 m 597 403 l 597 824 l 564 824 l 357 403 "},"æ":{"ha":1058,"x_min":0,"x_max":0,"o":"m 306 521 b 214 497 258 521 233 510 b 222 463 218 488 222 475 b 160 401 222 428 197 401 b 99 465 124 401 99 429 b 318 603 99 533 176 603 b 493 532 399 603 457 576 b 518 488 503 518 513 503 b 738 603 565 557 640 603 b 1004 324 910 603 1004 471 b 1000 268 1004 301 1003 283 l 544 268 b 772 74 558 135 642 74 b 979 139 850 74 910 99 l 971 46 b 763 -11 910 8 833 -11 b 513 106 649 -11 564 32 b 263 -11 435 25 339 -11 b 63 158 144 -11 63 57 b 290 338 63 267 158 338 b 461 310 354 338 431 321 l 461 386 b 433 471 461 421 450 451 b 306 521 407 503 363 521 m 285 67 b 485 156 350 67 414 92 b 461 247 472 183 465 214 b 301 271 404 263 351 271 b 160 165 207 271 160 226 b 285 67 160 108 203 67 m 728 521 b 546 344 639 521 560 457 l 908 344 b 728 521 901 449 840 521 "},"Ǽ":{"ha":1232,"x_min":0,"x_max":0,"o":"m 615 1029 l 783 1204 b 843 1236 801 1224 822 1236 b 899 1176 872 1236 899 1214 b 851 1115 899 1157 881 1133 l 642 996 m -7 92 l 103 92 l 465 822 l 364 822 l 364 914 l 1144 914 l 1144 690 l 1046 690 l 1046 824 l 701 824 l 701 510 l 1000 510 l 1000 421 l 701 421 l 701 90 l 1046 90 l 1046 224 l 1146 224 l 1146 0 l 490 0 l 490 92 l 597 92 l 597 315 l 315 315 l 204 90 l 303 90 l 303 0 l -7 0 m 597 403 l 597 824 l 564 824 l 357 403 "},"ǽ":{"ha":1058,"x_min":0,"x_max":0,"o":"m 306 521 b 214 497 258 521 233 510 b 222 463 218 488 222 475 b 160 401 222 428 197 401 b 99 465 124 401 99 429 b 318 603 99 533 176 603 b 493 532 399 603 457 576 b 518 488 503 518 513 503 b 738 603 565 557 640 603 b 1004 324 910 603 1004 471 b 1000 268 1004 301 1003 283 l 544 268 b 772 74 558 135 642 74 b 979 139 850 74 910 99 l 971 46 b 763 -11 910 8 833 -11 b 513 106 649 -11 564 32 b 263 -11 435 25 339 -11 b 63 158 144 -11 63 57 b 290 338 63 267 158 338 b 461 310 354 338 431 321 l 461 386 b 433 471 461 421 450 451 b 306 521 407 503 363 521 m 285 67 b 485 156 350 67 414 92 b 461 247 472 183 465 214 b 301 271 404 263 351 271 b 160 165 207 271 160 226 b 285 67 160 108 203 67 m 728 521 b 546 344 639 521 560 457 l 908 344 b 728 521 901 449 840 521 m 465 732 l 633 907 b 693 939 651 926 672 939 b 749 879 722 939 749 917 b 701 818 749 860 731 836 l 492 699 "},"À":{"ha":981,"x_min":0,"x_max":0,"o":"m 25 92 l 113 92 l 386 824 l 282 824 l 282 914 l 699 914 l 699 824 l 594 824 l 868 92 l 956 92 l 956 0 l 650 0 l 650 90 l 757 90 l 675 315 l 301 315 l 219 90 l 331 90 l 331 0 l 25 0 m 644 403 l 489 829 l 332 403 m 319 1115 b 272 1176 290 1133 272 1157 b 328 1236 272 1214 299 1236 b 388 1204 349 1236 368 1224 l 554 1029 l 529 996 "},"à":{"ha":683,"x_min":0,"x_max":0,"o":"m 258 -11 b 63 158 144 -11 63 57 b 290 338 63 267 158 338 b 461 310 354 338 431 321 l 461 392 b 435 475 461 425 451 454 b 306 522 408 504 365 522 b 214 497 258 522 233 510 b 222 463 218 488 222 475 b 160 401 222 428 197 401 b 99 465 124 401 99 429 b 318 603 99 533 176 603 b 508 533 406 603 469 576 b 553 406 539 500 553 456 l 553 83 l 649 83 l 649 0 l 464 0 l 464 75 b 258 -11 415 28 339 -11 m 283 67 b 461 149 354 67 415 103 l 461 247 b 301 271 417 260 358 271 b 160 165 207 271 160 226 b 283 67 160 108 203 67 m 164 818 b 117 879 135 836 117 860 b 172 939 117 917 143 939 b 232 907 193 939 213 926 l 399 732 l 374 699 "},"Ā":{"ha":981,"x_min":0,"x_max":0,"o":"m 25 92 l 113 92 l 386 824 l 282 824 l 282 914 l 699 914 l 699 824 l 594 824 l 868 92 l 956 92 l 956 0 l 650 0 l 650 90 l 757 90 l 675 315 l 301 315 l 219 90 l 331 90 l 331 0 l 25 0 m 644 403 l 489 829 l 332 403 m 278 1128 l 700 1128 l 700 1040 l 278 1040 "},"ā":{"ha":683,"x_min":0,"x_max":0,"o":"m 258 -11 b 63 158 144 -11 63 57 b 290 338 63 267 158 338 b 461 310 354 338 431 321 l 461 392 b 435 475 461 425 451 454 b 306 522 408 504 365 522 b 214 497 258 522 233 510 b 222 463 218 488 222 475 b 160 401 222 428 197 401 b 99 465 124 401 99 429 b 318 603 99 533 176 603 b 508 533 406 603 469 576 b 553 406 539 500 553 456 l 553 83 l 649 83 l 649 0 l 464 0 l 464 75 b 258 -11 415 28 339 -11 m 283 67 b 461 149 354 67 415 103 l 461 247 b 301 271 417 260 358 271 b 160 165 207 271 160 226 b 283 67 160 108 203 67 m 122 831 l 544 831 l 544 743 l 122 743 "},"Ą":{"ha":981,"x_min":0,"x_max":0,"o":"m 811 -279 b 664 -150 714 -279 664 -226 b 753 0 664 -87 700 -37 l 650 0 l 650 90 l 757 90 l 675 315 l 301 315 l 219 90 l 331 90 l 331 0 l 25 0 l 25 92 l 113 92 l 386 824 l 282 824 l 282 914 l 699 914 l 699 824 l 594 824 l 868 92 l 956 92 l 956 0 l 851 0 b 751 -128 792 -32 751 -76 b 828 -200 751 -172 776 -200 b 936 -174 869 -200 906 -189 l 931 -247 b 811 -279 910 -262 863 -279 m 644 403 l 489 829 l 332 403 "},"ą":{"ha":683,"x_min":0,"x_max":0,"o":"m 518 -279 b 371 -150 421 -279 371 -226 b 464 3 371 -86 410 -35 l 464 75 b 258 -11 415 28 339 -11 b 63 158 144 -11 63 57 b 290 338 63 267 158 338 b 461 310 354 338 431 321 l 461 392 b 435 475 461 425 451 454 b 306 522 408 504 365 522 b 214 497 258 522 233 510 b 222 463 218 488 222 475 b 160 401 222 428 197 401 b 99 465 124 401 99 429 b 318 603 99 533 176 603 b 508 533 406 603 469 576 b 553 406 539 500 553 456 l 553 83 l 649 83 l 649 0 l 558 0 b 458 -128 499 -32 458 -76 b 535 -200 458 -172 483 -200 b 643 -174 576 -200 613 -189 l 638 -247 b 518 -279 617 -262 569 -279 m 283 67 b 461 149 354 67 415 103 l 461 247 b 301 271 417 260 358 271 b 160 165 207 271 160 226 b 283 67 160 108 203 67 "},"Å":{"ha":981,"x_min":0,"x_max":0,"o":"m 642 1018 b 594 914 642 979 625 942 l 699 914 l 699 824 l 594 824 l 868 92 l 956 92 l 956 0 l 650 0 l 650 90 l 757 90 l 675 315 l 301 315 l 219 90 l 331 90 l 331 0 l 25 0 l 25 92 l 113 92 l 386 824 l 282 824 l 282 914 l 383 914 b 336 1018 354 942 336 979 b 489 1164 336 1097 404 1164 b 642 1018 574 1164 642 1097 m 644 403 l 489 829 l 332 403 m 489 926 b 567 1010 535 926 567 964 b 489 1094 567 1057 535 1094 b 413 1010 444 1094 413 1057 b 489 926 413 964 444 926 "},"å":{"ha":683,"x_min":0,"x_max":0,"o":"m 258 -11 b 63 158 144 -11 63 57 b 290 338 63 267 158 338 b 461 310 354 338 431 321 l 461 392 b 435 475 461 425 451 454 b 306 522 408 504 365 522 b 214 497 258 522 233 510 b 222 463 218 488 222 475 b 160 401 222 428 197 401 b 99 465 124 401 99 429 b 318 603 99 533 176 603 b 508 533 406 603 469 576 b 553 406 539 500 553 456 l 553 83 l 649 83 l 649 0 l 464 0 l 464 75 b 258 -11 415 28 339 -11 m 283 67 b 461 149 354 67 415 103 l 461 247 b 301 271 417 260 358 271 b 160 165 207 271 160 226 b 283 67 160 108 203 67 m 332 686 b 181 840 247 686 181 754 b 332 994 181 926 247 994 b 485 840 418 994 485 926 b 332 686 485 754 418 686 m 332 757 b 410 840 378 757 410 794 b 332 924 410 886 378 924 b 256 840 288 924 256 886 b 332 757 256 794 288 757 "},"Ǻ":{"ha":981,"x_min":0,"x_max":0,"o":"m 425 1254 l 593 1429 b 653 1461 611 1449 632 1461 b 708 1401 682 1461 708 1439 b 661 1340 708 1382 690 1358 l 451 1221 m 642 1018 b 594 914 642 979 625 942 l 699 914 l 699 824 l 594 824 l 868 92 l 956 92 l 956 0 l 650 0 l 650 90 l 757 90 l 675 315 l 301 315 l 219 90 l 331 90 l 331 0 l 25 0 l 25 92 l 113 92 l 386 824 l 282 824 l 282 914 l 383 914 b 336 1018 354 942 336 979 b 489 1164 336 1097 404 1164 b 642 1018 574 1164 642 1097 m 644 403 l 489 829 l 332 403 m 489 926 b 567 1010 535 926 567 964 b 489 1094 567 1057 535 1094 b 413 1010 444 1094 413 1057 b 489 926 413 964 444 926 "},"ǻ":{"ha":683,"x_min":0,"x_max":0,"o":"m 258 -11 b 63 158 144 -11 63 57 b 290 338 63 267 158 338 b 461 310 354 338 431 321 l 461 392 b 435 475 461 425 451 454 b 306 522 408 504 365 522 b 214 497 258 522 233 510 b 222 463 218 488 222 475 b 160 401 222 428 197 401 b 99 465 124 401 99 429 b 318 603 99 533 176 603 b 508 533 406 603 469 576 b 553 406 539 500 553 456 l 553 83 l 649 83 l 649 0 l 464 0 l 464 75 b 258 -11 415 28 339 -11 m 283 67 b 461 149 354 67 415 103 l 461 247 b 301 271 417 260 358 271 b 160 165 207 271 160 226 b 283 67 160 108 203 67 m 278 1094 l 446 1269 b 506 1301 464 1289 485 1301 b 561 1242 535 1301 561 1279 b 514 1181 561 1222 543 1199 l 304 1061 m 342 686 b 190 840 257 686 190 754 b 342 994 190 926 257 994 b 494 840 428 994 494 926 b 342 686 494 754 428 686 m 342 757 b 419 840 388 757 419 794 b 342 924 419 886 388 924 b 265 840 297 924 265 886 b 342 757 265 794 297 757 "},"Ã":{"ha":981,"x_min":0,"x_max":0,"o":"m 25 92 l 113 92 l 386 824 l 282 824 l 282 914 l 699 914 l 699 824 l 594 824 l 868 92 l 956 92 l 956 0 l 650 0 l 650 90 l 757 90 l 675 315 l 301 315 l 219 90 l 331 90 l 331 0 l 25 0 m 644 403 l 489 829 l 332 403 m 592 1004 b 469 1057 538 1004 501 1029 b 399 1096 436 1085 418 1096 b 335 1013 365 1096 343 1064 l 260 1029 b 392 1193 267 1125 328 1193 b 515 1139 446 1193 482 1167 b 586 1101 547 1113 565 1101 b 650 1185 618 1101 640 1132 l 725 1168 b 592 1004 718 1072 657 1004 "},"ã":{"ha":683,"x_min":0,"x_max":0,"o":"m 258 -11 b 63 158 144 -11 63 57 b 290 338 63 267 158 338 b 461 310 354 338 431 321 l 461 392 b 435 475 461 425 451 454 b 306 522 408 504 365 522 b 214 497 258 522 233 510 b 222 463 218 488 222 475 b 160 401 222 428 197 401 b 99 465 124 401 99 429 b 318 603 99 533 176 603 b 508 533 406 603 469 576 b 553 406 539 500 553 456 l 553 83 l 649 83 l 649 0 l 464 0 l 464 75 b 258 -11 415 28 339 -11 m 283 67 b 461 149 354 67 415 103 l 461 247 b 301 271 417 260 358 271 b 160 165 207 271 160 226 b 283 67 160 108 203 67 m 436 707 b 314 760 382 707 346 732 b 243 799 281 788 263 799 b 179 715 210 799 188 767 l 104 732 b 236 896 111 828 172 896 b 360 842 290 896 326 869 b 431 804 392 815 410 804 b 494 888 463 804 485 835 l 569 871 b 436 707 563 775 501 707 "},"Ć":{"ha":975,"x_min":0,"x_max":0,"o":"m 475 1029 l 643 1204 b 703 1236 661 1224 682 1236 b 758 1176 732 1236 758 1214 b 711 1115 758 1157 740 1133 l 501 996 m 546 -17 b 78 453 264 -17 78 201 b 542 931 78 735 294 931 b 883 706 733 931 883 815 b 803 615 883 654 849 615 b 726 689 760 615 726 647 b 761 744 726 715 743 738 b 540 836 736 785 657 836 b 183 454 332 836 183 660 b 546 78 183 258 331 78 b 829 196 656 78 747 119 l 890 122 b 546 -17 799 31 672 -17 "},"ć":{"ha":657,"x_min":0,"x_max":0,"o":"m 282 732 l 450 907 b 510 939 468 926 489 939 b 565 879 539 939 565 917 b 518 818 565 860 547 836 l 308 699 m 372 -11 b 58 294 193 -11 58 119 b 354 603 58 458 189 603 b 596 425 489 603 596 514 b 521 344 596 381 564 344 b 457 410 489 344 457 368 b 486 458 457 429 468 447 b 353 521 471 494 413 521 b 157 293 265 521 157 444 b 383 74 157 164 249 74 b 581 139 450 74 511 94 l 572 46 b 372 -11 513 6 436 -11 "},"Č":{"ha":975,"x_min":0,"x_max":0,"o":"m 756 1197 l 542 993 l 328 1197 l 371 1249 l 542 1119 l 713 1249 m 546 -17 b 78 453 264 -17 78 201 b 542 931 78 735 294 931 b 883 706 733 931 883 815 b 803 615 883 654 849 615 b 726 689 760 615 726 647 b 761 744 726 715 743 738 b 540 836 736 785 657 836 b 183 454 332 836 183 660 b 546 78 183 258 331 78 b 829 196 656 78 747 119 l 890 122 b 546 -17 799 31 672 -17 "},"č":{"ha":657,"x_min":0,"x_max":0,"o":"m 563 900 l 349 696 l 135 900 l 178 951 l 349 822 l 519 951 m 372 -11 b 58 294 193 -11 58 119 b 354 603 58 458 189 603 b 596 425 489 603 596 514 b 521 344 596 381 564 344 b 457 410 489 344 457 368 b 486 458 457 429 468 447 b 353 521 471 494 413 521 b 157 293 265 521 157 444 b 383 74 157 164 249 74 b 581 139 450 74 511 94 l 572 46 b 372 -11 513 6 436 -11 "},"Ç":{"ha":975,"x_min":0,"x_max":0,"o":"m 535 -276 b 379 -237 482 -276 425 -261 l 400 -193 b 522 -219 436 -208 488 -219 b 581 -179 557 -219 581 -204 b 507 -136 581 -154 558 -136 b 482 -139 500 -136 485 -139 l 456 -117 l 489 -14 b 78 453 239 13 78 218 b 542 931 78 735 294 931 b 883 706 733 931 883 815 b 803 615 883 654 849 615 b 726 689 760 615 726 647 b 761 744 726 715 743 738 b 540 836 736 785 657 836 b 183 454 332 836 183 660 b 546 78 183 258 331 78 b 829 196 656 78 747 119 l 890 122 b 546 -17 799 31 672 -17 l 542 -17 l 540 -67 b 671 -172 626 -71 671 -115 b 535 -276 671 -228 624 -276 "},"ç":{"ha":694,"x_min":0,"x_max":0,"o":"m 361 -276 b 206 -237 308 -276 251 -261 l 226 -193 b 349 -219 263 -208 314 -219 b 407 -179 383 -219 407 -204 b 333 -136 407 -154 385 -136 b 308 -139 326 -136 311 -139 l 282 -117 l 317 -6 b 58 294 167 17 58 138 b 354 603 58 458 189 603 b 596 425 489 603 596 514 b 521 344 596 381 564 344 b 457 410 489 344 457 368 b 486 458 457 429 468 447 b 353 521 471 494 413 521 b 157 293 265 521 157 444 b 383 74 157 164 249 74 b 581 139 450 74 511 94 l 572 46 b 372 -11 513 6 436 -11 l 369 -11 l 367 -67 b 497 -172 453 -71 497 -115 b 361 -276 497 -228 450 -276 "},"Ċ":{"ha":975,"x_min":0,"x_max":0,"o":"m 546 -17 b 78 453 264 -17 78 201 b 542 931 78 735 294 931 b 883 706 733 931 883 815 b 803 615 883 654 849 615 b 726 689 760 615 726 647 b 761 744 726 715 743 738 b 540 836 736 785 657 836 b 183 454 332 836 183 660 b 546 78 183 258 331 78 b 829 196 656 78 747 119 l 890 122 b 546 -17 799 31 672 -17 m 542 1011 b 463 1093 497 1011 463 1049 b 543 1175 463 1139 499 1175 b 622 1093 588 1175 622 1139 b 542 1011 622 1049 586 1011 "},"ċ":{"ha":657,"x_min":0,"x_max":0,"o":"m 372 -11 b 58 294 193 -11 58 119 b 354 603 58 458 189 603 b 596 425 489 603 596 514 b 521 344 596 381 564 344 b 457 410 489 344 457 368 b 486 458 457 429 468 447 b 353 521 471 494 413 521 b 157 293 265 521 157 444 b 383 74 157 164 249 74 b 581 139 450 74 511 94 l 572 46 b 372 -11 513 6 436 -11 m 349 714 b 269 796 304 714 269 751 b 350 878 269 842 306 878 b 429 796 394 878 429 842 b 349 714 429 751 393 714 "},"Ď":{"ha":1011,"x_min":0,"x_max":0,"o":"m 686 1197 l 472 993 l 258 1197 l 301 1249 l 472 1119 l 643 1249 m 65 92 l 182 92 l 182 822 l 65 822 l 65 914 l 408 914 b 933 467 726 914 933 738 b 404 0 933 190 740 0 l 65 0 m 417 92 b 828 468 690 92 828 244 b 406 822 828 688 664 822 l 286 822 l 286 92 "},"ď":{"ha":764,"x_min":0,"x_max":0,"o":"m 681 729 b 731 872 715 781 731 825 b 718 967 731 913 718 931 b 781 1031 718 1001 739 1031 b 840 961 819 1031 840 1004 b 713 704 840 872 782 776 m 342 -11 b 61 292 185 -11 61 111 b 354 603 61 460 176 603 b 538 532 428 603 492 575 l 538 933 l 426 933 l 426 1017 l 633 1017 l 633 83 l 729 83 l 729 0 l 540 0 l 540 83 b 342 -11 490 28 429 -11 m 356 72 b 538 161 432 72 490 111 l 538 451 b 360 519 493 489 438 519 b 161 293 243 519 161 424 b 356 72 160 161 243 72 "},"Đ":{"ha":1019,"x_min":0,"x_max":0,"o":"m 90 425 l 90 511 l 192 511 l 192 822 l 75 822 l 75 914 l 417 914 b 942 467 733 914 942 736 b 418 0 942 190 749 0 l 75 0 l 75 92 l 192 92 l 192 425 m 425 92 b 836 468 699 92 836 244 b 414 822 836 688 672 822 l 294 822 l 294 511 l 503 511 l 503 425 l 294 425 l 294 92 "},"đ":{"ha":764,"x_min":0,"x_max":0,"o":"m 324 803 l 538 803 l 538 933 l 426 933 l 426 1017 l 633 1017 l 633 803 l 729 803 l 729 724 l 633 724 l 633 83 l 729 83 l 729 0 l 540 0 l 540 83 b 342 -11 490 28 429 -11 b 61 292 185 -11 61 111 b 354 603 61 460 176 603 b 538 532 428 603 492 575 l 538 724 l 324 724 m 356 72 b 538 161 432 72 490 111 l 538 451 b 360 519 493 489 438 519 b 161 293 243 519 161 424 b 356 72 160 161 243 72 "},"É":{"ha":817,"x_min":0,"x_max":0,"o":"m 335 1029 l 503 1204 b 563 1236 521 1224 542 1236 b 618 1176 592 1236 618 1214 b 571 1115 618 1157 600 1133 l 361 996 m 65 92 l 182 92 l 182 822 l 65 822 l 65 914 l 729 914 l 729 690 l 631 690 l 631 824 l 286 824 l 286 510 l 585 510 l 585 421 l 286 421 l 286 90 l 631 90 l 631 224 l 731 224 l 731 0 l 65 0 "},"é":{"ha":674,"x_min":0,"x_max":0,"o":"m 157 268 b 385 74 171 138 257 74 b 593 139 464 74 524 99 l 585 46 b 372 -11 524 8 447 -11 b 57 294 183 -11 57 114 b 347 603 57 458 167 603 b 618 324 524 603 618 471 b 613 268 618 301 617 283 m 342 521 b 158 344 251 521 172 457 l 521 344 b 342 521 514 449 454 521 m 274 732 l 442 907 b 501 939 460 926 481 939 b 557 879 531 939 557 917 b 510 818 557 860 539 836 l 300 699 "},"Ĕ":{"ha":817,"x_min":0,"x_max":0,"o":"m 65 92 l 182 92 l 182 822 l 65 822 l 65 914 l 729 914 l 729 690 l 631 690 l 631 824 l 286 824 l 286 510 l 585 510 l 585 421 l 286 421 l 286 90 l 631 90 l 631 224 l 731 224 l 731 0 l 65 0 m 400 1003 b 179 1192 299 1003 215 1075 l 247 1221 b 400 1099 278 1142 339 1099 b 553 1221 467 1099 524 1147 l 621 1192 b 400 1003 586 1075 501 1003 "},"ĕ":{"ha":674,"x_min":0,"x_max":0,"o":"m 157 268 b 385 74 171 138 257 74 b 593 139 464 74 524 99 l 585 46 b 372 -11 524 8 447 -11 b 57 294 183 -11 57 114 b 347 603 57 458 167 603 b 618 324 524 603 618 471 b 613 268 618 301 617 283 m 342 521 b 158 344 251 521 172 457 l 521 344 b 342 521 514 449 454 521 m 339 706 b 118 894 238 706 154 778 l 186 924 b 339 801 217 844 278 801 b 492 924 406 801 463 850 l 560 894 b 339 706 525 778 440 706 "},"Ě":{"ha":817,"x_min":0,"x_max":0,"o":"m 614 1197 l 400 993 l 186 1197 l 229 1249 l 400 1119 l 571 1249 m 65 92 l 182 92 l 182 822 l 65 822 l 65 914 l 729 914 l 729 690 l 631 690 l 631 824 l 286 824 l 286 510 l 585 510 l 585 421 l 286 421 l 286 90 l 631 90 l 631 224 l 731 224 l 731 0 l 65 0 "},"ě":{"ha":674,"x_min":0,"x_max":0,"o":"m 157 268 b 385 74 171 138 257 74 b 593 139 464 74 524 99 l 585 46 b 372 -11 524 8 447 -11 b 57 294 183 -11 57 114 b 347 603 57 458 167 603 b 618 324 524 603 618 471 b 613 268 618 301 617 283 m 342 521 b 158 344 251 521 172 457 l 521 344 b 342 521 514 449 454 521 m 553 900 l 339 696 l 125 900 l 168 951 l 339 822 l 510 951 "},"Ê":{"ha":817,"x_min":0,"x_max":0,"o":"m 188 1043 l 401 1247 l 615 1043 l 572 992 l 401 1121 l 231 992 m 65 92 l 182 92 l 182 822 l 65 822 l 65 914 l 729 914 l 729 690 l 631 690 l 631 824 l 286 824 l 286 510 l 585 510 l 585 421 l 286 421 l 286 90 l 631 90 l 631 224 l 731 224 l 731 0 l 65 0 "},"ê":{"ha":674,"x_min":0,"x_max":0,"o":"m 157 268 b 385 74 171 138 257 74 b 593 139 464 74 524 99 l 585 46 b 372 -11 524 8 447 -11 b 57 294 183 -11 57 114 b 347 603 57 458 167 603 b 618 324 524 603 618 471 b 613 268 618 301 617 283 m 342 521 b 158 344 251 521 172 457 l 521 344 b 342 521 514 449 454 521 m 126 746 l 340 950 l 554 746 l 511 694 l 340 824 l 169 694 "},"Ë":{"ha":817,"x_min":0,"x_max":0,"o":"m 522 1018 b 443 1097 478 1018 443 1054 b 522 1178 443 1142 479 1178 b 600 1097 567 1178 600 1142 b 522 1018 600 1054 565 1018 m 279 1018 b 201 1097 236 1018 201 1054 b 281 1178 201 1142 238 1178 b 358 1097 324 1178 358 1142 b 279 1018 358 1054 324 1018 m 65 92 l 182 92 l 182 822 l 65 822 l 65 914 l 729 914 l 729 690 l 631 690 l 631 824 l 286 824 l 286 510 l 585 510 l 585 421 l 286 421 l 286 90 l 631 90 l 631 224 l 731 224 l 731 0 l 65 0 "},"ë":{"ha":674,"x_min":0,"x_max":0,"o":"m 157 268 b 385 74 171 138 257 74 b 593 139 464 74 524 99 l 585 46 b 372 -11 524 8 447 -11 b 57 294 183 -11 57 114 b 347 603 57 458 167 603 b 618 324 524 603 618 471 b 613 268 618 301 617 283 m 342 521 b 158 344 251 521 172 457 l 521 344 b 342 521 514 449 454 521 m 461 721 b 382 800 417 721 382 757 b 461 881 382 844 418 881 b 539 800 506 881 539 844 b 461 721 539 757 504 721 m 218 721 b 140 800 175 721 140 757 b 219 881 140 844 176 881 b 297 800 263 881 297 844 b 218 721 297 757 263 721 "},"Ė":{"ha":817,"x_min":0,"x_max":0,"o":"m 65 92 l 182 92 l 182 822 l 65 822 l 65 914 l 729 914 l 729 690 l 631 690 l 631 824 l 286 824 l 286 510 l 585 510 l 585 421 l 286 421 l 286 90 l 631 90 l 631 224 l 731 224 l 731 0 l 65 0 m 400 1011 b 321 1093 356 1011 321 1049 b 401 1175 321 1139 357 1175 b 481 1093 446 1175 481 1139 b 400 1011 481 1049 444 1011 "},"ė":{"ha":674,"x_min":0,"x_max":0,"o":"m 157 268 b 385 74 171 138 257 74 b 593 139 464 74 524 99 l 585 46 b 372 -11 524 8 447 -11 b 57 294 183 -11 57 114 b 347 603 57 458 167 603 b 618 324 524 603 618 471 b 613 268 618 301 617 283 m 342 521 b 158 344 251 521 172 457 l 521 344 b 342 521 514 449 454 521 m 339 714 b 260 796 294 714 260 751 b 340 878 260 842 296 878 b 419 796 385 878 419 842 b 339 714 419 751 383 714 "},"È":{"ha":817,"x_min":0,"x_max":0,"o":"m 65 92 l 182 92 l 182 822 l 65 822 l 65 914 l 729 914 l 729 690 l 631 690 l 631 824 l 286 824 l 286 510 l 585 510 l 585 421 l 286 421 l 286 90 l 631 90 l 631 224 l 731 224 l 731 0 l 65 0 m 232 1115 b 185 1176 203 1133 185 1157 b 240 1236 185 1214 211 1236 b 300 1204 261 1236 281 1224 l 467 1029 l 442 996 "},"è":{"ha":674,"x_min":0,"x_max":0,"o":"m 157 268 b 385 74 171 138 257 74 b 593 139 464 74 524 99 l 585 46 b 372 -11 524 8 447 -11 b 57 294 183 -11 57 114 b 347 603 57 458 167 603 b 618 324 524 603 618 471 b 613 268 618 301 617 283 m 342 521 b 158 344 251 521 172 457 l 521 344 b 342 521 514 449 454 521 m 171 818 b 124 879 142 836 124 860 b 179 939 124 917 150 939 b 239 907 200 939 219 926 l 406 732 l 381 699 "},"Ē":{"ha":817,"x_min":0,"x_max":0,"o":"m 65 92 l 182 92 l 182 822 l 65 822 l 65 914 l 729 914 l 729 690 l 631 690 l 631 824 l 286 824 l 286 510 l 585 510 l 585 421 l 286 421 l 286 90 l 631 90 l 631 224 l 731 224 l 731 0 l 65 0 m 190 1128 l 613 1128 l 613 1040 l 190 1040 "},"ē":{"ha":674,"x_min":0,"x_max":0,"o":"m 157 268 b 385 74 171 138 257 74 b 593 139 464 74 524 99 l 585 46 b 372 -11 524 8 447 -11 b 57 294 183 -11 57 114 b 347 603 57 458 167 603 b 618 324 524 603 618 471 b 613 268 618 301 617 283 m 342 521 b 158 344 251 521 172 457 l 521 344 b 342 521 514 449 454 521 m 129 831 l 551 831 l 551 743 l 129 743 "},"Ę":{"ha":817,"x_min":0,"x_max":0,"o":"m 65 92 l 182 92 l 182 822 l 65 822 l 65 914 l 729 914 l 729 690 l 631 690 l 631 824 l 286 824 l 286 510 l 585 510 l 585 421 l 286 421 l 286 90 l 631 90 l 631 224 l 731 224 l 731 0 l 644 0 b 544 -128 585 -32 544 -76 b 621 -200 544 -172 569 -200 b 729 -174 663 -200 699 -189 l 724 -247 b 604 -279 703 -262 656 -279 b 457 -150 507 -279 457 -226 b 546 0 457 -87 493 -37 l 65 0 "},"ę":{"ha":674,"x_min":0,"x_max":0,"o":"m 157 268 b 385 74 171 138 257 74 b 593 139 464 74 524 99 l 585 46 b 390 -129 494 0 390 -49 b 468 -200 390 -172 415 -200 b 575 -174 508 -200 544 -189 l 571 -247 b 450 -279 549 -262 501 -279 b 303 -150 353 -279 303 -226 b 375 -11 303 -92 331 -46 l 372 -11 b 57 294 183 -11 57 114 b 347 603 57 458 167 603 b 618 324 524 603 618 471 b 613 268 618 301 617 283 m 342 521 b 158 344 251 521 172 457 l 521 344 b 342 521 514 449 454 521 "},"Ð":{"ha":1019,"x_min":0,"x_max":0,"o":"m 90 425 l 90 511 l 192 511 l 192 822 l 75 822 l 75 914 l 417 914 b 942 467 733 914 942 736 b 418 0 942 190 749 0 l 75 0 l 75 92 l 192 92 l 192 425 m 425 92 b 836 468 699 92 836 244 b 414 822 836 688 672 822 l 294 822 l 294 511 l 503 511 l 503 425 l 294 425 l 294 92 "},"ð":{"ha":733,"x_min":0,"x_max":0,"o":"m 213 706 l 369 846 b 213 938 315 896 257 928 b 147 881 208 908 185 881 b 82 951 113 881 82 908 b 175 1026 82 993 121 1026 b 288 999 208 1026 247 1018 b 435 899 335 978 386 943 l 571 1018 l 624 957 l 490 839 b 672 346 593 721 672 550 b 574 65 672 222 636 126 b 367 -11 521 15 450 -11 b 61 281 185 -11 61 119 b 365 574 61 443 185 574 b 578 467 449 574 532 531 b 426 788 563 590 500 703 l 265 643 m 578 290 b 367 490 578 401 490 490 b 157 281 243 490 157 401 b 367 72 157 160 243 72 b 513 131 428 72 476 94 b 578 290 554 172 578 232 "},"Ğ":{"ha":1024,"x_min":0,"x_max":0,"o":"m 522 -17 b 78 450 292 -17 78 158 b 551 931 78 739 299 931 b 894 719 757 931 894 817 b 817 633 894 668 861 633 b 742 707 774 633 742 665 b 765 760 742 731 751 749 b 549 836 731 797 651 836 b 183 450 332 836 183 667 b 533 75 183 225 344 75 b 804 163 638 75 725 107 l 804 357 l 551 357 l 551 444 l 906 444 l 906 0 l 807 0 l 807 79 b 522 -17 728 19 638 -17 m 529 1003 b 308 1192 428 1003 344 1075 l 376 1221 b 529 1099 407 1142 468 1099 b 682 1221 596 1099 653 1147 l 750 1192 b 529 1003 715 1075 631 1003 "},"ğ":{"ha":772,"x_min":0,"x_max":0,"o":"m 635 -19 b 581 -192 635 -93 615 -150 b 356 -278 531 -253 447 -278 b 154 -214 263 -278 190 -249 b 124 -146 133 -193 124 -169 b 193 -74 124 -106 153 -74 b 251 -133 228 -74 251 -100 b 239 -172 251 -147 247 -161 b 356 -196 257 -183 296 -196 b 504 -137 414 -196 469 -181 b 539 -24 526 -110 539 -74 l 539 92 b 342 4 490 42 432 4 b 61 299 188 4 61 126 b 354 603 61 458 178 603 b 543 526 433 603 496 571 l 543 592 l 731 592 l 731 507 l 635 507 m 363 518 b 161 300 242 518 161 424 b 357 88 161 175 243 88 b 539 174 432 88 492 124 l 539 451 b 363 518 496 489 439 518 m 393 706 b 172 894 292 706 208 778 l 240 924 b 393 801 271 844 332 801 b 546 924 460 801 517 850 l 614 894 b 393 706 579 778 494 706 "},"Ģ":{"ha":1024,"x_min":0,"x_max":0,"o":"m 414 -354 b 519 -211 492 -296 518 -242 b 460 -142 486 -204 460 -176 b 528 -74 460 -103 492 -74 b 606 -164 571 -74 606 -104 b 436 -386 606 -228 561 -318 m 522 -17 b 78 450 292 -17 78 158 b 551 931 78 739 299 931 b 894 719 757 931 894 817 b 817 633 894 668 861 633 b 742 707 774 633 742 665 b 765 760 742 731 751 749 b 549 836 731 797 651 836 b 183 450 332 836 183 667 b 533 75 183 225 344 75 b 804 163 638 75 725 107 l 804 357 l 551 357 l 551 444 l 906 444 l 906 0 l 807 0 l 807 79 b 522 -17 728 19 638 -17 "},"ģ":{"ha":772,"x_min":0,"x_max":0,"o":"m 521 1001 b 415 858 443 943 417 889 b 475 789 449 851 475 824 b 407 721 475 750 443 721 b 329 811 364 721 329 751 b 499 1033 329 875 374 965 m 635 -19 b 581 -192 635 -93 615 -150 b 356 -278 531 -253 447 -278 b 154 -214 263 -278 190 -249 b 124 -146 133 -193 124 -169 b 193 -74 124 -106 153 -74 b 251 -133 228 -74 251 -100 b 239 -172 251 -147 247 -161 b 356 -196 257 -183 296 -196 b 504 -137 414 -196 469 -181 b 539 -24 526 -110 539 -74 l 539 92 b 342 4 490 42 432 4 b 61 299 188 4 61 126 b 354 603 61 458 178 603 b 543 526 433 603 496 571 l 543 592 l 731 592 l 731 507 l 635 507 m 363 518 b 161 300 242 518 161 424 b 357 88 161 175 243 88 b 539 174 432 88 492 124 l 539 451 b 363 518 496 489 439 518 "},"Ġ":{"ha":1024,"x_min":0,"x_max":0,"o":"m 522 -17 b 78 450 292 -17 78 158 b 551 931 78 739 299 931 b 894 719 757 931 894 817 b 817 633 894 668 861 633 b 742 707 774 633 742 665 b 765 760 742 731 751 749 b 549 836 731 797 651 836 b 183 450 332 836 183 667 b 533 75 183 225 344 75 b 804 163 638 75 725 107 l 804 357 l 551 357 l 551 444 l 906 444 l 906 0 l 807 0 l 807 79 b 522 -17 728 19 638 -17 m 529 1011 b 450 1093 485 1011 450 1049 b 531 1175 450 1139 486 1175 b 610 1093 575 1175 610 1139 b 529 1011 610 1049 574 1011 "},"ġ":{"ha":772,"x_min":0,"x_max":0,"o":"m 635 -19 b 581 -192 635 -93 615 -150 b 356 -278 531 -253 447 -278 b 154 -214 263 -278 190 -249 b 124 -146 133 -193 124 -169 b 193 -74 124 -106 153 -74 b 251 -133 228 -74 251 -100 b 239 -172 251 -147 247 -161 b 356 -196 257 -183 296 -196 b 504 -137 414 -196 469 -181 b 539 -24 526 -110 539 -74 l 539 92 b 342 4 490 42 432 4 b 61 299 188 4 61 126 b 354 603 61 458 178 603 b 543 526 433 603 496 571 l 543 592 l 731 592 l 731 507 l 635 507 m 363 518 b 161 300 242 518 161 424 b 357 88 161 175 243 88 b 539 174 432 88 492 124 l 539 451 b 363 518 496 489 439 518 m 390 714 b 311 796 346 714 311 751 b 392 878 311 842 347 878 b 471 796 436 878 471 842 b 390 714 471 751 435 714 "},"Ħ":{"ha":1078,"x_min":0,"x_max":0,"o":"m 93 711 l 182 711 l 182 826 l 65 826 l 65 914 l 406 914 l 406 826 l 286 826 l 286 711 l 792 711 l 792 826 l 672 826 l 672 914 l 1013 914 l 1013 826 l 896 826 l 896 711 l 985 711 l 985 629 l 896 629 l 896 92 l 1013 92 l 1013 0 l 672 0 l 672 92 l 792 92 l 792 414 l 286 414 l 286 92 l 406 92 l 406 0 l 65 0 l 65 92 l 182 92 l 182 629 l 93 629 m 792 504 l 792 629 l 286 629 l 286 504 "},"ħ":{"ha":772,"x_min":0,"x_max":0,"o":"m 43 933 l 43 1017 l 233 1017 l 233 803 l 449 803 l 449 724 l 233 724 l 233 485 b 453 603 290 550 368 603 b 603 539 522 603 572 579 b 642 403 629 504 642 457 l 642 83 l 738 83 l 738 0 l 453 0 l 453 83 l 546 83 l 546 383 b 519 476 546 426 538 456 b 428 514 500 501 468 514 b 233 410 354 514 286 468 l 233 83 l 326 83 l 326 0 l 43 0 l 43 83 l 138 83 l 138 724 l 43 724 l 43 803 l 138 803 l 138 933 "},"Í":{"ha":483,"x_min":0,"x_max":0,"o":"m 67 92 l 190 92 l 190 822 l 67 822 l 67 914 l 417 914 l 417 822 l 293 822 l 293 92 l 417 92 l 417 0 l 67 0 m 175 1029 l 343 1204 b 403 1236 361 1224 382 1236 b 458 1176 432 1236 458 1214 b 411 1115 458 1157 440 1133 l 201 996 "},"í":{"ha":403,"x_min":0,"x_max":0,"o":"m 133 732 l 301 907 b 361 939 319 926 340 939 b 417 879 390 939 417 917 b 369 818 417 860 399 836 l 160 699 m 60 83 l 160 83 l 160 507 l 60 507 l 60 592 l 256 592 l 256 83 l 356 83 l 356 0 l 60 0 "},"Ĭ":{"ha":483,"x_min":0,"x_max":0,"o":"m 67 92 l 190 92 l 190 822 l 67 822 l 67 914 l 417 914 l 417 822 l 293 822 l 293 92 l 417 92 l 417 0 l 67 0 m 240 1003 b 19 1192 139 1003 56 1075 l 88 1221 b 240 1099 118 1142 179 1099 b 393 1221 307 1099 364 1147 l 461 1192 b 240 1003 426 1075 342 1003 "},"ĭ":{"ha":403,"x_min":0,"x_max":0,"o":"m 60 83 l 160 83 l 160 507 l 60 507 l 60 592 l 256 592 l 256 83 l 356 83 l 356 0 l 60 0 m 199 706 b -22 894 97 706 14 778 l 46 924 b 199 801 76 844 138 801 b 351 924 265 801 322 850 l 419 894 b 199 706 385 778 300 706 "},"Î":{"ha":483,"x_min":0,"x_max":0,"o":"m 67 92 l 190 92 l 190 822 l 67 822 l 67 914 l 417 914 l 417 822 l 293 822 l 293 92 l 417 92 l 417 0 l 67 0 m 28 1043 l 242 1247 l 456 1043 l 413 992 l 242 1121 l 71 992 "},"î":{"ha":403,"x_min":0,"x_max":0,"o":"m -14 746 l 200 950 l 414 746 l 371 694 l 200 824 l 29 694 m 60 83 l 160 83 l 160 507 l 60 507 l 60 592 l 256 592 l 256 83 l 356 83 l 356 0 l 60 0 "},"Ï":{"ha":483,"x_min":0,"x_max":0,"o":"m 67 92 l 190 92 l 190 822 l 67 822 l 67 914 l 417 914 l 417 822 l 293 822 l 293 92 l 417 92 l 417 0 l 67 0 m 363 1018 b 283 1097 318 1018 283 1054 b 363 1178 283 1142 319 1178 b 440 1097 407 1178 440 1142 b 363 1018 440 1054 406 1018 m 119 1018 b 42 1097 76 1018 42 1054 b 121 1178 42 1142 78 1178 b 199 1097 164 1178 199 1142 b 119 1018 199 1054 164 1018 "},"ï":{"ha":403,"x_min":0,"x_max":0,"o":"m 321 721 b 242 800 276 721 242 757 b 321 881 242 844 278 881 b 399 800 365 881 399 844 b 321 721 399 757 364 721 m 78 721 b 0 800 35 721 0 757 b 79 881 0 844 36 881 b 157 800 122 881 157 844 b 78 721 157 757 122 721 m 60 83 l 160 83 l 160 507 l 60 507 l 60 592 l 256 592 l 256 83 l 356 83 l 356 0 l 60 0 "},"İ":{"ha":483,"x_min":0,"x_max":0,"o":"m 67 92 l 190 92 l 190 822 l 67 822 l 67 914 l 417 914 l 417 822 l 293 822 l 293 92 l 417 92 l 417 0 l 67 0 m 242 1011 b 163 1093 197 1011 163 1049 b 243 1175 163 1139 199 1175 b 322 1093 288 1175 322 1139 b 242 1011 322 1049 286 1011 "},"ı":{"ha":403,"x_min":0,"x_max":0,"o":"m 60 83 l 160 83 l 160 507 l 60 507 l 60 592 l 256 592 l 256 83 l 356 83 l 356 0 l 60 0 "},"Ì":{"ha":483,"x_min":0,"x_max":0,"o":"m 67 92 l 190 92 l 190 822 l 67 822 l 67 914 l 417 914 l 417 822 l 293 822 l 293 92 l 417 92 l 417 0 l 67 0 m 74 1115 b 26 1176 44 1133 26 1157 b 82 1236 26 1214 53 1236 b 142 1204 103 1236 122 1224 l 308 1029 l 283 996 "},"ì":{"ha":403,"x_min":0,"x_max":0,"o":"m 60 83 l 160 83 l 160 507 l 60 507 l 60 592 l 256 592 l 256 83 l 356 83 l 356 0 l 60 0 m 31 818 b -17 879 1 836 -17 860 b 39 939 -17 917 10 939 b 99 907 60 939 79 926 l 265 732 l 240 699 "},"Ī":{"ha":483,"x_min":0,"x_max":0,"o":"m 67 92 l 190 92 l 190 822 l 67 822 l 67 914 l 417 914 l 417 822 l 293 822 l 293 92 l 417 92 l 417 0 l 67 0 m 31 1128 l 453 1128 l 453 1040 l 31 1040 "},"ī":{"ha":403,"x_min":0,"x_max":0,"o":"m 60 83 l 160 83 l 160 507 l 60 507 l 60 592 l 256 592 l 256 83 l 356 83 l 356 0 l 60 0 m -11 831 l 411 831 l 411 743 l -11 743 "},"Į":{"ha":483,"x_min":0,"x_max":0,"o":"m 67 92 l 190 92 l 190 822 l 67 822 l 67 914 l 417 914 l 417 822 l 293 822 l 293 92 l 417 92 l 417 0 l 303 0 b 203 -128 243 -32 203 -76 b 279 -200 203 -172 228 -200 b 388 -174 321 -200 357 -189 l 382 -247 b 263 -279 361 -262 314 -279 b 115 -150 165 -279 115 -226 b 204 0 115 -87 151 -37 l 67 0 "},"į":{"ha":403,"x_min":0,"x_max":0,"o":"m 60 83 l 160 83 l 160 507 l 60 507 l 60 592 l 256 592 l 256 83 l 356 83 l 356 0 l 250 0 b 150 -128 190 -32 150 -76 b 226 -200 150 -172 175 -200 b 335 -174 268 -200 304 -189 l 329 -247 b 210 -279 308 -262 261 -279 b 63 -150 113 -279 63 -226 b 151 0 63 -87 99 -37 l 60 0 m 194 743 b 118 819 153 743 118 778 b 196 897 118 861 154 897 b 271 819 236 897 271 861 b 194 743 271 778 235 743 "},"Ķ":{"ha":938,"x_min":0,"x_max":0,"o":"m 376 -354 b 482 -211 454 -296 481 -242 b 422 -142 449 -204 422 -176 b 490 -74 422 -103 454 -74 b 568 -164 533 -74 568 -104 b 399 -386 568 -228 524 -318 m 65 92 l 182 92 l 182 822 l 65 822 l 65 914 l 406 914 l 406 824 l 286 824 l 286 425 l 682 824 l 560 824 l 560 914 l 913 914 l 913 822 l 810 822 l 513 526 l 804 92 l 919 92 l 919 0 l 738 0 l 436 458 l 286 308 l 286 92 l 406 92 l 406 0 l 65 0 "},"ķ":{"ha":728,"x_min":0,"x_max":0,"o":"m 254 -354 b 360 -211 332 -296 358 -242 b 300 -142 326 -204 300 -176 b 368 -74 300 -103 332 -74 b 446 -164 411 -74 446 -104 b 276 -386 446 -228 401 -318 m 43 83 l 138 83 l 138 933 l 43 933 l 43 1017 l 233 1017 l 233 297 l 481 511 l 365 511 l 365 592 l 700 592 l 700 507 l 594 507 l 408 347 l 592 83 l 700 83 l 700 0 l 536 0 l 339 294 l 233 206 l 233 82 l 329 82 l 329 0 l 43 0 "},"Ĺ":{"ha":769,"x_min":0,"x_max":0,"o":"m 203 1044 l 371 1219 b 431 1251 389 1239 410 1251 b 486 1192 460 1251 486 1229 b 439 1131 486 1172 468 1149 l 229 1011 m 65 92 l 182 92 l 182 822 l 65 822 l 65 914 l 413 914 l 413 822 l 286 822 l 286 90 l 603 90 l 603 231 l 701 231 l 701 0 l 65 0 "},"ĺ":{"ha":386,"x_min":0,"x_max":0,"o":"m 150 1104 l 318 1279 b 378 1311 336 1299 357 1311 b 433 1251 407 1311 433 1289 b 386 1190 433 1232 415 1208 l 176 1071 m 46 83 l 146 83 l 146 933 l 46 933 l 46 1017 l 242 1017 l 242 83 l 342 83 l 342 0 l 46 0 "},"Ľ":{"ha":769,"x_min":0,"x_max":0,"o":"m 460 615 b 510 758 494 667 510 711 b 497 853 510 799 497 817 b 560 917 497 888 518 917 b 619 847 599 917 619 890 b 492 590 619 758 561 663 m 65 92 l 182 92 l 182 822 l 65 822 l 65 914 l 413 914 l 413 822 l 286 822 l 286 90 l 603 90 l 603 231 l 701 231 l 701 0 l 65 0 "},"ľ":{"ha":386,"x_min":0,"x_max":0,"o":"m 288 729 b 338 872 322 781 338 825 b 325 967 338 913 325 931 b 388 1031 325 1001 346 1031 b 447 961 426 1031 447 1004 b 319 704 447 872 389 776 m 46 83 l 146 83 l 146 933 l 46 933 l 46 1017 l 242 1017 l 242 83 l 342 83 l 342 0 l 46 0 "},"Ļ":{"ha":769,"x_min":0,"x_max":0,"o":"m 267 -354 b 372 -211 344 -296 371 -242 b 313 -142 339 -204 313 -176 b 381 -74 313 -103 344 -74 b 458 -164 424 -74 458 -104 b 289 -386 458 -228 414 -318 m 65 92 l 182 92 l 182 822 l 65 822 l 65 914 l 413 914 l 413 822 l 286 822 l 286 90 l 603 90 l 603 231 l 701 231 l 701 0 l 65 0 "},"ļ":{"ha":386,"x_min":0,"x_max":0,"o":"m 76 -354 b 182 -211 154 -296 181 -242 b 122 -142 149 -204 122 -176 b 190 -74 122 -103 154 -74 b 268 -164 233 -74 268 -104 b 99 -386 268 -228 224 -318 m 46 83 l 146 83 l 146 933 l 46 933 l 46 1017 l 242 1017 l 242 83 l 342 83 l 342 0 l 46 0 "},"Ŀ":{"ha":769,"x_min":0,"x_max":0,"o":"m 65 92 l 182 92 l 182 822 l 65 822 l 65 914 l 413 914 l 413 822 l 286 822 l 286 90 l 603 90 l 603 231 l 701 231 l 701 0 l 65 0 m 618 413 b 539 494 574 413 539 450 b 619 576 539 540 575 576 b 699 494 664 576 699 540 b 618 413 699 450 663 413 "},"ŀ":{"ha":439,"x_min":0,"x_max":0,"o":"m 46 83 l 146 83 l 146 933 l 46 933 l 46 1017 l 242 1017 l 242 83 l 342 83 l 342 0 l 46 0 m 413 390 b 333 472 368 390 333 428 b 414 554 333 518 369 554 b 493 472 458 554 493 518 b 413 390 493 428 457 390 "},"Ł":{"ha":778,"x_min":0,"x_max":0,"o":"m 74 92 l 190 92 l 190 365 l 78 300 l 35 374 l 190 464 l 190 822 l 74 822 l 74 914 l 421 914 l 421 822 l 294 822 l 294 524 l 490 639 l 533 565 l 294 425 l 294 90 l 611 90 l 611 231 l 710 231 l 710 0 l 74 0 "},"ł":{"ha":406,"x_min":0,"x_max":0,"o":"m 56 83 l 156 83 l 156 496 l 38 426 l -3 496 l 156 590 l 156 933 l 56 933 l 56 1017 l 251 1017 l 251 643 l 358 706 l 399 636 l 251 549 l 251 83 l 351 83 l 351 0 l 56 0 "},"Ń":{"ha":1061,"x_min":0,"x_max":0,"o":"m 461 1029 l 629 1204 b 689 1236 647 1224 668 1236 b 744 1176 718 1236 744 1214 b 697 1115 744 1157 726 1133 l 488 996 m 282 733 l 282 92 l 401 92 l 401 0 l 65 0 l 65 92 l 182 92 l 182 822 l 65 822 l 65 914 l 272 914 l 800 218 l 800 822 l 679 822 l 679 914 l 1011 914 l 1011 822 l 899 822 l 899 -3 l 842 -4 "},"ń":{"ha":782,"x_min":0,"x_max":0,"o":"m 333 732 l 501 907 b 561 939 519 926 540 939 b 617 879 590 939 617 917 b 569 818 617 860 599 836 l 360 699 m 243 482 b 465 603 299 547 381 603 b 622 526 542 603 593 574 b 651 403 642 493 651 451 l 651 83 l 746 83 l 746 0 l 463 0 l 463 83 l 556 83 l 556 383 b 540 463 556 415 551 442 b 442 514 524 497 490 514 b 247 410 368 514 300 468 l 247 83 l 340 83 l 340 0 l 57 0 l 57 83 l 151 83 l 151 507 l 57 507 l 57 592 l 243 592 "},"Ň":{"ha":1061,"x_min":0,"x_max":0,"o":"m 742 1197 l 528 993 l 314 1197 l 357 1249 l 528 1119 l 699 1249 m 282 733 l 282 92 l 401 92 l 401 0 l 65 0 l 65 92 l 182 92 l 182 822 l 65 822 l 65 914 l 272 914 l 800 218 l 800 822 l 679 822 l 679 914 l 1011 914 l 1011 822 l 899 822 l 899 -3 l 842 -4 "},"ň":{"ha":782,"x_min":0,"x_max":0,"o":"m 614 900 l 400 696 l 186 900 l 229 951 l 400 822 l 571 951 m 243 482 b 465 603 299 547 381 603 b 622 526 542 603 593 574 b 651 403 642 493 651 451 l 651 83 l 746 83 l 746 0 l 463 0 l 463 83 l 556 83 l 556 383 b 540 463 556 415 551 442 b 442 514 524 497 490 514 b 247 410 368 514 300 468 l 247 83 l 340 83 l 340 0 l 57 0 l 57 83 l 151 83 l 151 507 l 57 507 l 57 592 l 243 592 "},"Ņ":{"ha":1061,"x_min":0,"x_max":0,"o":"m 417 -351 b 522 -208 494 -293 521 -239 b 463 -139 489 -201 463 -174 b 531 -71 463 -100 494 -71 b 608 -161 574 -71 608 -101 b 439 -383 608 -225 564 -315 m 282 733 l 282 92 l 401 92 l 401 0 l 65 0 l 65 92 l 182 92 l 182 822 l 65 822 l 65 914 l 272 914 l 800 218 l 800 822 l 679 822 l 679 914 l 1011 914 l 1011 822 l 899 822 l 899 -3 l 842 -4 "},"ņ":{"ha":782,"x_min":0,"x_max":0,"o":"m 285 -354 b 390 -211 363 -296 389 -242 b 331 -142 357 -204 331 -176 b 399 -74 331 -103 363 -74 b 476 -164 442 -74 476 -104 b 307 -386 476 -228 432 -318 m 243 482 b 465 603 299 547 381 603 b 622 526 542 603 593 574 b 651 403 642 493 651 451 l 651 83 l 746 83 l 746 0 l 463 0 l 463 83 l 556 83 l 556 383 b 540 463 556 415 551 442 b 442 514 524 497 490 514 b 247 410 368 514 300 468 l 247 83 l 340 83 l 340 0 l 57 0 l 57 83 l 151 83 l 151 507 l 57 507 l 57 592 l 243 592 "},"Ñ":{"ha":1061,"x_min":0,"x_max":0,"o":"m 282 733 l 282 92 l 401 92 l 401 0 l 65 0 l 65 92 l 182 92 l 182 822 l 65 822 l 65 914 l 272 914 l 800 218 l 800 822 l 679 822 l 679 914 l 1011 914 l 1011 822 l 899 822 l 899 -3 l 842 -4 m 631 1004 b 508 1057 576 1004 540 1029 b 438 1096 475 1085 457 1096 b 374 1013 404 1096 382 1064 l 299 1029 b 431 1193 306 1125 367 1193 b 554 1139 485 1193 521 1167 b 625 1101 586 1113 604 1101 b 689 1185 657 1101 679 1132 l 764 1168 b 631 1004 757 1072 696 1004 "},"ñ":{"ha":782,"x_min":0,"x_max":0,"o":"m 243 482 b 465 603 299 547 381 603 b 622 526 542 603 593 574 b 651 403 642 493 651 451 l 651 83 l 746 83 l 746 0 l 463 0 l 463 83 l 556 83 l 556 383 b 540 463 556 415 551 442 b 442 514 524 497 490 514 b 247 410 368 514 300 468 l 247 83 l 340 83 l 340 0 l 57 0 l 57 83 l 151 83 l 151 507 l 57 507 l 57 592 l 243 592 m 503 707 b 381 760 449 707 413 732 b 310 799 347 788 329 799 b 246 715 276 799 254 767 l 171 732 b 303 896 178 828 239 896 b 426 842 357 896 393 869 b 497 804 458 815 476 804 b 561 888 529 804 551 835 l 636 871 b 503 707 629 775 568 707 "},"Ó":{"ha":1079,"x_min":0,"x_max":0,"o":"m 472 1029 l 640 1204 b 700 1236 658 1224 679 1236 b 756 1176 729 1236 756 1214 b 708 1115 756 1157 738 1133 l 499 996 m 538 -17 b 78 456 271 -17 78 192 b 543 931 78 724 274 931 b 1003 458 808 931 1003 722 b 538 -17 1003 190 806 -17 m 540 78 b 896 456 749 78 896 242 b 540 836 896 671 749 836 b 183 458 331 836 183 672 b 540 78 183 243 331 78 "},"ó":{"ha":731,"x_min":0,"x_max":0,"o":"m 297 732 l 465 907 b 525 939 483 926 504 939 b 581 879 554 939 581 917 b 533 818 581 860 563 836 l 324 699 m 365 -11 b 61 296 181 -11 61 126 b 365 603 61 463 182 603 b 669 296 549 603 669 464 b 365 -11 669 128 549 -11 m 365 72 b 569 296 486 72 569 164 b 365 519 569 426 486 519 b 161 296 244 519 161 426 b 365 72 161 164 244 72 "},"Ŏ":{"ha":1079,"x_min":0,"x_max":0,"o":"m 538 -17 b 78 456 271 -17 78 192 b 543 931 78 724 274 931 b 1003 458 808 931 1003 722 b 538 -17 1003 190 806 -17 m 540 78 b 896 456 749 78 896 242 b 540 836 896 671 749 836 b 183 458 331 836 183 672 b 540 78 183 243 331 78 m 538 1003 b 317 1192 436 1003 353 1075 l 385 1221 b 538 1099 415 1142 476 1099 b 690 1221 604 1099 661 1147 l 758 1192 b 538 1003 724 1075 639 1003 "},"ŏ":{"ha":731,"x_min":0,"x_max":0,"o":"m 365 -11 b 61 296 181 -11 61 126 b 365 603 61 463 182 603 b 669 296 549 603 669 464 b 365 -11 669 128 549 -11 m 365 72 b 569 296 486 72 569 164 b 365 519 569 426 486 519 b 161 296 244 519 161 426 b 365 72 161 164 244 72 m 364 706 b 143 894 263 706 179 778 l 211 924 b 364 801 242 844 303 801 b 517 924 431 801 488 850 l 585 894 b 364 706 550 778 465 706 "},"Ô":{"ha":1079,"x_min":0,"x_max":0,"o":"m 325 1043 l 539 1247 l 753 1043 l 710 992 l 539 1121 l 368 992 m 538 -17 b 78 456 271 -17 78 192 b 543 931 78 724 274 931 b 1003 458 808 931 1003 722 b 538 -17 1003 190 806 -17 m 540 78 b 896 456 749 78 896 242 b 540 836 896 671 749 836 b 183 458 331 836 183 672 b 540 78 183 243 331 78 "},"ô":{"ha":731,"x_min":0,"x_max":0,"o":"m 150 746 l 364 950 l 578 746 l 535 694 l 364 824 l 193 694 m 365 -11 b 61 296 181 -11 61 126 b 365 603 61 463 182 603 b 669 296 549 603 669 464 b 365 -11 669 128 549 -11 m 365 72 b 569 296 486 72 569 164 b 365 519 569 426 486 519 b 161 296 244 519 161 426 b 365 72 161 164 244 72 "},"Ö":{"ha":1079,"x_min":0,"x_max":0,"o":"m 660 1018 b 581 1097 615 1018 581 1054 b 660 1178 581 1142 617 1178 b 738 1097 704 1178 738 1142 b 660 1018 738 1054 703 1018 m 417 1018 b 339 1097 374 1018 339 1054 b 418 1178 339 1142 375 1178 b 496 1097 461 1178 496 1142 b 417 1018 496 1054 461 1018 m 538 -17 b 78 456 271 -17 78 192 b 543 931 78 724 274 931 b 1003 458 808 931 1003 722 b 538 -17 1003 190 806 -17 m 540 78 b 896 456 749 78 896 242 b 540 836 896 671 749 836 b 183 458 331 836 183 672 b 540 78 183 243 331 78 "},"ö":{"ha":731,"x_min":0,"x_max":0,"o":"m 486 721 b 407 800 442 721 407 757 b 486 881 407 844 443 881 b 564 800 531 881 564 844 b 486 721 564 757 529 721 m 243 721 b 165 800 200 721 165 757 b 244 881 165 844 201 881 b 322 800 288 881 322 844 b 243 721 322 757 288 721 m 365 -11 b 61 296 181 -11 61 126 b 365 603 61 463 182 603 b 669 296 549 603 669 464 b 365 -11 669 128 549 -11 m 365 72 b 569 296 486 72 569 164 b 365 519 569 426 486 519 b 161 296 244 519 161 426 b 365 72 161 164 244 72 "},"Œ":{"ha":1293,"x_min":0,"x_max":0,"o":"m 583 0 b 78 447 286 0 78 178 b 582 914 78 724 271 914 l 1206 914 l 1206 690 l 1107 690 l 1107 824 l 763 824 l 763 510 l 1061 510 l 1061 421 l 763 421 l 763 90 l 1107 90 l 1107 224 l 1206 224 l 1206 0 l 583 0 m 658 92 l 658 822 l 575 822 b 183 446 321 822 183 669 b 586 92 183 226 347 92 "},"œ":{"ha":1171,"x_min":0,"x_max":0,"o":"m 890 74 b 1097 139 969 74 1028 99 l 1089 46 b 879 -11 1028 8 953 -11 b 614 138 754 -11 658 50 b 363 -11 569 50 481 -11 b 61 296 181 -11 61 126 b 363 603 61 463 182 603 b 614 453 482 603 571 540 b 854 603 658 542 744 603 b 1122 324 1028 603 1122 471 b 1118 268 1122 301 1121 283 l 663 268 b 890 74 676 138 763 74 m 365 72 b 569 296 486 72 569 164 b 365 519 569 426 486 519 b 161 296 244 519 161 426 b 365 72 161 164 244 72 m 847 521 b 664 344 757 521 678 457 l 1026 344 b 847 521 1019 449 958 521 "},"Ò":{"ha":1079,"x_min":0,"x_max":0,"o":"m 538 -17 b 78 456 271 -17 78 192 b 543 931 78 724 274 931 b 1003 458 808 931 1003 722 b 538 -17 1003 190 806 -17 m 540 78 b 896 456 749 78 896 242 b 540 836 896 671 749 836 b 183 458 331 836 183 672 b 540 78 183 243 331 78 m 369 1115 b 322 1176 340 1133 322 1157 b 378 1236 322 1214 349 1236 b 438 1204 399 1236 418 1224 l 604 1029 l 579 996 "},"ò":{"ha":731,"x_min":0,"x_max":0,"o":"m 365 -11 b 61 296 181 -11 61 126 b 365 603 61 463 182 603 b 669 296 549 603 669 464 b 365 -11 669 128 549 -11 m 365 72 b 569 296 486 72 569 164 b 365 519 569 426 486 519 b 161 296 244 519 161 426 b 365 72 161 164 244 72 m 196 818 b 149 879 167 836 149 860 b 204 939 149 917 175 939 b 264 907 225 939 244 926 l 431 732 l 406 699 "},"Ő":{"ha":1079,"x_min":0,"x_max":0,"o":"m 340 1032 l 524 1204 b 583 1236 544 1224 564 1236 b 639 1179 614 1236 639 1214 b 586 1115 639 1158 619 1133 l 363 999 m 610 1039 l 807 1203 b 865 1229 829 1221 849 1229 b 919 1174 899 1229 919 1204 b 864 1110 919 1150 901 1125 l 628 1004 m 538 -17 b 78 456 271 -17 78 192 b 543 931 78 724 274 931 b 1003 458 808 931 1003 722 b 538 -17 1003 190 806 -17 m 540 78 b 896 456 749 78 896 242 b 540 836 896 671 749 836 b 183 458 331 836 183 672 b 540 78 183 243 331 78 "},"ő":{"ha":731,"x_min":0,"x_max":0,"o":"m 167 735 l 350 907 b 410 939 371 926 390 939 b 465 882 440 939 465 917 b 413 818 465 861 446 836 l 189 701 m 436 742 l 633 906 b 692 932 656 924 675 932 b 746 876 725 932 746 907 b 690 813 746 853 728 828 l 454 707 m 365 -11 b 61 296 181 -11 61 126 b 365 603 61 463 182 603 b 669 296 549 603 669 464 b 365 -11 669 128 549 -11 m 365 72 b 569 296 486 72 569 164 b 365 519 569 426 486 519 b 161 296 244 519 161 426 b 365 72 161 164 244 72 "},"Ō":{"ha":1079,"x_min":0,"x_max":0,"o":"m 328 1128 l 750 1128 l 750 1040 l 328 1040 m 538 -17 b 78 456 271 -17 78 192 b 543 931 78 724 274 931 b 1003 458 808 931 1003 722 b 538 -17 1003 190 806 -17 m 540 78 b 896 456 749 78 896 242 b 540 836 896 671 749 836 b 183 458 331 836 183 672 b 540 78 183 243 331 78 "},"ō":{"ha":731,"x_min":0,"x_max":0,"o":"m 153 831 l 575 831 l 575 743 l 153 743 m 365 -11 b 61 296 181 -11 61 126 b 365 603 61 463 182 603 b 669 296 549 603 669 464 b 365 -11 669 128 549 -11 m 365 72 b 569 296 486 72 569 164 b 365 519 569 426 486 519 b 161 296 244 519 161 426 b 365 72 161 164 244 72 "},"Ø":{"ha":1079,"x_min":0,"x_max":0,"o":"m 538 -17 b 260 74 431 -17 336 17 l 149 -57 l 83 0 l 197 131 b 78 456 122 215 78 329 b 543 931 78 724 274 931 b 814 843 646 931 739 899 l 924 971 l 989 914 l 878 786 b 1003 458 956 701 1003 586 b 538 -17 1003 190 806 -17 m 540 78 b 896 456 749 78 896 242 b 808 717 896 560 864 650 l 322 147 b 540 78 379 103 454 78 m 183 458 b 268 199 183 356 214 265 l 754 769 b 540 836 697 811 624 836 b 183 458 331 836 183 672 "},"ø":{"ha":731,"x_min":0,"x_max":0,"o":"m 365 -11 b 200 36 303 -11 246 7 l 131 -44 l 68 8 l 138 90 b 61 296 89 146 61 218 b 365 603 61 463 182 603 b 535 551 429 603 488 583 l 604 633 l 667 581 l 596 497 b 669 296 643 442 669 371 b 365 -11 669 128 549 -11 m 161 296 b 201 151 161 238 175 189 l 482 483 b 365 519 450 507 410 519 b 161 296 244 519 161 426 m 365 72 b 569 296 486 72 569 164 b 531 435 569 350 556 399 l 251 103 b 365 72 282 83 321 72 "},"Ǿ":{"ha":1079,"x_min":0,"x_max":0,"o":"m 538 -17 b 260 74 431 -17 336 17 l 149 -57 l 83 0 l 197 131 b 78 456 122 215 78 329 b 543 931 78 724 274 931 b 814 843 646 931 739 899 l 924 971 l 989 914 l 878 786 b 1003 458 956 701 1003 586 b 538 -17 1003 190 806 -17 m 540 78 b 896 456 749 78 896 242 b 808 717 896 560 864 650 l 322 147 b 540 78 379 103 454 78 m 183 458 b 268 199 183 356 214 265 l 754 769 b 540 836 697 811 624 836 b 183 458 331 836 183 672 m 474 1029 l 642 1204 b 701 1236 660 1224 681 1236 b 757 1176 731 1236 757 1214 b 710 1115 757 1157 739 1133 l 500 996 "},"ǿ":{"ha":731,"x_min":0,"x_max":0,"o":"m 365 -11 b 200 36 303 -11 246 7 l 131 -44 l 68 8 l 138 90 b 61 296 89 146 61 218 b 365 603 61 463 182 603 b 535 551 429 603 488 583 l 604 633 l 667 581 l 596 497 b 669 296 643 442 669 371 b 365 -11 669 128 549 -11 m 161 296 b 201 151 161 238 175 189 l 482 483 b 365 519 450 507 410 519 b 161 296 244 519 161 426 m 365 72 b 569 296 486 72 569 164 b 531 435 569 350 556 399 l 251 103 b 365 72 282 83 321 72 m 297 732 l 465 907 b 525 939 483 926 504 939 b 581 879 554 939 581 917 b 533 818 581 860 563 836 l 324 699 "},"Õ":{"ha":1079,"x_min":0,"x_max":0,"o":"m 538 -17 b 78 456 271 -17 78 192 b 543 931 78 724 274 931 b 1003 458 808 931 1003 722 b 538 -17 1003 190 806 -17 m 540 78 b 896 456 749 78 896 242 b 540 836 896 671 749 836 b 183 458 331 836 183 672 b 540 78 183 243 331 78 m 642 1004 b 519 1057 588 1004 551 1029 b 449 1096 486 1085 468 1096 b 385 1013 415 1096 393 1064 l 310 1029 b 442 1193 317 1125 378 1193 b 565 1139 496 1193 532 1167 b 636 1101 597 1113 615 1101 b 700 1185 668 1101 690 1132 l 775 1168 b 642 1004 768 1072 707 1004 "},"õ":{"ha":731,"x_min":0,"x_max":0,"o":"m 365 -11 b 61 296 181 -11 61 126 b 365 603 61 463 182 603 b 669 296 549 603 669 464 b 365 -11 669 128 549 -11 m 365 72 b 569 296 486 72 569 164 b 365 519 569 426 486 519 b 161 296 244 519 161 426 b 365 72 161 164 244 72 m 467 707 b 344 760 413 707 376 732 b 274 799 311 788 293 799 b 210 715 240 799 218 767 l 135 732 b 267 896 142 828 203 896 b 390 842 321 896 357 869 b 461 804 422 815 440 804 b 525 888 493 804 515 835 l 600 871 b 467 707 593 775 532 707 "},"Ŕ":{"ha":858,"x_min":0,"x_max":0,"o":"m 360 1029 l 528 1204 b 588 1236 546 1224 567 1236 b 643 1176 617 1236 643 1214 b 596 1115 643 1157 625 1133 l 386 996 m 65 92 l 182 92 l 182 822 l 65 822 l 65 914 l 413 914 b 744 649 614 914 744 813 b 549 399 744 524 664 436 l 740 92 l 850 92 l 850 0 l 669 0 l 444 374 b 392 371 428 372 410 371 b 286 374 356 371 313 372 l 286 92 l 406 92 l 406 0 l 65 0 m 397 461 b 640 646 536 461 640 525 b 407 822 640 761 549 822 l 286 822 l 286 464 b 397 461 314 463 353 461 "},"ŕ":{"ha":528,"x_min":0,"x_max":0,"o":"m 424 603 b 513 525 482 603 513 565 b 446 454 513 488 483 454 b 375 504 410 454 385 478 b 247 379 331 492 276 439 l 247 83 l 358 83 l 358 0 l 57 0 l 57 83 l 151 83 l 151 507 l 57 507 l 57 592 l 243 592 l 243 457 b 424 603 289 539 360 603 m 217 732 l 385 907 b 444 939 403 926 424 939 b 500 879 474 939 500 917 b 453 818 500 860 482 836 l 243 699 "},"Ř":{"ha":858,"x_min":0,"x_max":0,"o":"m 640 1197 l 426 993 l 213 1197 l 256 1249 l 426 1119 l 597 1249 m 65 92 l 182 92 l 182 822 l 65 822 l 65 914 l 413 914 b 744 649 614 914 744 813 b 549 399 744 524 664 436 l 740 92 l 850 92 l 850 0 l 669 0 l 444 374 b 392 371 428 372 410 371 b 286 374 356 371 313 372 l 286 92 l 406 92 l 406 0 l 65 0 m 397 461 b 640 646 536 461 640 525 b 407 822 640 761 549 822 l 286 822 l 286 464 b 397 461 314 463 353 461 "},"ř":{"ha":528,"x_min":0,"x_max":0,"o":"m 424 603 b 513 525 482 603 513 565 b 446 454 513 488 483 454 b 375 504 410 454 385 478 b 247 379 331 492 276 439 l 247 83 l 358 83 l 358 0 l 57 0 l 57 83 l 151 83 l 151 507 l 57 507 l 57 592 l 243 592 l 243 457 b 424 603 289 539 360 603 m 499 900 l 285 696 l 71 900 l 114 951 l 285 822 l 456 951 "},"Ŗ":{"ha":858,"x_min":0,"x_max":0,"o":"m 311 -354 b 417 -211 389 -296 415 -242 b 357 -142 383 -204 357 -176 b 425 -74 357 -103 389 -74 b 503 -164 468 -74 503 -104 b 333 -386 503 -228 458 -318 m 65 92 l 182 92 l 182 822 l 65 822 l 65 914 l 413 914 b 744 649 614 914 744 813 b 549 399 744 524 664 436 l 740 92 l 850 92 l 850 0 l 669 0 l 444 374 b 392 371 428 372 410 371 b 286 374 356 371 313 372 l 286 92 l 406 92 l 406 0 l 65 0 m 397 461 b 640 646 536 461 640 525 b 407 822 640 761 549 822 l 286 822 l 286 464 b 397 461 314 463 353 461 "},"ŗ":{"ha":528,"x_min":0,"x_max":0,"o":"m 424 603 b 513 525 482 603 513 565 b 446 454 513 488 483 454 b 375 504 410 454 385 478 b 247 379 331 492 276 439 l 247 83 l 358 83 l 358 0 l 57 0 l 57 83 l 151 83 l 151 507 l 57 507 l 57 592 l 243 592 l 243 457 b 424 603 289 539 360 603 m 82 -354 b 188 -211 160 -296 186 -242 b 128 -142 154 -204 128 -176 b 196 -74 128 -103 160 -74 b 274 -164 239 -74 274 -104 b 104 -386 274 -228 229 -318 "},"Ś":{"ha":763,"x_min":0,"x_max":0,"o":"m 324 1029 l 492 1204 b 551 1236 510 1224 531 1236 b 607 1176 581 1236 607 1214 b 560 1115 607 1157 589 1133 l 350 996 m 381 -15 b 76 174 201 -15 76 85 b 150 261 76 226 108 261 b 222 193 193 261 222 229 b 200 132 222 168 213 149 b 382 75 231 101 299 75 b 578 236 504 75 578 138 b 388 413 578 331 492 372 b 111 688 231 472 111 531 b 393 931 111 828 222 931 b 665 750 543 931 665 844 b 593 669 665 699 632 669 b 519 740 549 669 519 703 b 539 793 519 763 529 781 b 390 839 514 821 447 839 b 214 696 281 839 214 779 b 415 514 214 599 300 558 b 681 244 565 456 681 399 b 381 -15 681 83 553 -15 "},"ś":{"ha":607,"x_min":0,"x_max":0,"o":"m 522 474 b 464 410 522 436 497 410 b 400 471 428 410 400 435 b 407 504 400 481 401 493 b 303 525 386 518 347 525 b 174 439 221 525 174 482 b 325 344 174 388 228 369 b 544 167 444 315 544 282 b 308 -11 544 54 435 -11 b 94 57 222 -11 135 17 b 63 131 74 78 63 101 b 122 196 63 165 88 196 b 186 135 160 196 186 171 b 176 99 186 122 182 111 b 308 65 196 83 244 65 b 453 157 389 65 453 100 b 313 253 453 211 397 232 b 81 432 169 289 81 322 b 306 603 81 521 164 603 b 492 542 385 603 456 578 b 522 474 513 521 522 499 m 236 732 l 404 907 b 464 939 422 926 443 939 b 519 879 493 939 519 917 b 472 818 519 860 501 836 l 263 699 "},"Š":{"ha":763,"x_min":0,"x_max":0,"o":"m 604 1197 l 390 993 l 176 1197 l 219 1249 l 390 1119 l 561 1249 m 381 -15 b 76 174 201 -15 76 85 b 150 261 76 226 108 261 b 222 193 193 261 222 229 b 200 132 222 168 213 149 b 382 75 231 101 299 75 b 578 236 504 75 578 138 b 388 413 578 331 492 372 b 111 688 231 472 111 531 b 393 931 111 828 222 931 b 665 750 543 931 665 844 b 593 669 665 699 632 669 b 519 740 549 669 519 703 b 539 793 519 763 529 781 b 390 839 514 821 447 839 b 214 696 281 839 214 779 b 415 514 214 599 300 558 b 681 244 565 456 681 399 b 381 -15 681 83 553 -15 "},"š":{"ha":607,"x_min":0,"x_max":0,"o":"m 522 474 b 464 410 522 436 497 410 b 400 471 428 410 400 435 b 407 504 400 481 401 493 b 303 525 386 518 347 525 b 174 439 221 525 174 482 b 325 344 174 388 228 369 b 544 167 444 315 544 282 b 308 -11 544 54 435 -11 b 94 57 222 -11 135 17 b 63 131 74 78 63 101 b 122 196 63 165 88 196 b 186 135 160 196 186 171 b 176 99 186 122 182 111 b 308 65 196 83 244 65 b 453 157 389 65 453 100 b 313 253 453 211 397 232 b 81 432 169 289 81 322 b 306 603 81 521 164 603 b 492 542 385 603 456 578 b 522 474 513 521 522 499 m 518 900 l 304 696 l 90 900 l 133 951 l 304 822 l 475 951 "},"Ş":{"ha":763,"x_min":0,"x_max":0,"o":"m 388 -276 b 232 -237 335 -276 278 -261 l 253 -193 b 375 -219 289 -208 340 -219 b 433 -179 410 -219 433 -204 b 360 -136 433 -154 411 -136 b 335 -139 353 -136 338 -139 l 308 -117 l 340 -14 b 76 174 183 0 76 92 b 150 261 76 226 108 261 b 222 193 193 261 222 229 b 200 132 222 168 213 149 b 382 75 231 101 299 75 b 578 236 504 75 578 138 b 388 413 578 331 492 372 b 111 688 231 472 111 531 b 393 931 111 828 222 931 b 665 750 543 931 665 844 b 593 669 665 699 632 669 b 519 740 549 669 519 703 b 539 793 519 763 529 781 b 390 839 514 821 447 839 b 214 696 281 839 214 779 b 415 514 214 599 300 558 b 681 244 565 456 681 399 b 394 -15 681 88 560 -10 l 393 -67 b 524 -172 479 -71 524 -115 b 388 -276 524 -228 476 -276 "},"ş":{"ha":607,"x_min":0,"x_max":0,"o":"m 314 -276 b 158 -237 261 -276 204 -261 l 179 -193 b 301 -219 215 -208 267 -219 b 360 -179 336 -219 360 -204 b 286 -136 360 -154 338 -136 b 261 -139 279 -136 264 -139 l 235 -117 l 269 -8 b 94 57 196 -1 128 22 b 63 131 74 78 63 101 b 122 196 63 165 88 196 b 186 135 160 196 186 171 b 176 99 186 122 182 111 b 308 65 196 83 244 65 b 453 157 389 65 453 100 b 313 253 453 211 397 232 b 81 432 169 289 81 322 b 306 603 81 521 164 603 b 492 542 385 603 456 578 b 522 474 513 521 522 499 b 464 410 522 436 497 410 b 400 471 428 410 400 435 b 407 504 400 481 401 493 b 303 525 386 518 347 525 b 174 439 221 525 174 482 b 325 344 174 388 228 369 b 544 167 444 315 544 282 b 322 -11 544 58 443 -6 l 319 -67 b 450 -172 406 -71 450 -115 b 314 -276 450 -228 403 -276 "},"Ș":{"ha":763,"x_min":0,"x_max":0,"o":"m 275 -354 b 381 -211 353 -296 379 -242 b 321 -142 347 -204 321 -176 b 389 -74 321 -103 353 -74 b 467 -164 432 -74 467 -104 b 297 -386 467 -228 422 -318 m 381 -15 b 76 174 201 -15 76 85 b 150 261 76 226 108 261 b 222 193 193 261 222 229 b 200 132 222 168 213 149 b 382 75 231 101 299 75 b 578 236 504 75 578 138 b 388 413 578 331 492 372 b 111 688 231 472 111 531 b 393 931 111 828 222 931 b 665 750 543 931 665 844 b 593 669 665 699 632 669 b 519 740 549 669 519 703 b 539 793 519 763 529 781 b 390 839 514 821 447 839 b 214 696 281 839 214 779 b 415 514 214 599 300 558 b 681 244 565 456 681 399 b 381 -15 681 83 553 -15 "},"ș":{"ha":607,"x_min":0,"x_max":0,"o":"m 522 474 b 464 410 522 436 497 410 b 400 471 428 410 400 435 b 407 504 400 481 401 493 b 303 525 386 518 347 525 b 174 439 221 525 174 482 b 325 344 174 388 228 369 b 544 167 444 315 544 282 b 308 -11 544 54 435 -11 b 94 57 222 -11 135 17 b 63 131 74 78 63 101 b 122 196 63 165 88 196 b 186 135 160 196 186 171 b 176 99 186 122 182 111 b 308 65 196 83 244 65 b 453 157 389 65 453 100 b 313 253 453 211 397 232 b 81 432 169 289 81 322 b 306 603 81 521 164 603 b 492 542 385 603 456 578 b 522 474 513 521 522 499 m 188 -354 b 293 -211 265 -296 292 -242 b 233 -142 260 -204 233 -176 b 301 -74 233 -103 265 -74 b 379 -164 344 -74 379 -104 b 210 -386 379 -228 335 -318 "},"Ť":{"ha":876,"x_min":0,"x_max":0,"o":"m 650 1197 l 436 993 l 222 1197 l 265 1249 l 436 1119 l 607 1249 m 263 92 l 386 92 l 386 826 l 157 826 l 157 679 l 58 679 l 58 914 l 818 914 l 818 679 l 719 679 l 719 826 l 490 826 l 490 92 l 614 92 l 614 0 l 263 0 "},"ť":{"ha":463,"x_min":0,"x_max":0,"o":"m 283 686 b 333 829 318 738 333 782 b 321 924 333 869 321 888 b 383 988 321 958 342 988 b 443 918 422 988 443 961 b 315 661 443 829 385 733 m 278 -11 b 147 58 215 -11 171 13 b 132 140 136 81 132 108 l 132 507 l 22 507 l 22 592 l 132 592 l 132 735 l 226 772 l 226 592 l 408 592 l 408 507 l 226 507 l 226 154 b 236 108 226 135 229 121 b 306 78 247 88 269 78 b 417 114 340 78 383 94 l 404 22 b 278 -11 374 6 332 -11 "},"Ţ":{"ha":876,"x_min":0,"x_max":0,"o":"m 321 -354 b 426 -211 399 -296 425 -242 b 367 -142 393 -204 367 -176 b 435 -74 367 -103 399 -74 b 513 -164 478 -74 513 -104 b 343 -386 513 -228 468 -318 m 263 92 l 386 92 l 386 826 l 157 826 l 157 679 l 58 679 l 58 914 l 818 914 l 818 679 l 719 679 l 719 826 l 490 826 l 490 92 l 614 92 l 614 0 l 263 0 "},"ţ":{"ha":463,"x_min":0,"x_max":0,"o":"m 139 -354 b 244 -211 217 -296 243 -242 b 185 -142 211 -204 185 -176 b 253 -74 185 -103 217 -74 b 331 -164 296 -74 331 -104 b 161 -386 331 -228 286 -318 m 278 -11 b 147 58 215 -11 171 13 b 132 140 136 81 132 108 l 132 507 l 22 507 l 22 592 l 132 592 l 132 735 l 226 772 l 226 592 l 408 592 l 408 507 l 226 507 l 226 154 b 236 108 226 135 229 121 b 306 78 247 88 269 78 b 417 114 340 78 383 94 l 404 22 b 278 -11 374 6 332 -11 "},"Þ":{"ha":821,"x_min":0,"x_max":0,"o":"m 65 92 l 182 92 l 182 822 l 65 822 l 65 914 l 404 914 l 404 826 l 286 826 l 286 722 b 433 724 307 724 372 724 b 754 467 617 724 754 631 b 432 200 754 296 625 200 b 286 203 375 200 313 201 l 286 88 l 410 88 l 410 0 l 65 0 m 439 288 b 650 464 565 288 650 350 b 439 636 650 579 557 636 b 286 633 374 636 308 635 l 286 290 b 439 288 314 289 374 288 "},"þ":{"ha":731,"x_min":0,"x_max":0,"o":"m 1 -189 l 96 -189 l 96 933 l 0 933 l 0 1017 l 192 1017 l 192 513 b 388 601 240 563 299 601 b 667 299 543 601 667 481 b 375 -11 667 132 551 -11 b 192 54 306 -11 242 15 l 192 -189 l 306 -189 l 306 -272 l 1 -272 m 369 74 b 567 297 485 74 565 168 b 374 517 568 431 485 517 b 192 431 297 517 240 481 l 192 140 b 369 74 236 103 293 74 "},"Ú":{"ha":986,"x_min":0,"x_max":0,"o":"m 425 1029 l 593 1204 b 653 1236 611 1224 632 1236 b 708 1176 682 1236 708 1214 b 661 1115 708 1157 690 1133 l 451 996 m 492 -17 b 161 315 283 -17 161 101 l 161 822 l 46 822 l 46 914 l 383 914 l 383 822 l 263 822 l 263 322 b 493 78 263 160 347 78 b 725 319 639 78 725 156 l 725 822 l 604 822 l 604 914 l 940 914 l 940 822 l 825 822 l 825 319 b 492 -17 825 103 697 -17 "},"ú":{"ha":768,"x_min":0,"x_max":0,"o":"m 306 732 l 474 907 b 533 939 492 926 513 939 b 589 879 563 939 589 917 b 542 818 589 860 571 836 l 332 699 m 317 -11 b 158 68 239 -11 188 18 b 131 189 140 100 131 142 l 131 507 l 36 507 l 36 592 l 226 592 l 226 207 b 243 128 226 174 232 147 b 340 78 261 93 292 78 b 535 182 414 78 479 125 l 535 507 l 438 507 l 438 592 l 631 592 l 631 83 l 725 83 l 725 0 l 538 0 l 538 110 b 317 -11 482 44 401 -11 "},"Ŭ":{"ha":986,"x_min":0,"x_max":0,"o":"m 492 -17 b 161 315 283 -17 161 101 l 161 822 l 46 822 l 46 914 l 383 914 l 383 822 l 263 822 l 263 322 b 493 78 263 160 347 78 b 725 319 639 78 725 156 l 725 822 l 604 822 l 604 914 l 940 914 l 940 822 l 825 822 l 825 319 b 492 -17 825 103 697 -17 m 492 1003 b 271 1192 390 1003 307 1075 l 339 1221 b 492 1099 369 1142 431 1099 b 644 1221 558 1099 615 1147 l 713 1192 b 492 1003 678 1075 593 1003 "},"ŭ":{"ha":768,"x_min":0,"x_max":0,"o":"m 317 -11 b 158 68 239 -11 188 18 b 131 189 140 100 131 142 l 131 507 l 36 507 l 36 592 l 226 592 l 226 207 b 243 128 226 174 232 147 b 340 78 261 93 292 78 b 535 182 414 78 479 125 l 535 507 l 438 507 l 438 592 l 631 592 l 631 83 l 725 83 l 725 0 l 538 0 l 538 110 b 317 -11 482 44 401 -11 m 371 706 b 150 894 269 706 186 778 l 218 924 b 371 801 249 844 310 801 b 524 924 438 801 494 850 l 592 894 b 371 706 557 778 472 706 "},"Û":{"ha":986,"x_min":0,"x_max":0,"o":"m 278 1043 l 492 1247 l 706 1043 l 663 992 l 492 1121 l 321 992 m 492 -17 b 161 315 283 -17 161 101 l 161 822 l 46 822 l 46 914 l 383 914 l 383 822 l 263 822 l 263 322 b 493 78 263 160 347 78 b 725 319 639 78 725 156 l 725 822 l 604 822 l 604 914 l 940 914 l 940 822 l 825 822 l 825 319 b 492 -17 825 103 697 -17 "},"û":{"ha":768,"x_min":0,"x_max":0,"o":"m 158 746 l 372 950 l 586 746 l 543 694 l 372 824 l 201 694 m 317 -11 b 158 68 239 -11 188 18 b 131 189 140 100 131 142 l 131 507 l 36 507 l 36 592 l 226 592 l 226 207 b 243 128 226 174 232 147 b 340 78 261 93 292 78 b 535 182 414 78 479 125 l 535 507 l 438 507 l 438 592 l 631 592 l 631 83 l 725 83 l 725 0 l 538 0 l 538 110 b 317 -11 482 44 401 -11 "},"Ü":{"ha":986,"x_min":0,"x_max":0,"o":"m 614 1018 b 535 1097 569 1018 535 1054 b 614 1178 535 1142 571 1178 b 692 1097 658 1178 692 1142 b 614 1018 692 1054 657 1018 m 371 1018 b 293 1097 328 1018 293 1054 b 372 1178 293 1142 329 1178 b 450 1097 415 1178 450 1142 b 371 1018 450 1054 415 1018 m 492 -17 b 161 315 283 -17 161 101 l 161 822 l 46 822 l 46 914 l 383 914 l 383 822 l 263 822 l 263 322 b 493 78 263 160 347 78 b 725 319 639 78 725 156 l 725 822 l 604 822 l 604 914 l 940 914 l 940 822 l 825 822 l 825 319 b 492 -17 825 103 697 -17 "},"ü":{"ha":768,"x_min":0,"x_max":0,"o":"m 493 721 b 414 800 449 721 414 757 b 493 881 414 844 450 881 b 571 800 538 881 571 844 b 493 721 571 757 536 721 m 250 721 b 172 800 207 721 172 757 b 251 881 172 844 208 881 b 329 800 294 881 329 844 b 250 721 329 757 294 721 m 317 -11 b 158 68 239 -11 188 18 b 131 189 140 100 131 142 l 131 507 l 36 507 l 36 592 l 226 592 l 226 207 b 243 128 226 174 232 147 b 340 78 261 93 292 78 b 535 182 414 78 479 125 l 535 507 l 438 507 l 438 592 l 631 592 l 631 83 l 725 83 l 725 0 l 538 0 l 538 110 b 317 -11 482 44 401 -11 "},"Ù":{"ha":986,"x_min":0,"x_max":0,"o":"m 492 -17 b 161 315 283 -17 161 101 l 161 822 l 46 822 l 46 914 l 383 914 l 383 822 l 263 822 l 263 322 b 493 78 263 160 347 78 b 725 319 639 78 725 156 l 725 822 l 604 822 l 604 914 l 940 914 l 940 822 l 825 822 l 825 319 b 492 -17 825 103 697 -17 m 324 1115 b 276 1176 294 1133 276 1157 b 332 1236 276 1214 303 1236 b 392 1204 353 1236 372 1224 l 558 1029 l 533 996 "},"ù":{"ha":768,"x_min":0,"x_max":0,"o":"m 317 -11 b 158 68 239 -11 188 18 b 131 189 140 100 131 142 l 131 507 l 36 507 l 36 592 l 226 592 l 226 207 b 243 128 226 174 232 147 b 340 78 261 93 292 78 b 535 182 414 78 479 125 l 535 507 l 438 507 l 438 592 l 631 592 l 631 83 l 725 83 l 725 0 l 538 0 l 538 110 b 317 -11 482 44 401 -11 m 204 818 b 157 879 175 836 157 860 b 213 939 157 917 183 939 b 272 907 233 939 253 926 l 439 732 l 414 699 "},"Ű":{"ha":986,"x_min":0,"x_max":0,"o":"m 492 -17 b 161 315 283 -17 161 101 l 161 822 l 46 822 l 46 914 l 383 914 l 383 822 l 263 822 l 263 322 b 493 78 263 160 347 78 b 725 319 639 78 725 156 l 725 822 l 604 822 l 604 914 l 940 914 l 940 822 l 825 822 l 825 319 b 492 -17 825 103 697 -17 m 294 1032 l 478 1204 b 538 1236 499 1224 518 1236 b 593 1179 568 1236 593 1214 b 540 1115 593 1158 574 1133 l 317 999 m 564 1039 l 761 1203 b 819 1229 783 1221 803 1229 b 874 1174 853 1229 874 1204 b 818 1110 874 1150 856 1125 l 582 1004 "},"ű":{"ha":768,"x_min":0,"x_max":0,"o":"m 317 -11 b 158 68 239 -11 188 18 b 131 189 140 100 131 142 l 131 507 l 36 507 l 36 592 l 226 592 l 226 207 b 243 128 226 174 232 147 b 340 78 261 93 292 78 b 535 182 414 78 479 125 l 535 507 l 438 507 l 438 592 l 631 592 l 631 83 l 725 83 l 725 0 l 538 0 l 538 110 b 317 -11 482 44 401 -11 m 175 735 l 358 907 b 418 939 379 926 399 939 b 474 882 449 939 474 917 b 421 818 474 861 454 836 l 197 701 m 444 742 l 642 906 b 700 932 664 924 683 932 b 754 876 733 932 754 907 b 699 813 754 853 736 828 l 463 707 "},"Ū":{"ha":986,"x_min":0,"x_max":0,"o":"m 492 -17 b 161 315 283 -17 161 101 l 161 822 l 46 822 l 46 914 l 383 914 l 383 822 l 263 822 l 263 322 b 493 78 263 160 347 78 b 725 319 639 78 725 156 l 725 822 l 604 822 l 604 914 l 940 914 l 940 822 l 825 822 l 825 319 b 492 -17 825 103 697 -17 m 282 1128 l 704 1128 l 704 1040 l 282 1040 "},"ū":{"ha":768,"x_min":0,"x_max":0,"o":"m 317 -11 b 158 68 239 -11 188 18 b 131 189 140 100 131 142 l 131 507 l 36 507 l 36 592 l 226 592 l 226 207 b 243 128 226 174 232 147 b 340 78 261 93 292 78 b 535 182 414 78 479 125 l 535 507 l 438 507 l 438 592 l 631 592 l 631 83 l 725 83 l 725 0 l 538 0 l 538 110 b 317 -11 482 44 401 -11 m 161 831 l 583 831 l 583 743 l 161 743 "},"Ų":{"ha":986,"x_min":0,"x_max":0,"o":"m 531 -279 b 385 -150 433 -279 385 -226 b 453 -15 385 -96 413 -50 b 161 315 268 -1 161 114 l 161 822 l 46 822 l 46 914 l 383 914 l 383 822 l 263 822 l 263 322 b 493 78 263 160 347 78 b 725 319 639 78 725 156 l 725 822 l 604 822 l 604 914 l 940 914 l 940 822 l 825 822 l 825 319 b 550 -12 825 124 721 7 b 471 -128 501 -43 471 -83 b 549 -200 471 -172 496 -200 b 656 -174 589 -200 626 -189 l 651 -247 b 531 -279 629 -262 582 -279 "},"ų":{"ha":768,"x_min":0,"x_max":0,"o":"m 317 -11 b 158 68 239 -11 188 18 b 131 189 140 100 131 142 l 131 507 l 36 507 l 36 592 l 226 592 l 226 207 b 243 128 226 174 232 147 b 340 78 261 93 292 78 b 535 182 414 78 479 125 l 535 507 l 438 507 l 438 592 l 631 592 l 631 83 l 725 83 l 725 0 l 632 0 b 532 -128 572 -32 532 -76 b 608 -200 532 -172 557 -200 b 717 -174 650 -200 686 -189 l 711 -247 b 592 -279 690 -262 643 -279 b 444 -150 494 -279 444 -226 b 538 3 444 -86 483 -35 l 538 110 b 317 -11 482 44 401 -11 "},"Ů":{"ha":986,"x_min":0,"x_max":0,"o":"m 492 983 b 340 1138 407 983 340 1051 b 492 1292 340 1224 407 1292 b 644 1138 578 1292 644 1224 b 492 983 644 1051 578 983 m 492 1054 b 569 1138 538 1054 569 1092 b 492 1221 569 1183 538 1221 b 415 1138 447 1221 415 1183 b 492 1054 415 1092 447 1054 m 492 -17 b 161 315 283 -17 161 101 l 161 822 l 46 822 l 46 914 l 383 914 l 383 822 l 263 822 l 263 322 b 493 78 263 160 347 78 b 725 319 639 78 725 156 l 725 822 l 604 822 l 604 914 l 940 914 l 940 822 l 825 822 l 825 319 b 492 -17 825 103 697 -17 "},"ů":{"ha":768,"x_min":0,"x_max":0,"o":"m 372 686 b 221 840 288 686 221 754 b 372 994 221 926 288 994 b 525 840 458 994 525 926 b 372 686 525 754 458 686 m 372 757 b 450 840 418 757 450 794 b 372 924 450 886 418 924 b 296 840 328 924 296 886 b 372 757 296 794 328 757 m 317 -11 b 158 68 239 -11 188 18 b 131 189 140 100 131 142 l 131 507 l 36 507 l 36 592 l 226 592 l 226 207 b 243 128 226 174 232 147 b 340 78 261 93 292 78 b 535 182 414 78 479 125 l 535 507 l 438 507 l 438 592 l 631 592 l 631 83 l 725 83 l 725 0 l 538 0 l 538 110 b 317 -11 482 44 401 -11 "},"Ẃ":{"ha":1375,"x_min":0,"x_max":0,"o":"m 621 1029 l 789 1204 b 849 1236 807 1224 828 1236 b 904 1176 878 1236 904 1214 b 857 1115 904 1157 886 1133 l 647 996 m 135 822 l 29 822 l 29 914 l 360 914 l 360 822 l 244 822 l 436 182 l 665 804 l 722 804 l 953 183 l 1139 822 l 1019 822 l 1019 914 l 1349 914 l 1349 822 l 1243 822 l 988 -14 l 928 -14 l 692 615 l 454 -14 l 394 -14 "},"ẃ":{"ha":967,"x_min":0,"x_max":0,"o":"m 415 732 l 583 907 b 643 939 601 926 622 939 b 699 879 672 939 699 917 b 651 818 699 860 681 836 l 442 699 m 97 507 l 10 507 l 10 592 l 283 592 l 283 510 l 189 510 l 296 136 l 461 525 l 513 525 l 676 136 l 783 510 l 683 510 l 683 592 l 957 592 l 957 507 l 868 507 l 707 -25 l 654 -25 l 483 378 l 311 -25 l 260 -25 "},"Ŵ":{"ha":1375,"x_min":0,"x_max":0,"o":"m 474 1043 l 688 1247 l 901 1043 l 858 992 l 688 1121 l 517 992 m 135 822 l 29 822 l 29 914 l 360 914 l 360 822 l 244 822 l 436 182 l 665 804 l 722 804 l 953 183 l 1139 822 l 1019 822 l 1019 914 l 1349 914 l 1349 822 l 1243 822 l 988 -14 l 928 -14 l 692 615 l 454 -14 l 394 -14 "},"ŵ":{"ha":967,"x_min":0,"x_max":0,"o":"m 268 746 l 482 950 l 696 746 l 653 694 l 482 824 l 311 694 m 97 507 l 10 507 l 10 592 l 283 592 l 283 510 l 189 510 l 296 136 l 461 525 l 513 525 l 676 136 l 783 510 l 683 510 l 683 592 l 957 592 l 957 507 l 868 507 l 707 -25 l 654 -25 l 483 378 l 311 -25 l 260 -25 "},"Ẅ":{"ha":1375,"x_min":0,"x_max":0,"o":"m 810 1018 b 731 1097 765 1018 731 1054 b 810 1178 731 1142 767 1178 b 888 1097 854 1178 888 1142 b 810 1018 888 1054 853 1018 m 567 1018 b 489 1097 524 1018 489 1054 b 568 1178 489 1142 525 1178 b 646 1097 611 1178 646 1142 b 567 1018 646 1054 611 1018 m 135 822 l 29 822 l 29 914 l 360 914 l 360 822 l 244 822 l 436 182 l 665 804 l 722 804 l 953 183 l 1139 822 l 1019 822 l 1019 914 l 1349 914 l 1349 822 l 1243 822 l 988 -14 l 928 -14 l 692 615 l 454 -14 l 394 -14 "},"ẅ":{"ha":967,"x_min":0,"x_max":0,"o":"m 604 721 b 525 800 560 721 525 757 b 604 881 525 844 561 881 b 682 800 649 881 682 844 b 604 721 682 757 647 721 m 361 721 b 283 800 318 721 283 757 b 363 881 283 844 319 881 b 440 800 406 881 440 844 b 361 721 440 757 406 721 m 97 507 l 10 507 l 10 592 l 283 592 l 283 510 l 189 510 l 296 136 l 461 525 l 513 525 l 676 136 l 783 510 l 683 510 l 683 592 l 957 592 l 957 507 l 868 507 l 707 -25 l 654 -25 l 483 378 l 311 -25 l 260 -25 "},"Ẁ":{"ha":1375,"x_min":0,"x_max":0,"o":"m 135 822 l 29 822 l 29 914 l 360 914 l 360 822 l 244 822 l 436 182 l 665 804 l 722 804 l 953 183 l 1139 822 l 1019 822 l 1019 914 l 1349 914 l 1349 822 l 1243 822 l 988 -14 l 928 -14 l 692 615 l 454 -14 l 394 -14 m 519 1115 b 472 1176 490 1133 472 1157 b 528 1236 472 1214 499 1236 b 588 1204 549 1236 568 1224 l 754 1029 l 729 996 "},"ẁ":{"ha":967,"x_min":0,"x_max":0,"o":"m 97 507 l 10 507 l 10 592 l 283 592 l 283 510 l 189 510 l 296 136 l 461 525 l 513 525 l 676 136 l 783 510 l 683 510 l 683 592 l 957 592 l 957 507 l 868 507 l 707 -25 l 654 -25 l 483 378 l 311 -25 l 260 -25 m 314 818 b 267 879 285 836 267 860 b 322 939 267 917 293 939 b 382 907 343 939 363 926 l 549 732 l 524 699 "},"Ý":{"ha":892,"x_min":0,"x_max":0,"o":"m 265 92 l 393 92 l 393 365 l 124 822 l 26 822 l 26 914 l 333 914 l 333 822 l 239 822 l 447 454 l 657 822 l 558 822 l 558 914 l 867 914 l 867 822 l 768 822 l 497 367 l 497 92 l 626 92 l 626 0 l 265 0 m 378 1029 l 546 1204 b 606 1236 564 1224 585 1236 b 661 1176 635 1236 661 1214 b 614 1115 661 1157 643 1133 l 404 996 "},"ý":{"ha":713,"x_min":0,"x_max":0,"o":"m 294 -178 b 142 -278 250 -242 201 -278 b 39 -200 86 -278 39 -246 b 99 -139 39 -161 65 -139 b 161 -190 132 -139 153 -164 b 232 -124 183 -182 206 -164 b 276 -40 246 -103 260 -74 l 313 33 l 90 507 l 8 507 l 8 592 l 285 592 l 285 510 l 192 510 b 358 129 192 510 360 129 l 528 510 l 431 510 l 431 592 l 703 592 l 703 507 l 622 507 l 343 -93 b 294 -178 328 -125 313 -153 m 289 732 l 457 907 b 517 939 475 926 496 939 b 572 879 546 939 572 917 b 525 818 572 860 554 836 l 315 699 "},"Ŷ":{"ha":892,"x_min":0,"x_max":0,"o":"m 265 92 l 393 92 l 393 365 l 124 822 l 26 822 l 26 914 l 333 914 l 333 822 l 239 822 l 447 454 l 657 822 l 558 822 l 558 914 l 867 914 l 867 822 l 768 822 l 497 367 l 497 92 l 626 92 l 626 0 l 265 0 m 231 1043 l 444 1247 l 658 1043 l 615 992 l 444 1121 l 274 992 "},"ŷ":{"ha":713,"x_min":0,"x_max":0,"o":"m 294 -178 b 142 -278 250 -242 201 -278 b 39 -200 86 -278 39 -246 b 99 -139 39 -161 65 -139 b 161 -190 132 -139 153 -164 b 232 -124 183 -182 206 -164 b 276 -40 246 -103 260 -74 l 313 33 l 90 507 l 8 507 l 8 592 l 285 592 l 285 510 l 192 510 b 358 129 192 510 360 129 l 528 510 l 431 510 l 431 592 l 703 592 l 703 507 l 622 507 l 343 -93 b 294 -178 328 -125 313 -153 m 142 746 l 356 950 l 569 746 l 526 694 l 356 824 l 185 694 "},"Ÿ":{"ha":892,"x_min":0,"x_max":0,"o":"m 265 92 l 393 92 l 393 365 l 124 822 l 26 822 l 26 914 l 333 914 l 333 822 l 239 822 l 447 454 l 657 822 l 558 822 l 558 914 l 867 914 l 867 822 l 768 822 l 497 367 l 497 92 l 626 92 l 626 0 l 265 0 m 565 1018 b 486 1097 521 1018 486 1054 b 565 1178 486 1142 522 1178 b 643 1097 610 1178 643 1142 b 565 1018 643 1054 608 1018 m 322 1018 b 244 1097 279 1018 244 1054 b 324 1178 244 1142 281 1178 b 401 1097 367 1178 401 1142 b 322 1018 401 1054 367 1018 "},"ÿ":{"ha":713,"x_min":0,"x_max":0,"o":"m 294 -178 b 142 -278 250 -242 201 -278 b 39 -200 86 -278 39 -246 b 99 -139 39 -161 65 -139 b 161 -190 132 -139 153 -164 b 232 -124 183 -182 206 -164 b 276 -40 246 -103 260 -74 l 313 33 l 90 507 l 8 507 l 8 592 l 285 592 l 285 510 l 192 510 b 358 129 192 510 360 129 l 528 510 l 431 510 l 431 592 l 703 592 l 703 507 l 622 507 l 343 -93 b 294 -178 328 -125 313 -153 m 476 721 b 397 800 432 721 397 757 b 476 881 397 844 433 881 b 554 800 521 881 554 844 b 476 721 554 757 519 721 m 233 721 b 156 800 190 721 156 757 b 235 881 156 844 192 881 b 313 800 278 881 313 844 b 233 721 313 757 278 721 "},"Ỳ":{"ha":892,"x_min":0,"x_max":0,"o":"m 265 92 l 393 92 l 393 365 l 124 822 l 26 822 l 26 914 l 333 914 l 333 822 l 239 822 l 447 454 l 657 822 l 558 822 l 558 914 l 867 914 l 867 822 l 768 822 l 497 367 l 497 92 l 626 92 l 626 0 l 265 0 m 275 1115 b 228 1176 246 1133 228 1157 b 283 1236 228 1214 254 1236 b 343 1204 304 1236 324 1224 l 510 1029 l 485 996 "},"ỳ":{"ha":713,"x_min":0,"x_max":0,"o":"m 294 -178 b 142 -278 250 -242 201 -278 b 39 -200 86 -278 39 -246 b 99 -139 39 -161 65 -139 b 161 -190 132 -139 153 -164 b 232 -124 183 -182 206 -164 b 276 -40 246 -103 260 -74 l 313 33 l 90 507 l 8 507 l 8 592 l 285 592 l 285 510 l 192 510 b 358 129 192 510 360 129 l 528 510 l 431 510 l 431 592 l 703 592 l 703 507 l 622 507 l 343 -93 b 294 -178 328 -125 313 -153 m 186 818 b 139 879 157 836 139 860 b 194 939 139 917 165 939 b 254 907 215 939 235 926 l 421 732 l 396 699 "},"Ź":{"ha":842,"x_min":0,"x_max":0,"o":"m 353 1029 l 521 1204 b 581 1236 539 1224 560 1236 b 636 1176 610 1236 636 1214 b 589 1115 636 1157 618 1133 l 379 996 m 63 50 l 622 828 l 186 828 l 186 683 l 92 683 l 92 914 l 769 914 l 769 864 l 210 86 l 686 86 l 686 231 l 779 231 l 779 0 l 63 0 "},"ź":{"ha":625,"x_min":0,"x_max":0,"o":"m 244 732 l 413 907 b 472 939 431 926 451 939 b 528 879 501 939 528 917 b 481 818 528 860 510 836 l 271 699 m 51 43 l 431 513 l 160 513 l 160 397 l 75 397 l 75 592 l 569 592 l 569 549 l 190 79 l 490 79 l 490 194 l 575 194 l 575 0 l 51 0 "},"Ž":{"ha":842,"x_min":0,"x_max":0,"o":"m 632 1197 l 418 993 l 204 1197 l 247 1249 l 418 1119 l 589 1249 m 63 50 l 622 828 l 186 828 l 186 683 l 92 683 l 92 914 l 769 914 l 769 864 l 210 86 l 686 86 l 686 231 l 779 231 l 779 0 l 63 0 "},"ž":{"ha":625,"x_min":0,"x_max":0,"o":"m 526 900 l 313 696 l 99 900 l 142 951 l 313 822 l 483 951 m 51 43 l 431 513 l 160 513 l 160 397 l 75 397 l 75 592 l 569 592 l 569 549 l 190 79 l 490 79 l 490 194 l 575 194 l 575 0 l 51 0 "},"Ż":{"ha":842,"x_min":0,"x_max":0,"o":"m 63 50 l 622 828 l 186 828 l 186 683 l 92 683 l 92 914 l 769 914 l 769 864 l 210 86 l 686 86 l 686 231 l 779 231 l 779 0 l 63 0 m 418 1011 b 339 1093 374 1011 339 1049 b 419 1175 339 1139 375 1175 b 499 1093 464 1175 499 1139 b 418 1011 499 1049 463 1011 "},"ż":{"ha":625,"x_min":0,"x_max":0,"o":"m 51 43 l 431 513 l 160 513 l 160 397 l 75 397 l 75 592 l 569 592 l 569 549 l 190 79 l 490 79 l 490 194 l 575 194 l 575 0 l 51 0 m 311 714 b 232 796 267 714 232 751 b 313 878 232 842 268 878 b 392 796 357 878 392 842 b 311 714 392 751 356 714 "},"ə":{"ha":674,"x_min":0,"x_max":0,"o":"m 326 -11 b 56 268 150 -11 56 121 b 61 324 56 290 57 308 l 515 324 b 288 518 501 453 415 518 b 81 453 210 518 150 493 l 89 544 b 301 603 150 583 226 603 b 617 297 490 603 617 478 b 326 -11 617 133 506 -11 m 332 71 b 515 247 421 71 500 133 l 153 247 b 332 71 158 143 219 71 "},"ß":{"ha":775,"x_min":0,"x_max":0,"o":"m 511 -11 b 347 103 403 -11 347 50 b 408 168 347 140 375 168 b 469 110 440 168 469 144 b 460 76 469 97 463 83 b 507 67 468 71 493 67 b 638 190 582 67 638 111 b 522 336 638 257 593 296 b 375 517 433 385 375 426 b 453 671 375 574 399 617 b 521 818 503 721 521 764 b 386 943 521 888 461 943 b 274 876 335 943 297 919 b 253 778 260 850 253 815 l 253 0 l 61 0 l 61 83 l 157 83 l 157 507 l 51 507 l 51 592 l 157 592 l 157 765 b 197 928 157 829 171 885 b 394 1028 238 992 306 1028 b 617 819 522 1028 617 940 b 526 626 617 738 583 681 b 465 519 479 581 465 556 b 568 414 465 481 496 454 b 731 193 658 363 731 301 b 511 -11 731 64 633 -11 "},"ﬀ":{"ha":842,"x_min":0,"x_max":0,"o":"m 561 592 l 561 768 b 624 974 561 864 578 928 b 758 1028 658 1007 700 1028 b 868 949 822 1028 868 997 b 807 883 868 910 840 883 b 735 942 768 883 746 908 b 689 914 717 938 700 929 b 657 790 668 889 657 849 l 657 592 l 810 592 l 810 507 l 657 507 l 657 83 l 772 83 l 772 0 l 468 0 l 468 83 l 561 83 l 561 507 l 253 507 l 253 83 l 365 83 l 365 0 l 61 0 l 61 83 l 157 83 l 157 507 l 51 507 l 51 592 l 157 592 l 157 740 b 219 947 157 835 176 904 b 350 1000 253 981 293 1000 b 458 921 414 1000 458 969 b 399 856 458 882 432 856 b 326 914 361 856 338 878 b 286 889 311 911 297 903 b 253 763 264 865 253 824 l 253 592 "},"ﬁ":{"ha":792,"x_min":0,"x_max":0,"o":"m 644 83 l 744 83 l 744 0 l 453 0 l 453 83 l 549 83 l 549 507 l 253 507 l 253 83 l 364 83 l 364 0 l 61 0 l 61 83 l 157 83 l 157 507 l 51 507 l 51 592 l 157 592 l 157 750 b 232 971 157 851 183 925 b 381 1028 271 1007 321 1028 b 518 928 467 1028 518 979 b 451 858 518 889 489 858 b 385 939 410 858 381 897 l 388 940 b 367 942 381 942 372 942 b 292 903 343 942 314 931 b 253 772 268 875 253 832 l 253 592 l 644 592 "},"ﬂ":{"ha":796,"x_min":0,"x_max":0,"o":"m 556 83 l 556 507 l 253 507 l 253 83 l 365 83 l 365 0 l 61 0 l 61 83 l 157 83 l 157 507 l 51 507 l 51 592 l 157 592 l 157 756 b 226 958 157 843 181 911 b 408 1028 272 1004 333 1028 b 567 971 472 1028 526 1008 l 592 1022 l 651 1022 l 651 83 l 751 83 l 751 0 l 457 0 l 457 83 m 404 943 b 299 901 361 943 324 928 b 253 764 268 871 253 821 l 253 592 l 556 592 l 556 761 l 556 778 b 501 846 524 785 501 813 b 517 893 501 863 507 879 l 511 900 b 404 943 485 926 446 943 "},"ﬃ":{"ha":1190,"x_min":0,"x_max":0,"o":"m 917 928 b 850 858 917 889 888 858 b 783 939 807 858 779 899 b 764 942 776 940 769 942 b 694 908 743 942 717 932 b 651 772 671 883 651 838 l 651 592 l 1043 592 l 1043 83 l 1143 83 l 1143 0 l 851 0 l 851 83 l 947 83 l 947 507 l 651 507 l 651 83 l 763 83 l 763 0 l 463 0 l 463 83 l 556 83 l 556 507 l 253 507 l 253 83 l 365 83 l 365 0 l 61 0 l 61 83 l 157 83 l 157 507 l 51 507 l 51 592 l 157 592 l 157 747 b 219 936 157 825 174 889 b 378 1000 257 976 307 1000 b 463 985 410 1000 439 994 b 529 897 503 968 529 938 b 469 836 529 860 506 836 b 401 913 431 836 401 869 b 376 917 393 915 385 917 b 285 875 336 917 304 901 b 253 754 260 842 253 803 l 253 592 l 556 592 l 556 750 b 631 971 556 851 582 925 b 779 1028 669 1007 719 1028 b 917 928 865 1028 917 979 "},"ﬄ":{"ha":1194,"x_min":0,"x_max":0,"o":"m 253 592 l 556 592 l 556 756 b 625 958 556 843 579 911 b 807 1028 669 1004 732 1028 b 965 971 871 1028 925 1008 l 990 1022 l 1050 1022 l 1050 83 l 1150 83 l 1150 0 l 856 0 l 856 83 l 954 83 l 954 507 l 651 507 l 651 83 l 764 83 l 764 0 l 463 0 l 463 83 l 556 83 l 556 507 l 253 507 l 253 83 l 365 83 l 365 0 l 61 0 l 61 83 l 157 83 l 157 507 l 51 507 l 51 592 l 157 592 l 157 747 b 219 936 157 825 174 889 b 378 1000 257 976 307 1000 b 463 985 410 1000 439 994 b 529 897 503 968 529 938 b 469 836 529 860 506 836 b 401 914 431 836 401 869 b 376 917 393 915 385 917 b 285 875 336 917 304 901 b 253 754 260 842 253 803 m 651 592 l 954 592 l 954 761 l 954 778 b 900 846 922 783 900 813 b 915 893 900 863 906 879 l 910 900 b 803 943 883 926 844 943 b 696 901 760 943 722 928 b 651 764 667 871 651 821 "},".":{"ha":286,"x_min":0,"x_max":0,"o":"m 143 -11 b 58 76 94 -11 58 28 b 143 164 58 125 94 164 b 228 76 192 164 228 125 b 143 -11 228 28 192 -11 "},",":{"ha":286,"x_min":0,"x_max":0,"o":"m 1 -172 b 128 -1 93 -103 125 -39 b 56 82 89 6 56 40 b 139 163 56 126 94 163 b 229 54 188 163 229 125 b 28 -210 229 -22 178 -129 "},":":{"ha":313,"x_min":0,"x_max":0,"o":"m 157 358 b 72 444 110 358 72 397 b 157 531 72 492 110 531 b 242 444 204 531 242 492 b 157 358 242 397 204 358 m 157 -11 b 72 75 110 -11 72 28 b 157 161 72 122 110 161 b 242 75 204 161 242 122 b 157 -11 242 28 204 -11 "},";":{"ha":313,"x_min":0,"x_max":0,"o":"m 157 358 b 72 444 110 358 72 397 b 157 531 72 492 110 531 b 242 444 204 531 242 492 b 157 358 242 397 204 358 m 17 -169 b 142 -1 108 -101 140 -39 b 71 81 103 6 71 40 b 153 160 71 124 108 160 b 243 54 201 160 243 124 b 43 -207 243 -21 192 -128 "},"…":{"ha":861,"x_min":0,"x_max":0,"o":"m 715 -11 b 633 74 668 -11 633 26 b 715 158 633 121 668 158 b 799 74 763 158 799 121 b 715 -11 799 26 763 -11 m 431 -11 b 347 74 383 -11 347 26 b 431 158 347 121 383 158 b 514 74 478 158 514 121 b 431 -11 514 26 478 -11 m 146 -11 b 63 74 99 -11 63 26 b 146 158 63 121 99 158 b 229 74 193 158 229 121 b 146 -11 229 26 193 -11 "},"·":{"ha":364,"x_min":0,"x_max":0,"o":"m 182 265 b 96 353 133 265 96 304 b 182 440 96 401 133 440 b 267 353 229 440 267 401 b 182 265 267 304 229 265 "},"•":{"ha":401,"x_min":0,"x_max":0,"o":"m 200 239 b 65 376 124 239 65 300 b 200 517 65 454 124 517 b 335 376 276 517 335 454 b 200 239 335 300 276 239 "},"&":{"ha":860,"x_min":0,"x_max":0,"o":"m 744 371 b 658 179 719 296 693 232 b 806 47 714 126 793 57 l 746 -18 b 603 111 733 -7 657 61 b 315 -12 526 29 428 -12 b 40 213 132 -12 40 94 b 231 468 40 324 111 400 b 139 668 151 558 139 607 b 358 875 139 764 215 875 b 560 694 472 875 560 801 b 365 456 560 607 507 540 b 449 375 388 432 415 406 b 596 235 449 375 536 292 b 663 371 624 276 646 324 l 583 371 l 583 453 l 826 453 l 826 371 m 315 74 b 540 169 408 74 482 111 b 388 313 479 228 388 313 b 283 413 346 350 311 383 b 142 215 185 353 142 296 b 315 74 142 146 199 74 m 238 665 b 311 510 238 625 247 585 b 461 694 431 583 461 631 b 358 794 461 751 418 794 b 238 665 286 794 238 738 "},"!":{"ha":354,"x_min":0,"x_max":0,"o":"m 114 913 l 239 913 l 203 253 l 150 253 m 176 -11 b 97 69 132 -11 97 25 b 176 151 97 114 132 151 b 257 69 221 151 257 114 b 176 -11 257 25 221 -11 "},"¡":{"ha":354,"x_min":0,"x_max":0,"o":"m 176 761 b 97 843 132 761 97 799 b 176 924 97 888 132 924 b 257 843 221 924 257 888 b 176 761 257 799 221 761 m 150 660 l 203 660 l 239 0 l 114 0 "},"?":{"ha":619,"x_min":0,"x_max":0,"o":"m 29 733 b 64 831 29 768 42 801 b 293 931 108 889 194 931 b 579 685 469 931 579 824 b 324 415 579 561 486 453 l 310 253 l 251 253 l 229 476 b 476 682 394 508 476 585 b 292 842 476 778 407 842 b 140 782 224 842 169 821 b 133 769 138 778 135 774 b 176 711 160 763 176 736 b 111 643 176 674 150 643 b 29 733 69 643 29 679 m 282 -11 b 203 69 238 -11 203 25 b 282 151 203 114 238 151 b 361 69 326 151 361 114 b 282 -11 361 25 326 -11 "},"¿":{"ha":619,"x_min":0,"x_max":0,"o":"m 590 181 b 556 83 590 146 578 113 b 326 -17 511 25 426 -17 b 40 229 150 -17 40 90 b 296 499 40 353 133 461 l 310 661 l 368 661 l 390 438 b 143 232 225 406 143 329 b 328 72 143 136 213 72 b 479 132 397 72 451 93 b 486 143 482 136 483 140 b 443 203 458 151 443 176 b 508 271 443 240 469 271 b 590 181 550 271 590 235 m 338 925 b 418 844 382 925 418 889 b 338 763 418 800 382 763 b 258 844 293 763 258 800 b 338 925 258 889 293 925 "},"“":{"ha":556,"x_min":0,"x_max":0,"o":"m 403 571 b 311 681 354 571 311 608 b 513 954 311 757 364 876 l 538 917 b 414 735 446 850 415 774 b 486 653 453 728 486 693 b 403 571 486 607 447 571 m 136 571 b 44 681 86 571 44 608 b 246 954 44 757 97 876 l 271 917 b 147 735 179 850 149 774 b 219 653 186 728 219 693 b 136 571 219 607 181 571 "},"”":{"ha":556,"x_min":0,"x_max":0,"o":"m 285 593 b 408 775 376 660 407 736 b 336 857 369 782 336 817 b 419 939 336 903 375 939 b 511 831 468 939 511 901 b 310 556 511 753 458 635 m 18 593 b 142 775 108 660 139 736 b 68 857 103 782 68 817 b 153 939 68 903 108 939 b 243 831 201 939 243 901 b 43 556 243 753 190 635 "},"‘":{"ha":288,"x_min":0,"x_max":0,"o":"m 136 571 b 44 681 86 571 44 608 b 246 954 44 757 97 876 l 271 917 b 147 735 179 850 149 774 b 219 653 186 728 219 693 b 136 571 219 607 181 571 "},"’":{"ha":288,"x_min":0,"x_max":0,"o":"m 18 593 b 142 775 108 660 139 736 b 68 857 103 782 68 817 b 153 939 68 903 108 939 b 243 831 201 939 243 901 b 43 556 243 753 190 635 "},"„":{"ha":558,"x_min":0,"x_max":0,"o":"m 274 -169 b 397 -1 364 -101 394 -39 b 326 79 358 6 326 39 b 408 158 326 122 364 158 b 496 53 456 158 496 121 b 299 -206 496 -24 447 -122 m 6 -169 b 129 -1 96 -101 126 -39 b 58 79 90 6 58 39 b 140 158 58 122 96 158 b 228 53 188 158 228 121 b 31 -206 228 -24 179 -122 "},"‚":{"ha":290,"x_min":0,"x_max":0,"o":"m 3 -172 b 129 -1 96 -103 128 -39 b 58 82 90 6 58 40 b 142 163 58 126 97 163 b 232 54 190 163 232 125 b 29 -210 232 -22 181 -129 "},"«":{"ha":674,"x_min":0,"x_max":0,"o":"m 308 382 l 547 615 l 607 558 l 435 382 l 607 206 l 547 149 m 42 382 l 281 615 l 340 558 l 168 382 l 340 206 l 281 149 "},"»":{"ha":674,"x_min":0,"x_max":0,"o":"m 333 206 l 506 382 l 333 558 l 393 615 l 632 382 l 393 149 m 68 206 l 240 382 l 68 558 l 128 615 l 367 382 l 128 149 "},"‹":{"ha":408,"x_min":0,"x_max":0,"o":"m 42 382 l 281 615 l 340 558 l 168 382 l 340 206 l 281 149 "},"›":{"ha":408,"x_min":0,"x_max":0,"o":"m 68 206 l 240 382 l 68 558 l 128 615 l 367 382 l 128 149 "},"-":{"ha":424,"x_min":0,"x_max":0,"o":"m 49 435 l 375 435 l 375 338 l 49 338 "},"–":{"ha":651,"x_min":0,"x_max":0,"o":"m 31 433 l 621 433 l 621 339 l 31 339 "},"—":{"ha":1047,"x_min":0,"x_max":0,"o":"m 31 433 l 1017 433 l 1017 339 l 31 339 "},"_":{"ha":740,"x_min":0,"x_max":0,"o":"m -8 -112 l 749 -112 l 749 -206 l -8 -206 "},"/":{"ha":646,"x_min":0,"x_max":0,"o":"m -31 -253 l 539 1031 l 624 993 l 54 -290 "},"\\":{"ha":646,"x_min":0,"x_max":0,"o":"m 22 993 l 107 1031 l 676 -253 l 592 -290 "},"|":{"ha":375,"x_min":0,"x_max":0,"o":"m 144 1017 l 231 1017 l 231 -278 l 144 -278 "},"(":{"ha":506,"x_min":0,"x_max":0,"o":"m 486 -314 b 96 361 265 -187 96 64 b 486 1038 96 658 265 910 l 536 965 b 197 361 336 842 197 625 b 536 -242 197 100 336 -118 l 486 -314 "},")":{"ha":506,"x_min":0,"x_max":0,"o":"m -31 -242 b 308 361 169 -118 308 99 b -31 965 308 624 169 842 l 19 1038 b 410 361 240 910 410 658 b 19 -314 410 64 240 -187 "},"[":{"ha":490,"x_min":0,"x_max":0,"o":"m 140 1017 l 458 1017 l 458 928 l 239 928 l 239 -189 l 458 -189 l 458 -278 l 140 -278 "},"]":{"ha":490,"x_min":0,"x_max":0,"o":"m 32 -189 l 253 -189 l 253 928 l 32 928 l 32 1017 l 350 1017 l 350 -278 l 32 -278 "},"{":{"ha":482,"x_min":0,"x_max":0,"o":"m 410 -301 b 92 -85 199 -296 92 -207 b 200 104 92 -7 133 39 b 265 213 236 140 265 172 b 99 324 265 281 193 324 l 72 324 l 72 410 l 99 410 b 265 521 193 410 265 453 b 200 629 265 561 236 593 b 92 818 133 694 92 740 b 410 1035 92 940 199 1029 l 410 958 b 188 818 244 950 188 882 b 272 682 188 776 224 733 b 365 519 321 631 365 579 b 203 367 365 461 322 392 b 365 214 322 342 365 272 b 272 51 365 154 321 103 b 188 -85 224 0 188 -43 b 410 -225 188 -149 244 -217 l 410 -301 "},"}":{"ha":482,"x_min":0,"x_max":0,"o":"m 72 -225 b 294 -85 238 -217 294 -149 b 210 51 294 -43 258 0 b 117 214 161 103 117 154 b 279 367 117 272 160 342 b 117 519 160 392 117 461 b 210 682 117 579 161 631 b 294 818 258 733 294 776 b 72 958 294 882 238 950 l 72 1035 b 389 818 283 1029 389 940 b 282 629 389 740 347 694 b 215 521 244 593 215 561 b 383 410 215 453 289 410 l 408 410 l 408 324 l 383 324 b 215 213 289 324 215 281 b 282 104 215 172 244 140 b 389 -85 347 39 389 -7 b 72 -301 389 -207 283 -296 "},"@":{"ha":1118,"x_min":0,"x_max":0,"o":"m 468 -244 b 63 179 225 -244 63 -64 b 656 844 63 550 335 844 b 1060 446 903 844 1060 682 b 790 50 1060 226 942 50 b 663 167 701 50 660 106 b 479 50 622 96 554 50 b 308 243 382 50 308 124 b 563 543 308 404 426 543 b 713 429 646 543 696 492 l 743 538 l 832 538 l 754 226 b 804 117 735 156 753 117 b 996 446 910 117 996 274 b 656 786 996 639 867 786 b 126 178 365 786 126 515 b 469 -186 126 -25 263 -186 b 692 -131 549 -186 624 -167 l 718 -181 b 468 -244 643 -222 557 -244 m 514 132 b 690 340 613 132 690 236 b 575 458 690 415 647 458 b 408 251 481 458 408 360 b 514 132 408 181 444 132 "},"©":{"ha":840,"x_min":0,"x_max":0,"o":"m 415 -11 b 58 353 211 -11 58 150 b 415 717 58 554 211 717 b 772 353 621 717 772 554 b 415 -11 772 151 619 -11 m 415 39 b 715 353 586 39 715 179 b 415 668 715 528 588 668 b 117 353 244 668 117 528 b 415 39 117 179 244 39 m 426 494 b 301 360 356 494 301 435 b 432 224 301 286 353 224 b 538 269 472 224 507 240 l 569 233 b 431 174 536 194 483 174 b 243 357 321 174 243 251 b 426 543 243 468 331 543 b 564 457 511 543 564 496 b 528 417 564 435 549 417 b 494 451 510 417 494 432 b 500 471 494 458 497 467 b 426 494 490 483 467 494 "},"℗":{"ha":840,"x_min":0,"x_max":0,"o":"m 415 -11 b 58 353 211 -11 58 150 b 415 717 58 554 211 717 b 772 353 621 717 772 554 b 415 -11 772 151 619 -11 m 415 39 b 715 353 586 39 715 179 b 415 668 715 528 588 668 b 117 353 244 668 117 528 b 415 39 117 179 244 39 m 393 293 l 393 213 l 440 213 l 440 167 l 296 167 l 296 213 l 340 213 l 340 486 l 296 486 l 296 532 l 440 532 b 576 415 518 532 576 488 b 436 293 576 335 521 293 m 440 339 b 524 415 492 339 524 368 b 438 486 524 458 488 486 l 393 486 l 393 340 b 440 339 401 340 415 339 "},"®":{"ha":544,"x_min":0,"x_max":0,"o":"m 272 467 b 24 714 133 467 24 576 b 272 963 24 853 133 963 b 521 714 410 963 521 853 b 272 467 521 576 410 467 m 272 918 b 74 714 163 918 74 829 b 272 511 74 600 163 511 b 471 714 381 511 471 600 b 272 918 471 829 383 918 m 178 638 l 204 638 l 204 799 l 178 799 l 178 836 l 271 836 b 365 765 325 836 365 813 b 322 701 365 735 347 713 l 356 638 l 383 638 l 383 600 l 326 600 l 279 689 l 247 689 l 247 638 l 276 638 l 276 600 l 178 600 m 269 726 b 321 763 301 726 321 739 b 269 799 321 788 301 799 l 247 799 l 247 726 "},"℠":{"ha":789,"x_min":0,"x_max":0,"o":"m 319 622 l 368 622 l 379 861 l 329 861 l 329 914 l 450 914 l 544 704 l 638 914 l 760 914 l 760 861 l 708 861 l 719 622 l 768 622 l 768 569 l 621 569 l 621 622 l 664 622 l 656 832 l 557 617 l 529 617 l 429 832 l 422 622 l 465 622 l 465 569 l 319 569 m 144 563 b 18 643 71 563 18 601 b 53 682 18 665 32 682 b 89 651 76 682 89 665 b 83 631 89 642 86 636 b 143 613 96 621 117 613 b 211 661 185 613 211 631 b 142 718 211 690 181 706 b 31 824 78 740 31 763 b 149 921 31 878 78 921 b 265 847 217 921 265 888 b 231 810 265 824 250 810 b 194 840 207 810 194 824 b 201 857 194 849 197 853 b 149 869 190 864 171 869 b 89 826 111 869 89 854 b 160 771 89 796 122 783 b 269 664 222 750 269 726 b 144 563 269 600 217 563 "},"™":{"ha":851,"x_min":0,"x_max":0,"o":"m 382 622 l 431 622 l 442 861 l 392 861 l 392 914 l 513 914 l 607 704 l 700 914 l 822 914 l 822 861 l 771 861 l 782 622 l 831 622 l 831 569 l 683 569 l 683 622 l 726 622 l 718 832 l 619 617 l 592 617 l 492 832 l 485 622 l 528 622 l 528 569 l 382 569 m 100 622 l 151 622 l 151 864 l 71 864 l 71 810 l 18 810 l 18 914 l 343 914 l 343 810 l 289 810 l 289 864 l 210 864 l 210 622 l 260 622 l 260 569 l 100 569 "},"*":{"ha":563,"x_min":0,"x_max":0,"o":"m 306 728 l 413 633 b 421 543 447 604 450 564 b 336 578 389 519 353 536 l 281 710 l 226 578 b 142 543 208 536 174 519 b 150 633 113 564 114 604 l 257 728 l 113 740 b 54 811 67 744 43 776 b 143 831 65 844 106 853 l 267 758 l 233 899 b 281 976 224 942 244 976 b 328 899 318 976 339 942 l 296 758 l 419 831 b 508 811 457 853 497 844 b 450 740 519 776 496 744 "},"†":{"ha":647,"x_min":0,"x_max":0,"o":"m 278 538 l 163 551 b 93 472 163 504 129 472 b 26 542 53 472 26 506 b 118 621 26 586 61 621 b 161 615 131 621 147 618 l 299 586 l 264 799 b 324 889 254 853 282 889 b 383 799 365 889 393 853 l 347 586 l 486 615 b 529 621 499 618 515 621 b 621 542 586 621 621 586 b 553 472 621 506 594 472 b 485 551 517 472 483 504 l 369 538 l 349 -3 l 299 -3 "},"‡":{"ha":660,"x_min":0,"x_max":0,"o":"m 329 -172 b 272 -78 288 -172 261 -135 l 304 97 l 185 72 b 144 67 171 69 157 67 b 51 143 92 67 51 99 b 118 208 51 178 78 208 b 186 132 154 208 188 181 l 282 143 l 307 358 l 282 574 l 186 585 b 118 508 188 536 154 508 b 51 575 78 508 51 540 b 144 651 51 619 92 651 b 185 646 157 651 171 649 l 304 621 l 272 794 b 329 889 261 853 288 889 b 388 794 372 889 399 851 l 356 621 l 475 646 b 515 651 489 649 503 651 b 608 575 568 651 608 619 b 542 508 608 540 581 508 b 474 585 506 508 472 536 l 378 574 l 353 358 l 378 143 l 474 132 b 542 208 472 181 506 208 b 608 143 581 208 608 178 b 515 67 608 99 568 67 b 475 72 503 67 489 69 l 356 97 l 388 -78 b 329 -172 399 -135 372 -172 "},"^":{"ha":619,"x_min":0,"x_max":0,"o":"m 96 549 l 310 753 l 524 549 l 479 496 l 310 619 l 140 496 "},"~":{"ha":600,"x_min":0,"x_max":0,"o":"m 399 265 b 278 319 344 265 308 292 b 207 358 244 347 226 358 b 142 276 174 358 151 329 l 67 294 b 201 456 75 390 136 456 b 324 401 256 456 292 429 b 394 363 356 374 374 363 b 458 444 426 363 449 393 l 533 426 b 399 265 526 331 464 265 "},"$":{"ha":646,"x_min":0,"x_max":0,"o":"m 394 701 b 578 572 493 689 578 642 b 518 506 578 532 553 506 b 453 569 481 506 453 532 b 461 606 453 581 456 594 b 383 626 449 613 418 622 l 367 401 b 585 197 476 367 585 321 b 335 0 585 63 467 3 l 324 -147 l 247 -140 l 258 4 b 53 149 156 18 53 64 b 115 215 53 186 79 215 b 181 154 156 215 181 189 b 171 114 181 142 176 128 b 271 81 186 100 224 86 l 290 328 b 85 518 186 360 85 401 b 318 704 85 625 183 699 l 326 803 l 403 797 m 490 193 b 357 308 490 253 436 283 l 338 76 b 490 193 421 79 490 115 m 179 524 b 300 421 179 471 229 444 l 315 629 b 179 524 238 625 179 589 "},"£":{"ha":665,"x_min":0,"x_max":0,"o":"m 276 168 l 276 146 b 207 -29 276 67 247 13 b 340 -57 253 -33 306 -46 b 476 -85 408 -79 442 -85 b 592 -7 533 -85 560 -64 l 660 -44 b 479 -172 621 -135 567 -172 b 313 -136 431 -172 381 -162 b 179 -108 269 -119 232 -108 l 158 -108 b 47 -172 126 -153 81 -172 b -18 -121 8 -172 -18 -149 b 121 -28 -18 -74 29 -32 b 189 144 164 19 189 79 b 188 168 189 153 189 160 l 44 168 l 44 247 l 174 247 l 160 288 b 125 460 142 340 125 393 b 381 717 125 596 221 717 b 601 567 503 717 601 647 b 535 486 601 513 568 486 b 474 549 499 486 474 513 b 492 596 474 569 483 588 b 379 635 475 617 442 635 b 217 460 275 635 217 549 b 247 299 217 396 229 350 b 264 247 253 281 260 264 l 504 247 l 504 168 "},"€":{"ha":826,"x_min":0,"x_max":0,"o":"m 58 476 l 160 476 b 496 717 210 622 344 717 b 761 536 650 717 761 622 b 688 458 761 490 726 458 b 624 522 651 458 624 486 b 649 572 624 546 638 567 b 494 632 632 599 578 632 b 257 475 385 632 299 567 l 511 475 l 511 400 l 236 400 b 232 351 233 383 232 368 b 236 301 232 335 233 318 l 511 301 l 511 226 l 258 226 b 499 72 300 136 386 72 b 707 164 579 72 647 104 l 764 99 b 499 -12 694 26 597 -12 b 160 225 331 -12 207 86 l 58 225 l 58 301 l 143 301 b 140 350 140 317 140 333 b 143 400 140 367 140 383 l 58 400 "},"¥":{"ha":694,"x_min":0,"x_max":0,"o":"m 108 403 l 253 403 l 110 626 l 25 626 l 25 706 l 279 706 l 279 628 l 201 628 l 347 390 l 492 628 l 413 628 l 413 706 l 665 706 l 665 626 l 579 626 l 436 403 l 582 403 l 582 326 l 392 326 l 388 319 l 388 244 l 582 244 l 582 168 l 388 168 l 388 76 l 499 76 l 499 0 l 193 0 l 193 76 l 304 76 l 304 168 l 108 168 l 108 244 l 304 244 l 304 319 l 300 326 l 108 326 "},"¢":{"ha":697,"x_min":0,"x_max":0,"o":"m 632 483 b 558 406 632 443 600 406 b 497 468 528 406 497 426 b 526 518 497 479 506 504 b 419 576 511 547 467 568 l 379 128 l 407 128 b 617 193 482 128 547 149 l 608 103 b 400 47 550 63 469 47 l 374 47 l 357 -147 l 281 -140 l 297 61 b 63 354 156 100 63 218 b 353 657 63 507 189 644 l 365 804 l 442 797 l 429 654 b 632 483 543 636 632 558 m 161 353 b 308 143 161 256 215 176 l 346 578 b 161 353 251 564 161 486 "},"#":{"ha":721,"x_min":0,"x_max":0,"o":"m 69 535 l 211 535 l 238 706 l 325 706 l 299 535 l 475 535 l 503 706 l 590 706 l 563 535 l 693 535 l 693 453 l 550 453 l 521 260 l 650 260 l 650 178 l 508 178 l 481 0 l 393 0 l 419 178 l 243 178 l 215 0 l 129 0 l 156 178 l 26 178 l 26 260 l 168 260 l 199 453 l 69 453 m 253 258 l 435 258 l 465 456 l 283 456 "},"¶":{"ha":800,"x_min":0,"x_max":0,"o":"m 279 82 l 390 82 l 390 268 b 292 267 367 267 332 267 b 46 485 150 267 46 350 b 296 696 46 608 154 696 l 746 696 l 746 611 l 636 611 l 636 85 l 746 85 l 746 0 l 279 0 m 553 82 l 553 614 l 472 614 l 472 82 "},"§":{"ha":632,"x_min":0,"x_max":0,"o":"m 325 717 b 526 601 433 717 526 669 b 469 542 526 568 504 542 b 410 599 433 542 410 565 b 414 621 410 607 411 615 b 322 643 399 632 357 643 b 215 583 253 643 215 617 b 363 497 215 544 268 524 b 550 354 472 467 550 433 b 442 235 550 294 503 257 b 513 128 486 211 513 179 b 306 -14 513 53 436 -14 b 104 101 201 -14 104 29 b 161 160 104 133 125 160 b 221 104 196 160 221 138 b 215 81 221 94 219 88 b 307 58 232 68 274 58 b 414 118 379 58 414 85 b 265 204 414 158 367 175 b 79 344 160 233 79 268 b 189 467 79 404 125 446 b 115 575 140 492 115 525 b 325 717 115 646 194 717 m 361 265 b 453 340 413 281 453 306 b 314 425 453 381 407 400 l 268 438 b 176 361 218 422 176 394 b 315 278 176 321 221 301 "},"ª":{"ha":478,"x_min":0,"x_max":0,"o":"m 169 565 b 53 665 103 565 53 603 b 190 772 53 731 110 772 b 289 758 228 772 271 764 l 289 801 b 263 860 289 828 279 847 b 199 876 247 871 225 876 b 149 865 174 876 158 872 b 153 844 151 860 153 853 b 114 806 153 822 136 806 b 75 847 90 806 75 822 b 208 931 75 888 121 931 b 304 907 249 931 281 922 b 353 808 336 886 353 851 l 353 626 l 408 626 l 408 572 l 290 572 l 290 615 b 169 565 261 588 217 565 m 65 475 l 408 475 l 408 414 l 65 414 m 188 617 b 289 661 226 617 263 635 l 289 718 b 199 731 265 725 232 731 b 119 671 147 731 119 707 b 188 617 119 638 144 617 "},"º":{"ha":488,"x_min":0,"x_max":0,"o":"m 79 475 l 408 475 l 408 414 l 79 414 m 244 564 b 60 747 132 564 60 649 b 244 932 60 847 133 932 b 428 747 356 932 428 849 b 244 564 428 649 356 564 m 244 619 b 360 747 313 619 360 674 b 244 876 360 822 313 876 b 128 747 175 876 128 822 b 244 619 128 674 175 619 "},"°":{"ha":419,"x_min":0,"x_max":0,"o":"m 210 571 b 31 751 106 571 31 653 b 210 932 31 850 106 932 b 386 751 313 932 386 850 b 210 571 386 653 313 571 m 210 633 b 319 751 274 633 319 685 b 210 868 319 818 274 868 b 99 751 144 868 99 818 b 210 633 99 685 144 633 "},"%":{"ha":897,"x_min":0,"x_max":0,"o":"m 238 381 b 69 549 143 381 69 456 b 238 718 69 643 143 718 b 406 549 331 718 406 643 b 238 381 406 456 331 381 m 660 326 b 828 158 754 326 828 251 b 660 -11 828 65 754 -11 b 493 158 567 -11 493 65 b 660 326 493 251 567 326 m 131 13 b 422 363 160 42 313 229 l 708 718 l 760 676 b 467 324 731 644 575 456 b 181 -31 358 192 207 0 m 238 449 b 329 549 290 449 329 493 b 238 649 329 604 290 649 b 146 549 185 649 146 604 b 238 449 146 493 185 449 m 660 257 b 569 157 607 257 569 213 b 660 57 569 101 607 57 b 751 157 714 57 751 101 b 660 257 751 213 714 257 "},"‰":{"ha":1283,"x_min":0,"x_max":0,"o":"m 238 381 b 69 549 143 381 69 456 b 238 718 69 643 143 718 b 406 549 331 718 406 643 b 238 381 406 456 331 381 m 1046 -11 b 878 158 951 -11 878 65 b 1046 326 878 251 951 326 b 1214 158 1139 326 1214 251 b 1046 -11 1214 65 1139 -11 m 660 -11 b 493 158 567 -11 493 65 b 660 326 493 251 567 326 b 828 158 754 326 828 251 b 660 -11 828 65 754 -11 m 131 13 b 422 363 160 42 313 229 l 708 718 l 760 676 b 467 324 731 644 575 456 b 181 -31 358 192 207 0 m 238 449 b 329 549 290 449 329 493 b 238 649 329 604 290 649 b 146 549 185 649 146 604 b 238 449 146 493 185 449 m 1046 57 b 1136 157 1099 57 1136 101 b 1046 257 1136 213 1099 257 b 954 157 992 257 954 213 b 1046 57 954 101 992 57 m 660 57 b 751 157 714 57 751 101 b 660 257 751 213 714 257 b 569 157 607 257 569 213 b 660 57 569 101 607 57 "},"\"":{"ha":469,"x_min":0,"x_max":0,"o":"m 286 832 b 351 931 274 892 306 931 b 418 832 399 931 431 893 l 371 583 l 332 583 m 50 832 b 115 931 38 892 69 931 b 182 832 163 931 193 893 l 135 583 l 96 583 "},"'":{"ha":233,"x_min":0,"x_max":0,"o":"m 50 832 b 115 931 38 892 69 931 b 182 832 163 931 193 893 l 135 583 l 96 583 "},"+":{"ha":578,"x_min":0,"x_max":0,"o":"m 244 333 l 58 333 l 58 418 l 244 418 l 244 607 l 332 607 l 332 418 l 519 418 l 519 333 l 332 333 l 332 144 l 244 144 "},"−":{"ha":578,"x_min":0,"x_max":0,"o":"m 58 418 l 519 418 l 519 333 l 58 333 "},"÷":{"ha":578,"x_min":0,"x_max":0,"o":"m 58 333 l 58 418 l 519 418 l 519 333 m 289 497 b 221 567 251 497 221 529 b 289 636 221 604 253 636 b 357 567 325 636 357 604 b 289 497 357 529 325 497 m 289 117 b 221 185 251 117 221 147 b 289 254 221 222 253 254 b 357 185 325 254 357 222 b 289 117 357 147 325 117 "},"=":{"ha":578,"x_min":0,"x_max":0,"o":"m 58 521 l 519 521 l 519 436 l 58 436 m 58 297 l 519 297 l 519 213 l 58 213 "},"×":{"ha":578,"x_min":0,"x_max":0,"o":"m 288 314 l 143 165 l 82 226 l 228 375 l 81 524 l 143 586 l 289 436 l 433 586 l 494 524 l 349 376 l 494 226 l 433 164 "},"<":{"ha":540,"x_min":0,"x_max":0,"o":"m 57 346 l 57 392 l 406 628 l 451 561 l 168 368 l 451 176 l 406 110 "},">":{"ha":540,"x_min":0,"x_max":0,"o":"m 89 176 l 372 368 l 89 561 l 136 628 l 485 392 l 485 346 l 136 110 "},"±":{"ha":578,"x_min":0,"x_max":0,"o":"m 244 407 l 58 407 l 58 493 l 244 493 l 244 681 l 332 681 l 332 493 l 519 493 l 519 407 l 332 407 l 332 219 l 244 219 m 58 110 l 519 110 l 519 25 l 58 25 "},"½":{"ha":1104,"x_min":0,"x_max":0,"o":"m 694 -1 b 674 32 692 -1 674 32 b 858 249 713 142 794 204 b 950 367 911 286 950 315 b 853 449 950 414 907 449 b 761 410 803 449 767 424 b 785 369 775 404 785 388 b 739 324 785 344 764 324 b 688 385 704 324 688 350 b 858 511 688 449 754 511 b 1025 367 949 511 1025 453 b 903 203 1025 286 967 246 b 761 58 847 167 789 119 l 972 58 l 972 140 l 1035 140 l 1035 -1 l 694 -1 m 68 456 l 200 456 l 200 817 l 76 788 l 61 850 l 236 896 l 272 896 l 272 456 l 403 456 l 403 390 l 68 390 m 263 14 l 536 460 b 803 904 636 622 772 851 l 856 871 l 585 432 b 315 -18 485 267 346 33 "},"⅓":{"ha":1104,"x_min":0,"x_max":0,"o":"m 854 -11 b 675 104 757 -11 675 39 b 725 158 675 133 697 158 b 771 111 753 158 771 138 b 757 81 771 100 765 86 b 854 49 767 71 801 49 b 965 136 917 49 965 86 b 829 226 965 186 922 226 l 799 226 l 799 288 l 832 288 b 954 375 904 288 954 322 b 856 449 954 424 910 449 b 775 422 813 449 785 433 b 789 392 782 417 789 404 b 743 346 789 367 768 346 b 693 401 717 346 693 368 b 858 507 693 446 749 507 b 1028 378 956 507 1028 451 b 914 258 1028 319 976 272 b 1040 132 976 246 1040 199 b 854 -11 1040 46 957 -11 m 69 456 l 201 456 l 201 817 l 78 788 l 63 850 l 238 896 l 274 896 l 274 456 l 404 456 l 404 390 l 69 390 m 258 14 l 532 460 b 799 904 632 622 768 851 l 851 871 l 581 432 b 311 -18 481 267 342 33 "},"⅔":{"ha":1104,"x_min":0,"x_max":0,"o":"m 79 390 b 58 424 76 390 58 424 b 243 640 97 533 179 596 b 335 758 296 678 335 707 b 238 840 335 806 292 840 b 146 801 188 840 151 815 b 169 761 160 796 169 779 b 124 715 169 736 149 715 b 72 776 89 715 72 742 b 243 903 72 840 139 903 b 410 758 333 903 410 844 b 288 594 410 678 351 638 b 146 450 232 558 174 511 l 357 450 l 357 532 l 419 532 l 419 390 l 79 390 m 857 -11 b 678 104 760 -11 678 39 b 728 158 678 133 700 158 b 774 111 756 158 774 138 b 760 81 774 100 768 86 b 857 49 769 71 804 49 b 968 136 919 49 968 86 b 832 226 968 186 925 226 l 801 226 l 801 288 l 835 288 b 957 375 907 288 957 322 b 858 449 957 424 913 449 b 778 422 815 449 788 433 b 792 392 785 417 792 404 b 746 346 792 367 771 346 b 696 401 719 346 696 368 b 861 507 696 446 751 507 b 1031 378 958 507 1031 451 b 917 258 1031 319 979 272 b 1043 132 979 246 1043 199 b 857 -11 1043 46 960 -11 m 281 14 l 554 460 b 821 904 654 622 790 851 l 874 871 l 603 432 b 333 -18 503 267 364 33 "},"¼":{"ha":1104,"x_min":0,"x_max":0,"o":"m 789 57 l 882 57 l 882 146 l 650 146 l 632 182 l 899 518 l 950 476 l 726 201 l 882 201 l 882 297 l 947 325 l 947 204 l 1029 204 l 1029 144 l 947 144 l 947 58 l 1011 58 l 1011 -1 l 789 -1 m 72 456 l 204 456 l 204 817 l 81 788 l 65 850 l 240 896 l 276 896 l 276 456 l 407 456 l 407 390 l 72 390 m 279 14 l 553 460 b 819 904 653 622 789 851 l 872 871 l 601 432 b 332 -18 501 267 363 33 "},"¾":{"ha":1104,"x_min":0,"x_max":0,"o":"m 257 381 b 78 496 160 381 78 431 b 128 550 78 525 100 550 b 174 503 156 550 174 529 b 160 472 174 492 168 478 b 257 440 169 463 204 440 b 368 528 319 440 368 478 b 232 618 368 578 325 618 l 201 618 l 201 679 l 235 679 b 357 767 307 679 357 714 b 258 840 357 815 313 840 b 178 814 215 840 188 825 b 192 783 185 808 192 796 b 146 738 192 758 171 738 b 96 793 119 738 96 760 b 261 899 96 838 151 899 b 431 769 358 899 431 843 b 317 650 431 711 379 664 b 443 524 379 638 443 590 b 257 381 443 438 360 381 m 786 57 l 879 57 l 879 146 l 647 146 l 629 182 l 896 518 l 947 476 l 724 201 l 879 201 l 879 297 l 944 325 l 944 204 l 1026 204 l 1026 144 l 944 144 l 944 58 l 1008 58 l 1008 -1 l 786 -1 m 285 14 l 558 460 b 825 904 658 622 794 851 l 878 871 l 607 432 b 338 -18 507 267 368 33 "},"⅕":{"ha":1104,"x_min":0,"x_max":0,"o":"m 863 -11 b 694 85 754 -11 694 39 b 743 136 694 114 714 136 b 792 90 774 136 792 114 b 785 68 792 82 789 74 b 858 51 796 61 822 51 b 981 161 936 51 981 97 b 864 258 981 215 940 258 b 751 233 822 258 781 247 l 718 250 l 742 501 l 1021 501 l 1021 433 l 803 433 l 790 311 b 868 322 808 317 835 322 b 1053 161 975 322 1053 261 b 863 -11 1053 58 969 -11 m 69 456 l 201 456 l 201 817 l 78 788 l 63 850 l 238 896 l 274 896 l 274 456 l 404 456 l 404 390 l 69 390 m 265 14 l 539 460 b 806 904 639 622 775 851 l 858 871 l 588 432 b 318 -18 488 267 349 33 "},"⅖":{"ha":1104,"x_min":0,"x_max":0,"o":"m 82 390 b 61 424 79 390 61 424 b 246 640 100 533 182 596 b 338 758 299 678 338 707 b 240 840 338 806 294 840 b 149 801 190 840 154 815 b 172 761 163 796 172 779 b 126 715 172 736 151 715 b 75 776 92 715 75 742 b 246 903 75 840 142 903 b 413 758 336 903 413 844 b 290 594 413 678 354 638 b 149 450 235 558 176 511 l 360 450 l 360 532 l 422 532 l 422 390 l 82 390 m 869 -11 b 701 85 761 -11 701 39 b 750 136 701 114 721 136 b 799 90 781 136 799 114 b 792 68 799 82 796 74 b 865 51 803 61 829 51 b 988 161 943 51 988 97 b 871 258 988 215 947 258 b 758 233 829 258 788 247 l 725 250 l 749 501 l 1028 501 l 1028 433 l 810 433 l 797 311 b 875 322 815 317 842 322 b 1060 161 982 322 1060 261 b 869 -11 1060 58 976 -11 m 290 14 l 564 460 b 831 904 664 622 800 851 l 883 871 l 613 432 b 343 -18 513 267 374 33 "},"⅗":{"ha":1104,"x_min":0,"x_max":0,"o":"m 861 -11 b 693 85 753 -11 693 39 b 742 136 693 114 713 136 b 790 90 772 136 790 114 b 783 68 790 82 788 74 b 857 51 794 61 821 51 b 979 161 935 51 979 97 b 863 258 979 215 939 258 b 750 233 821 258 779 247 l 717 250 l 740 501 l 1019 501 l 1019 433 l 801 433 l 789 311 b 867 322 807 317 833 322 b 1051 161 974 322 1051 261 b 861 -11 1051 58 968 -11 m 244 381 b 65 496 147 381 65 431 b 115 550 65 525 88 550 b 161 503 143 550 161 529 b 147 472 161 492 156 478 b 244 440 157 463 192 440 b 356 528 307 440 356 478 b 219 618 356 578 313 618 l 189 618 l 189 679 l 222 679 b 344 767 294 679 344 714 b 246 840 344 815 300 840 b 165 814 203 840 175 825 b 179 783 172 808 179 796 b 133 738 179 758 158 738 b 83 793 107 738 83 760 b 249 899 83 838 139 899 b 418 769 346 899 418 843 b 304 650 418 711 367 664 b 431 524 367 638 431 590 b 244 381 431 438 347 381 m 263 14 l 536 460 b 803 904 636 622 772 851 l 856 871 l 585 432 b 315 -18 485 267 346 33 "},"⅘":{"ha":1104,"x_min":0,"x_max":0,"o":"m 865 -11 b 697 85 757 -11 697 39 b 746 136 697 114 717 136 b 794 90 776 136 794 114 b 788 68 794 82 792 74 b 861 51 799 61 825 51 b 983 161 939 51 983 97 b 867 258 983 215 943 258 b 754 233 825 258 783 247 l 721 250 l 744 501 l 1024 501 l 1024 433 l 806 433 l 793 311 b 871 322 811 317 838 322 b 1056 161 978 322 1056 261 b 865 -11 1056 58 972 -11 m 203 449 l 296 449 l 296 538 l 64 538 l 46 574 l 313 910 l 364 868 l 140 593 l 296 593 l 296 689 l 361 717 l 361 596 l 443 596 l 443 536 l 361 536 l 361 450 l 425 450 l 425 390 l 203 390 m 292 14 l 565 460 b 832 904 665 622 801 851 l 885 871 l 614 432 b 344 -18 514 267 375 33 "},"⅙":{"ha":1104,"x_min":0,"x_max":0,"o":"m 1013 418 b 967 369 1013 388 993 369 b 919 414 935 369 919 392 b 925 436 919 422 922 431 b 879 449 915 443 897 449 b 738 250 800 449 740 365 b 750 264 740 254 746 260 b 868 311 781 294 821 311 b 1039 153 969 311 1039 243 b 858 -11 1039 61 967 -11 b 724 43 801 -11 757 10 b 667 224 682 86 667 142 b 879 511 667 413 765 511 b 988 474 931 511 965 494 b 1013 418 1006 456 1013 439 m 67 456 l 199 456 l 199 817 l 75 788 l 60 850 l 235 896 l 271 896 l 271 456 l 401 456 l 401 390 l 67 390 m 261 14 l 535 460 b 801 904 635 622 771 851 l 854 871 l 583 432 b 314 -18 483 267 344 33 m 860 51 b 967 151 922 51 967 96 b 858 249 967 208 926 249 b 747 153 794 249 747 207 b 776 82 747 125 757 100 b 860 51 796 64 825 51 "},"⅚":{"ha":1104,"x_min":0,"x_max":0,"o":"m 1013 418 b 967 369 1013 388 993 369 b 919 414 935 369 919 392 b 925 436 919 422 922 431 b 879 449 915 443 897 449 b 738 250 800 449 740 365 b 750 264 740 254 746 260 b 868 311 781 294 821 311 b 1039 153 969 311 1039 243 b 858 -11 1039 61 967 -11 b 724 43 801 -11 757 10 b 667 224 682 86 667 142 b 879 511 667 413 765 511 b 988 474 931 511 965 494 b 1013 418 1006 456 1013 439 m 236 381 b 68 476 128 381 68 431 b 117 528 68 506 88 528 b 165 482 147 528 165 506 b 158 460 165 474 163 465 b 232 443 169 453 196 443 b 354 553 310 443 354 489 b 238 650 354 607 314 650 b 125 625 196 650 154 639 l 92 642 l 115 893 l 394 893 l 394 825 l 176 825 l 164 703 b 242 714 182 708 208 714 b 426 553 349 714 426 653 b 236 381 426 450 343 381 m 263 14 l 536 460 b 803 904 636 622 772 851 l 856 871 l 585 432 b 315 -18 485 267 346 33 m 860 51 b 967 151 922 51 967 96 b 858 249 967 208 926 249 b 747 153 794 249 747 207 b 776 82 747 125 757 100 b 860 51 796 64 825 51 "},"⅛":{"ha":1104,"x_min":0,"x_max":0,"o":"m 858 -10 b 672 128 744 -10 672 54 b 789 258 672 185 717 239 b 685 376 718 279 685 325 b 858 508 685 451 758 508 b 1032 376 956 508 1032 451 b 926 258 1032 325 997 279 b 1043 128 999 239 1043 185 b 858 -10 1043 54 969 -10 m 64 456 l 196 456 l 196 817 l 72 788 l 57 850 l 232 896 l 268 896 l 268 456 l 399 456 l 399 390 l 64 390 m 251 14 l 525 460 b 792 904 625 622 761 851 l 844 871 l 574 432 b 304 -18 474 267 335 33 m 858 54 b 967 140 922 54 967 92 b 858 228 967 186 919 228 b 749 140 794 228 749 186 b 858 54 749 92 793 54 m 858 285 b 956 365 911 285 956 319 b 858 446 956 413 914 446 b 760 365 801 446 760 413 b 858 285 760 319 804 285 "},"⅜":{"ha":1104,"x_min":0,"x_max":0,"o":"m 857 -10 b 671 128 743 -10 671 54 b 788 258 671 185 715 239 b 683 376 717 279 683 325 b 857 508 683 451 757 508 b 1031 376 954 508 1031 451 b 925 258 1031 325 996 279 b 1042 128 997 239 1042 185 b 857 -10 1042 54 968 -10 m 244 381 b 65 496 147 381 65 431 b 115 550 65 525 88 550 b 161 503 143 550 161 529 b 147 472 161 492 156 478 b 244 440 157 463 192 440 b 356 528 307 440 356 478 b 219 618 356 578 313 618 l 189 618 l 189 679 l 222 679 b 344 767 294 679 344 714 b 246 840 344 815 300 840 b 165 814 203 840 175 825 b 179 783 172 808 179 796 b 133 738 179 758 158 738 b 83 793 107 738 83 760 b 249 899 83 838 139 899 b 418 769 346 899 418 843 b 304 650 418 711 367 664 b 431 524 367 638 431 590 b 244 381 431 438 347 381 m 254 14 l 528 460 b 794 904 628 622 764 851 l 847 871 l 576 432 b 307 -18 476 267 338 33 m 857 54 b 965 140 921 54 965 92 b 857 228 965 186 918 228 b 747 140 793 228 747 186 b 857 54 747 92 792 54 m 857 285 b 954 365 910 285 954 319 b 857 446 954 413 913 446 b 758 365 800 446 758 413 b 857 285 758 319 803 285 "},"⅝":{"ha":1104,"x_min":0,"x_max":0,"o":"m 850 -10 b 664 128 736 -10 664 54 b 781 258 664 185 708 239 b 676 376 710 279 676 325 b 850 508 676 451 750 508 b 1024 376 947 508 1024 451 b 918 258 1024 325 989 279 b 1035 128 990 239 1035 185 b 850 -10 1035 54 961 -10 m 226 381 b 58 476 118 381 58 431 b 107 528 58 506 78 528 b 156 482 138 528 156 506 b 149 460 156 474 153 465 b 222 443 160 453 186 443 b 344 553 300 443 344 489 b 228 650 344 607 304 650 b 115 625 186 650 144 639 l 82 642 l 106 893 l 385 893 l 385 825 l 167 825 l 154 703 b 232 714 172 708 199 714 b 417 553 339 714 417 653 b 226 381 417 450 333 381 m 243 14 l 517 460 b 783 904 617 622 753 851 l 836 871 l 565 432 b 296 -18 465 267 326 33 m 850 54 b 958 140 914 54 958 92 b 850 228 958 186 911 228 b 740 140 786 228 740 186 b 850 54 740 92 785 54 m 850 285 b 947 365 903 285 947 319 b 850 446 947 413 906 446 b 751 365 793 446 751 413 b 850 285 751 319 796 285 "},"⅞":{"ha":1104,"x_min":0,"x_max":0,"o":"m 826 -10 b 640 128 713 -10 640 54 b 757 258 640 185 685 239 b 653 376 686 279 653 325 b 826 508 653 451 726 508 b 1000 376 924 508 1000 451 b 894 258 1000 325 965 279 b 1011 128 967 239 1011 185 b 826 -10 1011 54 938 -10 m 369 832 l 163 832 l 163 742 l 97 742 l 97 893 l 438 893 l 454 857 l 240 390 l 163 390 m 201 14 l 475 460 b 742 904 575 622 711 851 l 794 871 l 524 432 b 254 -18 424 267 285 33 m 826 54 b 935 140 890 54 935 92 b 826 228 935 186 888 228 b 717 140 763 228 717 186 b 826 54 717 92 761 54 m 826 285 b 924 365 879 285 924 319 b 826 446 924 413 882 446 b 728 365 769 446 728 413 b 826 285 728 319 772 285 "},"⁰":{"ha":490,"x_min":0,"x_max":0,"o":"m 244 589 b 50 846 129 589 50 693 b 246 1107 50 1004 131 1107 b 440 849 360 1107 440 1004 b 244 589 440 692 360 589 m 244 656 b 364 846 318 656 364 735 b 244 1040 364 961 318 1040 b 126 849 172 1040 126 961 b 244 656 126 735 172 656 "},"¹":{"ha":490,"x_min":0,"x_max":0,"o":"m 88 664 l 219 664 l 219 1025 l 96 996 l 81 1058 l 256 1104 l 292 1104 l 292 664 l 422 664 l 422 599 l 88 599 "},"²":{"ha":490,"x_min":0,"x_max":0,"o":"m 82 599 b 61 632 79 599 61 632 b 246 849 100 742 182 804 b 338 967 299 886 338 915 b 240 1049 338 1014 294 1049 b 149 1010 190 1049 154 1024 b 172 969 163 1004 172 988 b 126 924 172 944 151 924 b 75 985 92 924 75 950 b 246 1111 75 1049 142 1111 b 413 967 336 1111 413 1053 b 290 803 413 886 354 846 b 149 658 235 767 176 719 l 360 658 l 360 740 l 422 740 l 422 599 l 82 599 "},"³":{"ha":490,"x_min":0,"x_max":0,"o":"m 238 589 b 58 704 140 589 58 639 b 108 758 58 733 81 758 b 154 711 136 758 154 738 b 140 681 154 700 149 686 b 238 649 150 671 185 649 b 349 736 300 649 349 686 b 213 826 349 786 306 826 l 182 826 l 182 888 l 215 888 b 338 975 288 888 338 922 b 239 1049 338 1024 293 1049 b 158 1022 196 1049 168 1033 b 172 992 165 1017 172 1004 b 126 946 172 967 151 946 b 76 1001 100 946 76 968 b 242 1107 76 1046 132 1107 b 411 978 339 1107 411 1051 b 297 858 411 919 360 872 b 424 732 360 846 424 799 b 238 589 424 646 340 589 "},"⁴":{"ha":490,"x_min":0,"x_max":0,"o":"m 199 657 l 292 657 l 292 746 l 60 746 l 42 782 l 308 1118 l 360 1076 l 136 801 l 292 801 l 292 897 l 357 925 l 357 804 l 439 804 l 439 744 l 357 744 l 357 658 l 421 658 l 421 599 l 199 599 "},"⁵":{"ha":490,"x_min":0,"x_max":0,"o":"m 232 589 b 64 685 124 589 64 639 b 113 736 64 714 83 736 b 161 690 143 736 161 714 b 154 668 161 682 158 674 b 228 651 165 661 192 651 b 350 761 306 651 350 697 b 233 858 350 815 310 858 b 121 833 192 858 150 847 l 88 850 l 111 1101 l 390 1101 l 390 1033 l 172 1033 l 160 911 b 238 922 178 917 204 922 b 422 761 344 922 422 861 b 232 589 422 658 339 589 "},"⁶":{"ha":490,"x_min":0,"x_max":0,"o":"m 406 1018 b 360 969 406 988 386 969 b 313 1014 328 969 313 992 b 318 1036 313 1022 315 1031 b 272 1049 308 1043 290 1049 b 131 850 193 1049 133 965 b 143 864 133 854 139 860 b 261 911 174 894 214 911 b 432 753 363 911 432 843 b 251 589 432 661 360 589 b 117 643 194 589 150 610 b 60 824 75 686 60 742 b 272 1111 60 1013 158 1111 b 381 1074 324 1111 358 1094 b 406 1018 399 1056 406 1039 m 253 651 b 360 751 315 651 360 696 b 251 849 360 808 319 849 b 140 753 188 849 140 807 b 169 682 140 725 150 700 b 253 651 189 664 218 651 "},"⁷":{"ha":490,"x_min":0,"x_max":0,"o":"m 350 1040 l 143 1040 l 143 950 l 78 950 l 78 1101 l 418 1101 l 435 1065 l 221 599 l 143 599 "},"⁸":{"ha":490,"x_min":0,"x_max":0,"o":"m 246 590 b 60 728 132 590 60 654 b 176 858 60 785 104 839 b 72 976 106 879 72 925 b 246 1108 72 1051 146 1108 b 419 976 343 1108 419 1051 b 314 858 419 925 385 879 b 431 728 386 839 431 785 b 246 590 431 654 357 590 m 246 885 b 343 965 299 885 343 919 b 246 1046 343 1013 301 1046 b 147 965 189 1046 147 1013 b 246 885 147 919 192 885 m 246 654 b 354 740 310 654 354 692 b 246 828 354 786 307 828 b 136 740 182 828 136 786 b 246 654 136 692 181 654 "},"⁹":{"ha":490,"x_min":0,"x_max":0,"o":"m 85 681 b 131 729 85 711 104 729 b 178 685 163 729 178 708 b 171 663 178 676 175 668 b 218 651 182 657 200 651 b 360 849 296 651 356 732 l 347 835 b 229 789 317 804 276 789 b 58 946 128 789 58 856 b 239 1111 58 1038 131 1111 b 374 1056 296 1111 340 1089 b 431 875 415 1014 431 957 b 218 589 431 688 332 589 b 110 626 167 589 132 604 b 85 681 92 643 85 661 m 238 1047 b 131 947 175 1047 131 1003 b 239 851 131 892 171 851 b 350 946 303 851 350 893 b 321 1018 350 975 340 999 b 238 1047 301 1036 272 1047 "},"₀":{"ha":490,"x_min":0,"x_max":0,"o":"m 244 -203 b 50 54 129 -203 50 -99 b 246 315 50 213 131 315 b 440 57 360 315 440 213 b 244 -203 440 -100 360 -203 m 244 -136 b 364 54 318 -136 364 -57 b 244 249 364 169 318 249 b 126 57 172 249 126 169 b 244 -136 126 -57 172 -136 "},"₁":{"ha":490,"x_min":0,"x_max":0,"o":"m 88 -128 l 219 -128 l 219 233 l 96 204 l 81 267 l 256 313 l 292 313 l 292 -128 l 422 -128 l 422 -193 l 88 -193 "},"₂":{"ha":490,"x_min":0,"x_max":0,"o":"m 82 -193 b 61 -160 79 -193 61 -160 b 246 57 100 -50 182 13 b 338 175 299 94 338 124 b 240 257 338 222 294 257 b 149 218 190 257 154 232 b 172 178 163 213 172 196 b 126 132 172 153 151 132 b 75 193 92 132 75 158 b 246 319 75 257 142 319 b 413 175 336 319 413 261 b 290 11 413 94 354 54 b 149 -133 235 -25 176 -72 l 360 -133 l 360 -51 l 422 -51 l 422 -193 l 82 -193 "},"₃":{"ha":490,"x_min":0,"x_max":0,"o":"m 238 -203 b 58 -87 140 -203 58 -153 b 108 -33 58 -58 81 -33 b 154 -81 136 -33 154 -54 b 140 -111 154 -92 149 -106 b 238 -143 150 -121 185 -143 b 349 -56 300 -143 349 -106 b 213 35 349 -6 306 35 l 182 35 l 182 96 l 215 96 b 338 183 288 96 338 131 b 239 257 338 232 293 257 b 158 231 196 257 168 242 b 172 200 165 225 172 213 b 126 154 172 175 151 154 b 76 210 100 154 76 176 b 242 315 76 254 132 315 b 411 186 339 315 411 260 b 297 67 411 128 360 81 b 424 -60 360 54 424 7 b 238 -203 424 -146 340 -203 "},"₄":{"ha":490,"x_min":0,"x_max":0,"o":"m 199 -135 l 292 -135 l 292 -46 l 60 -46 l 42 -10 l 308 326 l 360 285 l 136 10 l 292 10 l 292 106 l 357 133 l 357 13 l 439 13 l 439 -47 l 357 -47 l 357 -133 l 421 -133 l 421 -193 l 199 -193 "},"₅":{"ha":490,"x_min":0,"x_max":0,"o":"m 232 -203 b 64 -107 124 -203 64 -153 b 113 -56 64 -78 83 -56 b 161 -101 143 -56 161 -78 b 154 -124 161 -110 158 -118 b 228 -140 165 -131 192 -140 b 350 -31 306 -140 350 -94 b 233 67 350 24 310 67 b 121 42 192 67 150 56 l 88 58 l 111 310 l 390 310 l 390 242 l 172 242 l 160 119 b 238 131 178 125 204 131 b 422 -31 344 131 422 69 b 232 -203 422 -133 339 -203 "},"₆":{"ha":490,"x_min":0,"x_max":0,"o":"m 406 226 b 360 178 406 196 386 178 b 313 222 328 178 313 200 b 318 244 313 231 315 239 b 272 257 308 251 290 257 b 131 58 193 257 133 174 b 143 72 133 63 139 68 b 261 119 174 103 214 119 b 432 -39 363 119 432 51 b 251 -203 432 -131 360 -203 b 117 -149 194 -203 150 -182 b 60 32 75 -106 60 -50 b 272 319 60 221 158 319 b 381 282 324 319 358 303 b 406 226 399 264 406 247 m 253 -140 b 360 -40 315 -140 360 -96 b 251 57 360 17 319 57 b 140 -39 188 57 140 15 b 169 -110 140 -67 150 -92 b 253 -140 189 -128 218 -140 "},"₇":{"ha":490,"x_min":0,"x_max":0,"o":"m 350 249 l 143 249 l 143 158 l 78 158 l 78 310 l 418 310 l 435 274 l 221 -193 l 143 -193 "},"₈":{"ha":490,"x_min":0,"x_max":0,"o":"m 246 -201 b 60 -64 132 -201 60 -137 b 176 67 60 -7 104 47 b 72 185 106 88 72 133 b 246 317 72 260 146 317 b 419 185 343 317 419 260 b 314 67 419 133 385 88 b 431 -64 386 47 431 -7 b 246 -201 431 -137 357 -201 m 246 93 b 343 174 299 93 343 128 b 246 254 343 221 301 254 b 147 174 189 254 147 221 b 246 93 147 128 192 93 m 246 -137 b 354 -51 310 -137 354 -100 b 246 36 354 -6 307 36 b 136 -51 182 36 136 -6 b 246 -137 136 -100 181 -137 "},"₉":{"ha":490,"x_min":0,"x_max":0,"o":"m 85 -111 b 131 -62 85 -81 104 -62 b 178 -107 163 -62 178 -83 b 171 -128 178 -115 175 -122 b 218 -140 182 -135 200 -140 b 360 57 296 -140 356 -58 l 347 43 b 229 -3 317 13 276 -3 b 58 154 128 -3 58 64 b 239 319 58 246 131 319 b 374 264 296 319 340 297 b 431 83 415 222 431 165 b 218 -203 431 -104 332 -203 b 110 -165 167 -203 132 -187 b 85 -111 92 -149 85 -131 m 238 256 b 131 156 175 256 131 211 b 239 60 131 100 171 60 b 350 154 303 60 350 101 b 321 226 350 183 340 207 b 238 256 301 244 272 256 "}," ":{"ha":315,"x_min":0,"x_max":0,"o":""}," ":{"ha":315,"x_min":0,"x_max":0,"o":""}," ":{"ha":1389,"x_min":0,"x_max":0,"o":""}," ":{"ha":694,"x_min":0,"x_max":0,"o":""}," ":{"ha":463,"x_min":0,"x_max":0,"o":""}," ":{"ha":347,"x_min":0,"x_max":0,"o":""}," ":{"ha":185,"x_min":0,"x_max":0,"o":""}," ":{"ha":104,"x_min":0,"x_max":0,"o":""}," ":{"ha":736,"x_min":0,"x_max":0,"o":""},"⁄":{"ha":694,"x_min":0,"x_max":0,"o":"m 50 14 l 324 460 b 590 904 424 622 560 851 l 643 871 l 372 432 b 103 -18 272 267 133 33 "},"´":{"ha":581,"x_min":0,"x_max":0,"o":"m 185 732 l 353 907 b 413 939 371 926 392 939 b 468 879 442 939 468 917 b 421 818 468 860 450 836 l 211 699 "},"˝":{"ha":697,"x_min":0,"x_max":0,"o":"m 46 735 l 229 907 b 289 939 250 926 269 939 b 344 882 319 939 344 917 b 292 818 344 861 325 836 l 68 701 m 315 742 l 513 906 b 571 932 535 924 554 932 b 625 876 604 932 625 907 b 569 813 625 853 607 828 l 333 707 "},"`":{"ha":581,"x_min":0,"x_max":0,"o":"m 160 818 b 113 879 131 836 113 860 b 168 939 113 917 139 939 b 228 907 189 939 208 926 l 394 732 l 369 699 "},"ˆ":{"ha":644,"x_min":0,"x_max":0,"o":"m 108 746 l 322 950 l 536 746 l 493 694 l 322 824 l 151 694 "},"ˇ":{"ha":644,"x_min":0,"x_max":0,"o":"m 536 900 l 322 696 l 108 900 l 151 951 l 322 822 l 493 951 "},"˘":{"ha":650,"x_min":0,"x_max":0,"o":"m 325 706 b 104 894 224 706 140 778 l 172 924 b 325 801 203 844 264 801 b 478 924 392 801 449 850 l 546 894 b 325 706 511 778 426 706 "},"˜":{"ha":663,"x_min":0,"x_max":0,"o":"m 431 707 b 308 760 376 707 340 732 b 238 799 275 788 257 799 b 174 715 204 799 182 767 l 99 732 b 231 896 106 828 167 896 b 354 842 285 896 321 869 b 425 804 386 815 404 804 b 489 888 457 804 479 835 l 564 871 b 431 707 557 775 496 707 "},"¯":{"ha":636,"x_min":0,"x_max":0,"o":"m 107 831 l 529 831 l 529 743 l 107 743 "},"¨":{"ha":644,"x_min":0,"x_max":0,"o":"m 443 721 b 364 800 399 721 364 757 b 443 881 364 844 400 881 b 521 800 488 881 521 844 b 443 721 521 757 486 721 m 200 721 b 122 800 157 721 122 757 b 201 881 122 844 158 881 b 279 800 244 881 279 844 b 200 721 279 757 244 721 "},"˙":{"ha":560,"x_min":0,"x_max":0,"o":"m 279 714 b 200 796 235 714 200 751 b 281 878 200 842 236 878 b 360 796 325 878 360 842 b 279 714 360 751 324 714 "},"˚":{"ha":613,"x_min":0,"x_max":0,"o":"m 306 686 b 154 840 221 686 154 754 b 306 994 154 926 221 994 b 458 840 392 994 458 926 b 306 686 458 754 392 686 m 306 757 b 383 840 351 757 383 794 b 306 924 383 886 351 924 b 229 840 261 924 229 886 b 306 757 229 794 261 757 "},"̦":{"ha":293,"x_min":0,"x_max":0,"o":"m 53 -354 b 158 -211 131 -296 157 -242 b 99 -142 125 -204 99 -176 b 167 -74 99 -103 131 -74 b 244 -164 210 -74 244 -104 b 75 -386 244 -228 200 -318 "},"¸":{"ha":583,"x_min":0,"x_max":0,"o":"m 315 -276 b 160 -237 263 -276 206 -261 l 181 -193 b 303 -219 217 -208 268 -219 b 361 -179 338 -219 361 -204 b 288 -136 361 -154 339 -136 b 263 -139 281 -136 265 -139 l 236 -117 l 283 31 l 325 24 l 321 -67 b 451 -172 407 -71 451 -115 b 315 -276 451 -228 404 -276 "},"˛":{"ha":576,"x_min":0,"x_max":0,"o":"m 293 -279 b 146 -150 196 -279 146 -226 b 324 46 146 -57 231 13 l 408 29 b 233 -128 310 1 233 -58 b 310 -200 233 -172 258 -200 b 418 -174 351 -200 388 -189 l 413 -247 b 293 -279 392 -262 344 -279 "}}}
